<?xml version="1.0" encoding="utf-8"?>
<!-- Generator: Adobe Illustrator 21.1.0, SVG Export Plug-In . SVG Version: 6.00 Build 0)  -->
<svg version="1.1" xmlns="http://www.w3.org/2000/svg" xmlns:xlink="http://www.w3.org/1999/xlink" x="0px" y="0px"
	 viewBox="0 0 500 350" style="enable-background:new 0 0 500 350;" xml:space="preserve">
<style type="text/css">
	.st0{display:none;}
	.st1{display:inline;}
	.st2{fill:#FFFFFF;stroke:#575757;stroke-width:0.8;stroke-linecap:round;stroke-linejoin:round;stroke-miterlimit:10;}
	.st3{fill:#3FA8DF;}
	.st4{fill:none;stroke:#575757;stroke-width:0.8;stroke-linecap:round;stroke-linejoin:round;stroke-miterlimit:10;}
	
		.st5{display:inline;fill:#FFFFFF;stroke:#575757;stroke-width:0.8;stroke-linecap:round;stroke-linejoin:round;stroke-miterlimit:10;}
	.st6{display:inline;fill:#3FA8DF;}
	.st7{display:inline;fill:none;stroke:#575757;stroke-width:0.8;stroke-linecap:round;stroke-linejoin:round;stroke-miterlimit:10;}
	.st8{fill:none;stroke:#419DCF;stroke-width:0.8;stroke-linecap:round;stroke-linejoin:round;stroke-miterlimit:10;}
	.st9{fill:#575756;}
	.st10{display:inline;fill:#FFFFFF;}
	
		.st11{display:inline;fill:none;stroke:#419DCF;stroke-width:0.8;stroke-linecap:round;stroke-linejoin:round;stroke-miterlimit:10;}
	.st12{display:inline;fill:#0082C7;}
	.st13{display:inline;fill:#005EA9;}
	.st14{display:inline;fill:#00468D;}
	.st15{display:inline;fill:#43474B;}
	.st16{display:inline;fill:#3C4044;}
	.st17{fill:#FFFFFF;}
	.st18{fill:#FFFFFF;stroke:#575757;stroke-width:3.2;stroke-linecap:round;stroke-linejoin:round;stroke-miterlimit:10;}
	.st19{fill:none;stroke:#575757;stroke-width:3.2;stroke-linecap:round;stroke-linejoin:round;stroke-miterlimit:10;}
	.st20{fill:none;stroke:#419DCF;stroke-width:3.2;stroke-linecap:round;stroke-linejoin:round;stroke-miterlimit:10;}
	.st21{display:inline;fill:none;stroke:#FF7BEB;stroke-width:0.5627;stroke-miterlimit:10;}
</style>
<g id="Capa_1" class="st0">
</g>
<g id="Capa_4">
	<g>
		<polyline class="st19" points="143.2,173.6 143.2,299.5 358.1,299.5 358.1,173.6 		"/>
		<circle class="st18" cx="95.4" cy="223.3" r="32.3"/>
		<circle class="st3" cx="95.4" cy="223.3" r="21.5"/>
		<line class="st19" x1="95.4" y1="257" x2="95.4" y2="298.8"/>
		<path class="st18" d="M412.4,299.5c0.5-2.4,0.8-4.9,0.8-7.4c0-18.9-15.3-34.2-34.2-34.2s-34.2,15.3-34.2,34.2c0,2.6,0.3,5,0.8,7.4
			H412.4z"/>
		<path class="st18" d="M216,194.4h-43.2c-2.9,0-5.3,2.4-5.3,5.3v99.8h53.8v-99.8C221.3,196.7,218.9,194.4,216,194.4z"/>
		<path class="st3" d="M210.1,203.3h-30.9c-2.1,0-3.8,1.7-3.8,3.8v84.1h38.4V207C213.9,204.9,212.2,203.3,210.1,203.3z"/>
		<path class="st18" d="M329.9,194.4h-86.7c-1.5,0-2.6,1.2-2.6,2.6v61.2c0,1.5,1.2,2.6,2.6,2.6h86.7c1.5,0,2.6-1.2,2.6-2.6V197
			C332.5,195.6,331.4,194.4,329.9,194.4z"/>
		<path class="st3" d="M324,211.5h-74.8c-1.2,0-2.1,0.9-2.1,2.1V252c0,1.2,0.9,2.1,2.1,2.1H324c1.2,0,2.1-0.9,2.1-2.1v-38.4
			C326,212.4,325.1,211.5,324,211.5z"/>
		<path class="st18" d="M329.9,271.6h-86.7c-1.5,0-2.6,1.2-2.6,2.6v3.9c0,1.5,1.2,2.6,2.6,2.6h86.7c1.5,0,2.6-1.2,2.6-2.6v-3.9
			C332.5,272.8,331.4,271.6,329.9,271.6z"/>
		<line class="st18" x1="332.5" y1="205.5" x2="240.6" y2="205.5"/>
		<line class="st19" x1="208.1" y1="253.1" x2="208.1" y2="263.6"/>
		<g>
			<g>
				<path class="st3" d="M144.7,165.3L144.7,165.3c-7,0-12.7-5.7-12.7-12.7V143h25.4v9.6C157.4,159.6,151.7,165.3,144.7,165.3z"/>
				<polygon class="st3" points="157.4,143 195.5,95.2 178.6,95.2 132,143 				"/>
				<path class="st3" d="M229.6,165.3L229.6,165.3c-7,0-12.7-5.7-12.7-12.7V143h25.4v9.6C242.3,159.6,236.7,165.3,229.6,165.3z"/>
				<polygon class="st3" points="242.3,143 246.5,95.2 229.6,95.2 217,143 				"/>
				<path class="st3" d="M187,165.3L187,165.3c-7,0-12.7-5.7-12.7-12.7V143h25.4v9.6C199.7,159.6,194,165.3,187,165.3z"/>
				<polygon class="st3" points="199.7,143 221.1,95.2 204.2,95.2 174.3,143 				"/>
			</g>
			<g>
				<path class="st3" d="M356.6,165.3L356.6,165.3c7,0,12.7-5.7,12.7-12.7V143h-25.4v9.6C343.9,159.6,349.5,165.3,356.6,165.3z"/>
				<polygon class="st3" points="343.9,143 305.7,95.2 322.7,95.2 369.2,143 				"/>
				<path class="st3" d="M271.6,165.3L271.6,165.3c7,0,12.7-5.7,12.7-12.7V143h-25.4v9.6C258.9,159.6,264.6,165.3,271.6,165.3z"/>
				<polygon class="st3" points="258.9,143 254.8,95.2 271.7,95.2 284.3,143 				"/>
				<path class="st3" d="M314.3,165.3L314.3,165.3c7,0,12.7-5.7,12.7-12.7V143h-25.4v9.6C301.6,159.6,307.3,165.3,314.3,165.3z"/>
				<polygon class="st3" points="301.6,143 280.2,95.2 297.1,95.2 327,143 				"/>
			</g>
		</g>
		<path class="st18" d="M324.4,94.8H176.8c-3.4,0-6.2-2.8-6.2-6.2v-0.8c0-3.4,2.8-6.2,6.2-6.2h147.6c3.4,0,6.2,2.8,6.2,6.2v0.8
			C330.6,92,327.9,94.8,324.4,94.8z"/>
		<rect x="202" y="55.8" class="st18" width="51.7" height="25.8"/>
		<line class="st18" x1="280.2" y1="81.6" x2="280.2" y2="68.3"/>
		<line class="st18" x1="275.5" y1="68.3" x2="284.8" y2="68.3"/>
		<line class="st18" x1="298.6" y1="81.6" x2="298.6" y2="62.6"/>
		<rect x="209.4" y="62.8" class="st3" width="36.8" height="12.1"/>
		<g>
			<path class="st19" d="M144.8,173L144.8,173c-11.7,0-21.2-9.5-21.2-21.2V143H166v8.9C166,163.6,156.5,173,144.8,173z"/>
			<path class="st19" d="M187.1,173L187.1,173c11.7,0,21.2-9.5,21.2-21.2V143H166v8.9C166,163.6,175.5,173,187.1,173z"/>
			<path class="st19" d="M271.8,173L271.8,173c11.7,0,21.2-9.5,21.2-21.2V143h-42.3v8.9C250.6,163.6,260.1,173,271.8,173z"/>
			<path class="st19" d="M229.5,173L229.5,173c-11.7,0-21.2-9.5-21.2-21.2V143h42.3v8.9C250.6,163.6,241.2,173,229.5,173z"/>
			<path class="st19" d="M314.1,173L314.1,173c-11.7,0-21.2-9.5-21.2-21.2V143h42.3v8.9C335.3,163.6,325.8,173,314.1,173z"/>
			<path class="st19" d="M356.5,173L356.5,173c11.7,0,21.2-9.5,21.2-21.2V143h-42.3v8.9C335.3,163.6,344.8,173,356.5,173z"/>
			<polygon class="st19" points="199.9,95.2 174.5,95.2 123.6,143 166,143 			"/>
			<polygon class="st19" points="199.9,95.2 225.3,95.2 208.3,143 166,143 			"/>
			<polygon class="st19" points="250.6,95.2 276,95.2 293,143 250.6,143 			"/>
			<polygon class="st19" points="250.6,95.2 225.3,95.2 208.3,143 250.6,143 			"/>
			<polygon class="st19" points="301.4,95.2 276,95.2 293,143 335.3,143 			"/>
			<polygon class="st19" points="301.4,95.2 326.8,95.2 377.6,143 335.3,143 			"/>
		</g>
		<g>
			<line class="st20" x1="410.5" y1="191.5" x2="410.5" y2="197"/>
			<line class="st20" x1="410.5" y1="205.1" x2="410.5" y2="210.6"/>
			<line class="st20" x1="420.1" y1="201" x2="414.6" y2="201"/>
			<line class="st20" x1="406.4" y1="201" x2="400.9" y2="201"/>
		</g>
		<g>
			<line class="st20" x1="98.8" y1="93.5" x2="98.8" y2="99"/>
			<line class="st20" x1="98.8" y1="107.1" x2="98.8" y2="112.6"/>
			<line class="st20" x1="108.4" y1="103" x2="102.9" y2="103"/>
			<line class="st20" x1="94.8" y1="103" x2="89.2" y2="103"/>
		</g>
		<path class="st3" d="M400.9,299.5c0.8-2.3,1.2-4.8,1.2-7.4c0-12.7-10.3-23.1-23.1-23.1S356,279.3,356,292c0,2.6,0.5,5.1,1.2,7.4
			H400.9z"/>
		<line class="st18" x1="50.4" y1="299.5" x2="449.6" y2="299.5"/>
		<g>
			<circle class="st3" cx="351.6" cy="50.2" r="2.3"/>
			<circle class="st3" cx="351.6" cy="63.8" r="2.3"/>
			<circle class="st3" cx="351.6" cy="77.5" r="2.3"/>
			<circle class="st3" cx="351.6" cy="91.2" r="2.3"/>
			<circle class="st3" cx="351.6" cy="104.9" r="2.3"/>
			<circle class="st3" cx="351.6" cy="118.6" r="2.3"/>
			<circle class="st3" cx="365.3" cy="50.2" r="2.3"/>
			<circle class="st3" cx="365.3" cy="63.8" r="2.3"/>
			<circle class="st3" cx="365.3" cy="77.5" r="2.3"/>
			<circle class="st3" cx="365.3" cy="91.2" r="2.3"/>
			<circle class="st3" cx="365.3" cy="104.9" r="2.3"/>
			<circle class="st3" cx="365.3" cy="118.6" r="2.3"/>
			<circle class="st3" cx="378.9" cy="50.2" r="2.3"/>
			<circle class="st3" cx="378.9" cy="63.8" r="2.3"/>
			<circle class="st3" cx="378.9" cy="77.5" r="2.3"/>
			<circle class="st3" cx="378.9" cy="91.2" r="2.3"/>
			<circle class="st3" cx="378.9" cy="104.9" r="2.3"/>
			<circle class="st3" cx="378.9" cy="118.6" r="2.3"/>
			<circle class="st3" cx="392.6" cy="50.2" r="2.3"/>
			<circle class="st3" cx="392.6" cy="63.8" r="2.3"/>
			<circle class="st3" cx="392.6" cy="77.5" r="2.3"/>
			<circle class="st3" cx="392.6" cy="91.2" r="2.3"/>
			<circle class="st3" cx="392.6" cy="104.9" r="2.3"/>
			<circle class="st3" cx="392.6" cy="118.6" r="2.3"/>
			<circle class="st3" cx="406.2" cy="50.2" r="2.3"/>
			<circle class="st3" cx="406.2" cy="63.8" r="2.3"/>
			<circle class="st3" cx="406.2" cy="77.5" r="2.3"/>
			<circle class="st3" cx="406.2" cy="91.2" r="2.3"/>
			<circle class="st3" cx="406.2" cy="104.9" r="2.3"/>
			<circle class="st3" cx="406.2" cy="118.6" r="2.3"/>
			<circle class="st3" cx="419.9" cy="50.2" r="2.3"/>
			<circle class="st3" cx="419.9" cy="63.8" r="2.3"/>
			<circle class="st3" cx="419.9" cy="77.5" r="2.3"/>
			<circle class="st3" cx="419.9" cy="91.2" r="2.3"/>
			<circle class="st3" cx="419.9" cy="104.9" r="2.3"/>
			<circle class="st3" cx="419.9" cy="118.6" r="2.3"/>
			<circle class="st3" cx="433.6" cy="50.2" r="2.3"/>
			<circle class="st3" cx="433.6" cy="63.8" r="2.3"/>
			<circle class="st3" cx="433.6" cy="77.5" r="2.3"/>
			<circle class="st3" cx="433.6" cy="91.2" r="2.3"/>
			<circle class="st3" cx="433.6" cy="104.9" r="2.3"/>
			<circle class="st3" cx="433.6" cy="118.6" r="2.3"/>
			<circle class="st3" cx="447.3" cy="50.2" r="2.3"/>
			<circle class="st3" cx="447.3" cy="63.8" r="2.3"/>
			<circle class="st3" cx="447.3" cy="77.5" r="2.3"/>
			<circle class="st3" cx="447.3" cy="91.2" r="2.3"/>
			<circle class="st3" cx="447.3" cy="104.9" r="2.3"/>
			<circle class="st3" cx="447.3" cy="118.6" r="2.3"/>
		</g>
	</g>
</g>
<g id="Capa_3" class="st0">
</g>
<g id="Capa_2" class="st0">
</g>
</svg>
