<?xml version="1.0" encoding="utf-8"?>
<!-- Generator: Adobe Illustrator 21.1.0, SVG Export Plug-In . SVG Version: 6.00 Build 0)  -->
<svg version="1.1" xmlns="http://www.w3.org/2000/svg" xmlns:xlink="http://www.w3.org/1999/xlink" x="0px" y="0px"
	 viewBox="0 0 500 350" style="enable-background:new 0 0 500 350;" xml:space="preserve">
<style type="text/css">
	.st0{display:none;}
	.st1{display:inline;}
	.st2{fill:#FFFFFF;stroke:#575757;stroke-width:0.8;stroke-linecap:round;stroke-linejoin:round;stroke-miterlimit:10;}
	.st3{fill:#3FA8DF;}
	.st4{fill:none;stroke:#575757;stroke-width:0.8;stroke-linecap:round;stroke-linejoin:round;stroke-miterlimit:10;}
	
		.st5{display:inline;fill:#FFFFFF;stroke:#575757;stroke-width:0.8;stroke-linecap:round;stroke-linejoin:round;stroke-miterlimit:10;}
	.st6{display:inline;fill:#3FA8DF;}
	.st7{display:inline;fill:none;stroke:#575757;stroke-width:0.8;stroke-linecap:round;stroke-linejoin:round;stroke-miterlimit:10;}
	.st8{fill:none;stroke:#419DCF;stroke-width:0.8;stroke-linecap:round;stroke-linejoin:round;stroke-miterlimit:10;}
	.st9{fill:#575756;}
	.st10{display:inline;fill:#FFFFFF;}
	
		.st11{display:inline;fill:none;stroke:#419DCF;stroke-width:0.8;stroke-linecap:round;stroke-linejoin:round;stroke-miterlimit:10;}
	.st12{display:inline;fill:#0082C7;}
	.st13{display:inline;fill:#005EA9;}
	.st14{display:inline;fill:#00468D;}
	.st15{display:inline;fill:#43474B;}
	.st16{display:inline;fill:#3C4044;}
	.st17{fill:#FFFFFF;}
	.st18{fill:#FFFFFF;stroke:#575757;stroke-width:3.2;stroke-linecap:round;stroke-linejoin:round;stroke-miterlimit:10;}
	.st19{fill:none;stroke:#575757;stroke-width:3.2;stroke-linecap:round;stroke-linejoin:round;stroke-miterlimit:10;}
	.st20{fill:none;stroke:#419DCF;stroke-width:3.2;stroke-linecap:round;stroke-linejoin:round;stroke-miterlimit:10;}
	.st21{display:inline;fill:none;stroke:#FF7BEB;stroke-width:0.5627;stroke-miterlimit:10;}
</style>
<g id="Capa_1" class="st0">
</g>
<g id="Capa_4">
	<g>
		<line class="st18" x1="50.4" y1="299.5" x2="449.6" y2="299.5"/>
		<g>
			<rect x="289.7" y="242.1" class="st18" width="37.4" height="22.7"/>
			<path class="st18" d="M324.4,240.5V130.1c0-4.4,4-7.8,8.3-7l35.5,6c15.6,2.6,27.1,16.2,27.1,32v0"/>
			<rect x="71.8" y="235.7" class="st18" width="211.7" height="19.3"/>
			<rect x="56.8" y="121.7" class="st18" width="256.6" height="114"/>
			<rect x="68.8" y="133.7" class="st18" width="232.6" height="90"/>
			<rect x="76.8" y="142.1" class="st3" width="216.5" height="73.1"/>
			<line class="st18" x1="261.4" y1="133.7" x2="261.4" y2="223.7"/>
			<line class="st18" x1="100.8" y1="133.7" x2="100.8" y2="223.7"/>
			<line class="st18" x1="140.9" y1="133.7" x2="140.9" y2="223.7"/>
			<line class="st18" x1="180.9" y1="133.7" x2="180.9" y2="223.7"/>
			<line class="st18" x1="220.9" y1="133.7" x2="220.9" y2="223.7"/>
			<rect x="230.3" y="266" class="st18" width="10.5" height="10.9"/>
			<path class="st18" d="M368.6,157.4h-29.3c-4.5,0-8.2,3.7-8.2,8.2v9.5h93.9l0,0c0-4.9-3.5-9.1-8.3-9.9l-39.3-6.9
				C374.5,157.7,371.6,157.4,368.6,157.4z"/>
			<rect x="331.2" y="175.1" class="st19" width="47.6" height="69.6"/>
			<polygon class="st19" points="378.7,175.1 423.5,175.1 437.4,208.3 437.4,244.7 378.7,244.7 			"/>
			<polygon class="st19" points="417.4,180.9 428.9,208.3 385.2,208.3 385.2,180.9 			"/>
			<line class="st19" x1="397.2" y1="208.3" x2="397.2" y2="180.9"/>
			<rect x="341.8" y="182.6" class="st19" width="19.8" height="10.1"/>
			<rect x="341.8" y="202.6" class="st19" width="31.1" height="15.9"/>
			<rect x="329.1" y="275.6" class="st19" width="89.9" height="7.3"/>
			<path class="st18" d="M342.5,275.6h69.1c-0.1-19-15.5-34.4-34.6-34.4S342.6,256.6,342.5,275.6z"/>
			<g>
				<path class="st18" d="M85.1,255H65.7V266h13.9C80.8,262,82.7,258.2,85.1,255z"/>
				<path class="st18" d="M140.3,255c2.5,3.3,4.4,7,5.6,11.1h143.8V255H140.3z"/>
			</g>
			<g>
				<circle class="st18" cx="377.1" cy="275.7" r="23.7"/>
				<circle class="st3" cx="377.1" cy="275.7" r="19"/>
				<circle class="st19" cx="377.1" cy="275.7" r="13.6"/>
				<circle class="st19" cx="377.1" cy="275.7" r="4.6"/>
			</g>
			<g>
				<circle class="st18" cx="332.6" cy="238.9" r="13.1"/>
				<circle class="st18" cx="332.6" cy="238.9" r="7.3"/>
			</g>
			<path class="st18" d="M78.2,275.6h69.1c-0.1-19-15.5-34.4-34.6-34.4S78.2,256.6,78.2,275.6z"/>
			<path class="st18" d="M148.6,275.6h69.1c-0.1-19-15.5-34.4-34.6-34.4S148.7,256.6,148.6,275.6z"/>
			<g>
				<rect x="72" y="266.1" class="st18" width="12.5" height="8.1"/>
				<circle class="st18" cx="78.3" cy="273.7" r="4"/>
			</g>
			<g>
				<rect x="142" y="266.1" class="st18" width="12.5" height="8.1"/>
				<circle class="st18" cx="148.2" cy="273.7" r="4"/>
			</g>
			<g>
				<circle class="st18" cx="112.7" cy="275.7" r="23.7"/>
				<circle class="st3" cx="112.7" cy="275.7" r="19"/>
				<circle class="st19" cx="112.7" cy="275.7" r="13.6"/>
				<circle class="st19" cx="112.7" cy="275.7" r="4.6"/>
			</g>
			<g>
				<circle class="st18" cx="183.1" cy="275.7" r="23.7"/>
				<circle class="st3" cx="183.1" cy="275.7" r="19"/>
				<circle class="st19" cx="183.1" cy="275.7" r="13.6"/>
				<circle class="st19" cx="183.1" cy="275.7" r="4.6"/>
			</g>
			<g>
				<rect x="211.6" y="266.1" class="st18" width="12.5" height="8.1"/>
				<circle class="st18" cx="217.9" cy="273.7" r="4"/>
			</g>
			<path class="st18" d="M253.1,255.4h75.5c3.7,0,6.7,3,6.7,6.7V281c0,3.7-3,6.7-6.7,6.7h-75.5c-3.7,0-6.7-3-6.7-6.7v-18.8
				C246.3,258.4,249.4,255.4,253.1,255.4z"/>
			<path class="st3" d="M255,261.8h71.7c1.2,0,2.1,0.9,2.1,2.1v15.3c0,1.2-0.9,2.1-2.1,2.1H255c-1.2,0-2.1-0.9-2.1-2.1v-15.3
				C252.9,262.7,253.8,261.8,255,261.8z"/>
			<rect x="310" y="251.1" class="st18" width="6.8" height="41.4"/>
			<rect x="268.8" y="251.1" class="st18" width="6.8" height="41.4"/>
			<path class="st18" d="M410.1,253.7h34.1v17.2c0,5.8-4,10.8-9.6,12.1l-24.5,5.8V253.7z"/>
			<path class="st18" d="M433.8,262.8h9.1c2.9,0,5.2-2.3,5.2-5.2v-17c0-2.9-2.3-5.2-5.2-5.2h-9.1V262.8z"/>
			<rect x="51.8" y="133.7" class="st18" width="9.9" height="19.9"/>
			<rect x="51.8" y="203.8" class="st18" width="9.9" height="19.9"/>
			<line class="st19" x1="385.3" y1="189.9" x2="396.9" y2="189.9"/>
			<line class="st19" x1="385.3" y1="219.4" x2="396.9" y2="219.4"/>
		</g>
		<g>
			<circle class="st3" cx="351.6" cy="74.4" r="2.3"/>
			<circle class="st3" cx="351.6" cy="88.1" r="2.3"/>
			<circle class="st3" cx="351.6" cy="101.8" r="2.3"/>
			<circle class="st3" cx="351.6" cy="115.5" r="2.3"/>
			<circle class="st3" cx="351.6" cy="129.2" r="2.3"/>
			<circle class="st3" cx="351.6" cy="142.9" r="2.3"/>
			<circle class="st3" cx="365.3" cy="74.4" r="2.3"/>
			<circle class="st3" cx="365.3" cy="88.1" r="2.3"/>
			<circle class="st3" cx="365.3" cy="101.8" r="2.3"/>
			<circle class="st3" cx="365.3" cy="115.5" r="2.3"/>
			<circle class="st3" cx="365.3" cy="129.2" r="2.3"/>
			<circle class="st3" cx="365.3" cy="142.9" r="2.3"/>
			<circle class="st3" cx="378.9" cy="74.4" r="2.3"/>
			<circle class="st3" cx="378.9" cy="88.1" r="2.3"/>
			<circle class="st3" cx="378.9" cy="101.8" r="2.3"/>
			<circle class="st3" cx="378.9" cy="115.5" r="2.3"/>
			<circle class="st3" cx="378.9" cy="129.2" r="2.3"/>
			<circle class="st3" cx="378.9" cy="142.9" r="2.3"/>
			<circle class="st3" cx="392.6" cy="74.4" r="2.3"/>
			<circle class="st3" cx="392.6" cy="88.1" r="2.3"/>
			<circle class="st3" cx="392.6" cy="101.8" r="2.3"/>
			<circle class="st3" cx="392.6" cy="115.5" r="2.3"/>
			<circle class="st3" cx="392.6" cy="129.2" r="2.3"/>
			<circle class="st3" cx="392.6" cy="142.9" r="2.3"/>
			<circle class="st3" cx="406.2" cy="74.4" r="2.3"/>
			<circle class="st3" cx="406.2" cy="88.1" r="2.3"/>
			<circle class="st3" cx="406.2" cy="101.8" r="2.3"/>
			<circle class="st3" cx="406.2" cy="115.5" r="2.3"/>
			<circle class="st3" cx="406.2" cy="129.2" r="2.3"/>
			<circle class="st3" cx="406.2" cy="142.9" r="2.3"/>
			<circle class="st3" cx="419.9" cy="74.4" r="2.3"/>
			<circle class="st3" cx="419.9" cy="88.1" r="2.3"/>
			<circle class="st3" cx="419.9" cy="101.8" r="2.3"/>
			<circle class="st3" cx="419.9" cy="115.5" r="2.3"/>
			<circle class="st3" cx="419.9" cy="129.2" r="2.3"/>
			<circle class="st3" cx="419.9" cy="142.9" r="2.3"/>
			<circle class="st3" cx="433.6" cy="74.4" r="2.3"/>
			<circle class="st3" cx="433.6" cy="88.1" r="2.3"/>
			<circle class="st3" cx="433.6" cy="101.8" r="2.3"/>
			<circle class="st3" cx="433.6" cy="115.5" r="2.3"/>
			<circle class="st3" cx="433.6" cy="129.2" r="2.3"/>
			<circle class="st3" cx="433.6" cy="142.9" r="2.3"/>
			<circle class="st3" cx="447.3" cy="74.4" r="2.3"/>
			<circle class="st3" cx="447.3" cy="88.1" r="2.3"/>
			<circle class="st3" cx="447.3" cy="101.8" r="2.3"/>
			<circle class="st3" cx="447.3" cy="115.5" r="2.3"/>
			<circle class="st3" cx="447.3" cy="129.2" r="2.3"/>
			<circle class="st3" cx="447.3" cy="142.9" r="2.3"/>
		</g>
		<g>
			<line class="st20" x1="84.6" y1="77.5" x2="84.6" y2="83.1"/>
			<line class="st20" x1="84.6" y1="91.2" x2="84.6" y2="96.7"/>
			<line class="st20" x1="94.1" y1="87.1" x2="88.6" y2="87.1"/>
			<line class="st20" x1="80.5" y1="87.1" x2="75" y2="87.1"/>
		</g>
		<g>
			<line class="st20" x1="206.1" y1="47.9" x2="206.1" y2="53.4"/>
			<line class="st20" x1="206.1" y1="61.5" x2="206.1" y2="67"/>
			<line class="st20" x1="215.7" y1="57.5" x2="210.2" y2="57.5"/>
			<line class="st20" x1="202" y1="57.5" x2="196.5" y2="57.5"/>
		</g>
		<g>
			<path class="st18" d="M140.1,78.1c7.2,0,13,5.8,13,13"/>
			<path class="st18" d="M153.2,91.1c0-7.2,5.8-13,13-13"/>
		</g>
		<path class="st19" d="M292.1,103.6c5.8,0,10.6-4.7,10.6-10.6c0-5.8-4.7-10.6-10.6-10.6c-2,0-3.9,0.6-5.5,1.6c0-0.1,0-0.2,0-0.3
			c0-6.7-5.4-12.1-12.1-12.1c-6.3,0-11.4,4.8-12,11c-0.4,0-0.7-0.1-1.1-0.1c-5.8,0-10.6,4.7-10.6,10.6c0,5.8,4.7,10.6,10.6,10.6
			H292.1z"/>
	</g>
</g>
<g id="Capa_3" class="st0">
</g>
<g id="Capa_2" class="st0">
</g>
</svg>
