<?xml version="1.0" encoding="utf-8"?>
<!-- Generator: Adobe Illustrator 21.1.0, SVG Export Plug-In . SVG Version: 6.00 Build 0)  -->
<svg version="1.1" xmlns="http://www.w3.org/2000/svg" xmlns:xlink="http://www.w3.org/1999/xlink" x="0px" y="0px"
	 viewBox="0 0 500 350" style="enable-background:new 0 0 500 350;" xml:space="preserve">
<style type="text/css">
	.st0{display:none;}
	.st1{display:inline;}
	.st2{fill:#FFFFFF;stroke:#575757;stroke-width:0.8;stroke-linecap:round;stroke-linejoin:round;stroke-miterlimit:10;}
	.st3{fill:#3FA8DF;}
	.st4{fill:none;stroke:#575757;stroke-width:0.8;stroke-linecap:round;stroke-linejoin:round;stroke-miterlimit:10;}
	
		.st5{display:inline;fill:#FFFFFF;stroke:#575757;stroke-width:0.8;stroke-linecap:round;stroke-linejoin:round;stroke-miterlimit:10;}
	.st6{display:inline;fill:#3FA8DF;}
	.st7{display:inline;fill:none;stroke:#575757;stroke-width:0.8;stroke-linecap:round;stroke-linejoin:round;stroke-miterlimit:10;}
	.st8{fill:none;stroke:#419DCF;stroke-width:0.8;stroke-linecap:round;stroke-linejoin:round;stroke-miterlimit:10;}
	.st9{fill:#575756;}
	.st10{display:inline;fill:#FFFFFF;}
	
		.st11{display:inline;fill:none;stroke:#419DCF;stroke-width:0.8;stroke-linecap:round;stroke-linejoin:round;stroke-miterlimit:10;}
	.st12{display:inline;fill:#0082C7;}
	.st13{display:inline;fill:#005EA9;}
	.st14{display:inline;fill:#00468D;}
	.st15{display:inline;fill:#43474B;}
	.st16{display:inline;fill:#3C4044;}
	.st17{fill:#FFFFFF;}
	.st18{fill:#FFFFFF;stroke:#575757;stroke-width:3.2;stroke-linecap:round;stroke-linejoin:round;stroke-miterlimit:10;}
	.st19{fill:none;stroke:#575757;stroke-width:3.2;stroke-linecap:round;stroke-linejoin:round;stroke-miterlimit:10;}
	.st20{fill:none;stroke:#419DCF;stroke-width:3.2;stroke-linecap:round;stroke-linejoin:round;stroke-miterlimit:10;}
	.st21{display:inline;fill:none;stroke:#FF7BEB;stroke-width:0.5627;stroke-miterlimit:10;}
</style>
<g id="Capa_1" class="st0">
</g>
<g id="Capa_4">
	<g>
		<path class="st3" d="M255.7,195.7v-94.5c0-6.2-5-11.2-11.2-11.2h-77c-2.2,0-4.1,1.8-4.1,4.1v97.7c0,2.2,1.8,4.1,4.1,4.1h77.1
			c6.2,0,11.2,5,11.2,11.2V195.7L255.7,195.7z"/>
		<path class="st3" d="M315.6,177.3l21.9-46.9c0.6-1.4-0.4-3-1.9-3h-80l0,86.9c0,5.1-4.1,9.2-9.2,9.2h-22.6c-5.4,0-9.7,4.4-9.7,9.7
			h121.4c1.5,0,2.5-1.6,1.9-3l-21.8-47.4C314.8,181.1,314.8,179.1,315.6,177.3z"/>
		<rect x="144.8" y="57.8" class="st19" width="8.7" height="243"/>
		<path class="st19" d="M135.7,53.5L135.7,53.5c0,2.3,1.9,4.2,4.2,4.2h18.5c2.3,0,4.2-1.9,4.2-4.2v0c0-2.3-1.9-4.2-4.2-4.2h-18.5
			C137.6,49.2,135.7,51.1,135.7,53.5z"/>
		<path class="st19" d="M257.1,118.2h88.5c4.8,0,7.9,5,5.9,9.3L328,177.8c-0.7,1.5-0.7,3.2,0,4.7l23.6,51.3c2,4.3-1.2,9.2-5.9,9.2
			H223.9c-5.4,0-9.7-4.4-9.7-9.7v0c0-5.4,4.4-9.7,9.7-9.7h22.6c5.1,0,9.2-4.1,9.2-9.2l0,0c0-5.1-4.1-9.2-9.2-9.2l-93,0V80.4h90.9
			c6.2,0,11.2,5,11.2,11.2l0,122.7"/>
		<line class="st19" x1="214.1" y1="233.2" x2="214.1" y2="206.1"/>
		<g>
			<circle class="st3" cx="286.3" cy="51.4" r="2.3"/>
			<circle class="st3" cx="286.3" cy="65.1" r="2.3"/>
			<circle class="st3" cx="286.3" cy="78.8" r="2.3"/>
			<circle class="st3" cx="286.3" cy="92.5" r="2.3"/>
			<circle class="st3" cx="286.3" cy="106.2" r="2.3"/>
			<circle class="st3" cx="286.3" cy="119.9" r="2.3"/>
			<circle class="st3" cx="300" cy="51.4" r="2.3"/>
			<circle class="st3" cx="300" cy="65.1" r="2.3"/>
			<circle class="st3" cx="300" cy="78.8" r="2.3"/>
			<circle class="st3" cx="300" cy="92.5" r="2.3"/>
			<circle class="st3" cx="300" cy="106.2" r="2.3"/>
			<circle class="st3" cx="300" cy="119.9" r="2.3"/>
			<circle class="st3" cx="313.7" cy="51.4" r="2.3"/>
			<circle class="st3" cx="313.7" cy="65.1" r="2.3"/>
			<circle class="st3" cx="313.7" cy="78.8" r="2.3"/>
			<circle class="st3" cx="313.7" cy="92.5" r="2.3"/>
			<circle class="st3" cx="313.7" cy="106.2" r="2.3"/>
			<circle class="st3" cx="313.7" cy="119.9" r="2.3"/>
			<circle class="st3" cx="327.4" cy="51.4" r="2.3"/>
			<circle class="st3" cx="327.4" cy="65.1" r="2.3"/>
			<circle class="st3" cx="327.4" cy="78.8" r="2.3"/>
			<circle class="st3" cx="327.4" cy="92.5" r="2.3"/>
			<circle class="st3" cx="327.4" cy="106.2" r="2.3"/>
			<circle class="st3" cx="327.4" cy="119.9" r="2.3"/>
			<circle class="st3" cx="341" cy="51.4" r="2.3"/>
			<circle class="st3" cx="341" cy="65.1" r="2.3"/>
			<circle class="st3" cx="341" cy="78.8" r="2.3"/>
			<circle class="st3" cx="341" cy="92.5" r="2.3"/>
			<circle class="st3" cx="341" cy="106.2" r="2.3"/>
			<circle class="st3" cx="341" cy="119.9" r="2.3"/>
			<circle class="st3" cx="354.7" cy="51.4" r="2.3"/>
			<circle class="st3" cx="354.7" cy="65.1" r="2.3"/>
			<circle class="st3" cx="354.7" cy="78.8" r="2.3"/>
			<circle class="st3" cx="354.7" cy="92.5" r="2.3"/>
			<circle class="st3" cx="354.7" cy="106.2" r="2.3"/>
			<circle class="st3" cx="354.7" cy="119.9" r="2.3"/>
			<circle class="st3" cx="368.4" cy="51.4" r="2.3"/>
			<circle class="st3" cx="368.4" cy="65.1" r="2.3"/>
			<circle class="st3" cx="368.4" cy="78.8" r="2.3"/>
			<circle class="st3" cx="368.4" cy="92.5" r="2.3"/>
			<circle class="st3" cx="368.4" cy="106.2" r="2.3"/>
			<circle class="st3" cx="368.4" cy="119.9" r="2.3"/>
			<circle class="st3" cx="382.1" cy="51.4" r="2.3"/>
			<circle class="st3" cx="382.1" cy="65.1" r="2.3"/>
			<circle class="st3" cx="382.1" cy="78.8" r="2.3"/>
			<circle class="st3" cx="382.1" cy="92.5" r="2.3"/>
			<circle class="st3" cx="382.1" cy="106.2" r="2.3"/>
			<circle class="st3" cx="382.1" cy="119.9" r="2.3"/>
		</g>
		<g>
			<line class="st20" x1="197.9" y1="263.4" x2="197.9" y2="268.9"/>
			<line class="st20" x1="197.9" y1="277.1" x2="197.9" y2="282.6"/>
			<line class="st20" x1="207.5" y1="273" x2="202" y2="273"/>
			<line class="st20" x1="193.8" y1="273" x2="188.3" y2="273"/>
		</g>
		<g>
			<line class="st20" x1="367.3" y1="177.3" x2="367.3" y2="182.8"/>
			<line class="st20" x1="367.3" y1="190.9" x2="367.3" y2="196.5"/>
			<line class="st20" x1="376.9" y1="186.9" x2="371.4" y2="186.9"/>
			<line class="st20" x1="363.2" y1="186.9" x2="357.7" y2="186.9"/>
		</g>
	</g>
</g>
<g id="Capa_3" class="st0">
</g>
<g id="Capa_2" class="st0">
</g>
</svg>
