<?xml version="1.0" encoding="utf-8"?>
<!-- Generator: Adobe Illustrator 21.1.0, SVG Export Plug-In . SVG Version: 6.00 Build 0)  -->
<svg version="1.1" id="Capa_1" xmlns="http://www.w3.org/2000/svg" xmlns:xlink="http://www.w3.org/1999/xlink" x="0px" y="0px"
	 width="500px" height="350px" viewBox="0 0 500 350" style="enable-background:new 0 0 500 350;" xml:space="preserve">
<style type="text/css">
	.st0{display:none;}
	.st1{fill:#FFFFFF;stroke:#575757;stroke-width:3.2;stroke-linecap:round;stroke-linejoin:round;stroke-miterlimit:10;}
	.st2{fill:none;stroke:#575757;stroke-width:3.2;stroke-linecap:round;stroke-linejoin:round;stroke-miterlimit:10;}
	.st3{fill:#3FA8DF;}
	.st4{fill:none;stroke:#419DCF;stroke-width:3.2;stroke-linecap:round;stroke-linejoin:round;stroke-miterlimit:10;}
</style>
<g id="Capa_1_1_" class="st0">
</g>
<g id="Capa_3" class="st0">
</g>
<line class="st1" x1="50.4" y1="300.8" x2="449.6" y2="300.8"/>
<circle class="st2" cx="137.7" cy="258.9" r="41.9"/>
<circle class="st2" cx="137.7" cy="258.9" r="18.8"/>
<circle class="st2" cx="137.7" cy="258.1" r="9.9"/>
<circle class="st2" cx="362.6" cy="258.9" r="41.9"/>
<circle class="st2" cx="362.6" cy="258.9" r="18.8"/>
<circle class="st2" cx="362.6" cy="258.9" r="9.9"/>
<path class="st1" d="M221.6,220c0-15.5,5.7-29.8,15-40.7h-85.2c-45.3,0-82,36.7-82,82v0h167.8C227.5,250.2,221.6,235.8,221.6,220z"
	/>
<path class="st2" d="M219.9,179.3h-69.6c-7.5,0-13.6-6.1-13.6-13.6v0c0-7.5,6.1-13.6,13.6-13.6h69.6c7.5,0,13.6,6.1,13.6,13.6v0
	C233.4,173.2,227.4,179.3,219.9,179.3z"/>
<line class="st2" x1="161.5" y1="179.3" x2="161.5" y2="152.1"/>
<line class="st2" x1="173.7" y1="179.3" x2="173.7" y2="152.1"/>
<path class="st1" d="M306.6,254.2h115.1c-3.8-29.3-28.8-51.9-59.1-51.9c-4,0-7.8,0.4-11.6,1.1C344.4,226.1,328,244.6,306.6,254.2z"
	/>
<path class="st3" d="M362.6,211.4c-1.5,0-3.1,0.1-4.6,0.2c-4.7,12.6-12.1,24-21.7,33.4h73.9C403.1,225.1,384,211.4,362.6,211.4z"/>
<path class="st2" d="M80.5,220.2c6.6-11.4,15.9-21,26.9-28.1c-3.5-3.5-8.4-5.7-13.8-5.7c-10.8,0-19.5,8.7-19.5,19.5
	C74.1,211.5,76.6,216.6,80.5,220.2z"/>
<path class="st2" d="M344.3,136.8c-0.9,0-1.8,0.1-2.7,0.1c8,12.6,12.7,27.5,12.7,43.5c0,1.3,0,2.6-0.1,3.8
	c8.7-3.8,14.8-12.5,14.8-22.7C369.1,147.9,358,136.8,344.3,136.8z"/>
<path class="st1" d="M291.6,101.6v13c0,5.8,3.3,11,8.4,13.6c18.9,9.6,31.9,29.2,32.1,51.8c0.2,32.4-27.1,58.9-59.5,58.9h-48
	l12.6,22.3h35.3c44.6,0,81.7-35.7,82-80.3C354.6,142.3,327.7,109.9,291.6,101.6z"/>
<path class="st1" d="M319.1,119.9h21.7V80.7h-21.7c-10.8,0-19.6,8.8-19.6,19.6v0C299.5,111.1,308.3,119.9,319.1,119.9z"/>
<path class="st3" d="M319.5,112.2h6.6V88.5h-6.6c-6.5,0-11.8,5.3-11.8,11.8v0C307.7,106.9,313,112.2,319.5,112.2z"/>
<line class="st2" x1="332.7" y1="119.9" x2="332.7" y2="80.7"/>
<circle class="st1" cx="292.4" cy="100.3" r="13"/>
<circle class="st1" cx="292.4" cy="100.3" r="5.3"/>
<g>
	<path class="st1" d="M287.3,106.7h-28.9c-3.5,0-6.4-2.9-6.4-6.4v0c0-3.5,2.9-6.4,6.4-6.4h28.9V106.7z"/>
	<line class="st1" x1="278.1" y1="93.9" x2="278.1" y2="106.7"/>
</g>
<line class="st2" x1="292.4" y1="100" x2="292.4" y2="74.1"/>
<path class="st2" d="M292.4,72.8L292.4,72.8c-2.9,0-5.3-2.4-5.3-5.3V51c0-2.9,2.4-5.3,5.3-5.3l0,0c2.9,0,5.3,2.4,5.3,5.3v16.5
	C297.7,70.4,295.4,72.8,292.4,72.8z"/>
<path class="st3" d="M79.5,251.8h140.1c-4.8-9.8-7.4-20.7-7.4-31.9c0-10.9,2.5-21.6,7.1-31.3h-67.9
	C114.6,188.7,84.1,216.3,79.5,251.8z"/>
<path class="st2" d="M90.7,261.3c0-33.9,27.5-61.4,61.4-61.4l16.5,0c16.9,0,30.7,13.7,30.7,30.7s-13.7,30.7-30.7,30.7"/>
<line class="st2" x1="177.4" y1="218.8" x2="145.5" y2="218.8"/>
<line class="st2" x1="177.4" y1="229.9" x2="145.5" y2="229.9"/>
<line class="st2" x1="177.4" y1="241" x2="145.5" y2="241"/>
<g>
	<circle class="st3" cx="104.2" cy="91.6" r="2.3"/>
	<circle class="st3" cx="104.2" cy="105.3" r="2.3"/>
	<circle class="st3" cx="104.2" cy="119" r="2.3"/>
	<circle class="st3" cx="104.2" cy="132.7" r="2.3"/>
	<circle class="st3" cx="104.2" cy="146.4" r="2.3"/>
	<circle class="st3" cx="104.2" cy="160.1" r="2.3"/>
	<circle class="st3" cx="117.9" cy="91.6" r="2.3"/>
	<circle class="st3" cx="117.9" cy="105.3" r="2.3"/>
	<circle class="st3" cx="117.9" cy="119" r="2.3"/>
	<circle class="st3" cx="117.9" cy="132.7" r="2.3"/>
	<circle class="st3" cx="117.9" cy="146.4" r="2.3"/>
	<circle class="st3" cx="117.9" cy="160.1" r="2.3"/>
	<circle class="st3" cx="131.6" cy="91.6" r="2.3"/>
	<circle class="st3" cx="131.6" cy="105.3" r="2.3"/>
	<circle class="st3" cx="131.6" cy="119" r="2.3"/>
	<circle class="st3" cx="131.6" cy="132.7" r="2.3"/>
	<circle class="st3" cx="131.6" cy="146.4" r="2.3"/>
	<circle class="st3" cx="131.6" cy="160.1" r="2.3"/>
	<circle class="st3" cx="145.3" cy="91.6" r="2.3"/>
	<circle class="st3" cx="145.3" cy="105.3" r="2.3"/>
	<circle class="st3" cx="145.3" cy="119" r="2.3"/>
	<circle class="st3" cx="145.3" cy="132.7" r="2.3"/>
	<circle class="st3" cx="145.3" cy="146.4" r="2.3"/>
	<circle class="st3" cx="145.3" cy="160.1" r="2.3"/>
	<circle class="st3" cx="158.9" cy="91.6" r="2.3"/>
	<circle class="st3" cx="158.9" cy="105.3" r="2.3"/>
	<circle class="st3" cx="158.9" cy="119" r="2.3"/>
	<circle class="st3" cx="158.9" cy="132.7" r="2.3"/>
	<circle class="st3" cx="158.9" cy="146.4" r="2.3"/>
	<circle class="st3" cx="158.9" cy="160.1" r="2.3"/>
	<circle class="st3" cx="172.6" cy="91.6" r="2.3"/>
	<circle class="st3" cx="172.6" cy="105.3" r="2.3"/>
	<circle class="st3" cx="172.6" cy="119" r="2.3"/>
	<circle class="st3" cx="172.6" cy="132.7" r="2.3"/>
	<circle class="st3" cx="172.6" cy="146.4" r="2.3"/>
	<circle class="st3" cx="172.6" cy="160.1" r="2.3"/>
	<circle class="st3" cx="186.3" cy="91.6" r="2.3"/>
	<circle class="st3" cx="186.3" cy="105.3" r="2.3"/>
	<circle class="st3" cx="186.3" cy="119" r="2.3"/>
	<circle class="st3" cx="186.3" cy="132.7" r="2.3"/>
	<circle class="st3" cx="186.3" cy="146.4" r="2.3"/>
	<circle class="st3" cx="186.3" cy="160.1" r="2.3"/>
	<circle class="st3" cx="200" cy="91.6" r="2.3"/>
	<circle class="st3" cx="200" cy="105.3" r="2.3"/>
	<circle class="st3" cx="200" cy="119" r="2.3"/>
	<circle class="st3" cx="200" cy="132.7" r="2.3"/>
	<circle class="st3" cx="200" cy="146.4" r="2.3"/>
	<circle class="st3" cx="200" cy="160.1" r="2.3"/>
</g>
<g>
	<line class="st4" x1="415.8" y1="89.4" x2="415.8" y2="94.9"/>
	<line class="st4" x1="415.8" y1="103" x2="415.8" y2="108.5"/>
	<line class="st4" x1="425.4" y1="99" x2="419.9" y2="99"/>
	<line class="st4" x1="411.7" y1="99" x2="406.2" y2="99"/>
</g>
<g>
	<line class="st4" x1="70" y1="49.2" x2="70" y2="54.7"/>
	<line class="st4" x1="70" y1="62.8" x2="70" y2="68.3"/>
	<line class="st4" x1="79.6" y1="58.7" x2="74.1" y2="58.7"/>
	<line class="st4" x1="65.9" y1="58.7" x2="60.4" y2="58.7"/>
</g>
<path class="st3" d="M331.2,134.3c-1.4-1.7-2.8-3.3-4.3-4.9c-2.5-2.6-5.9-4-9.5-4h0c-2.6,0-3.7,3.2-1.7,4.8
	c14.6,12.2,23.3,30.2,23.4,49.8c0.1,17.2-6.7,33.6-19.1,46.1c-12.5,12.6-29.8,19.9-47.4,19.9h-36l4.7,8.3h31.2
	c41.1,0,74.7-32.9,75-73.3C347.5,164,341.7,147.4,331.2,134.3z"/>
</svg>
