<?xml version="1.0" encoding="utf-8"?>
<!-- Generator: Adobe Illustrator 21.1.0, SVG Export Plug-In . SVG Version: 6.00 Build 0)  -->
<svg version="1.1" xmlns="http://www.w3.org/2000/svg" xmlns:xlink="http://www.w3.org/1999/xlink" x="0px" y="0px"
	 viewBox="0 0 500 350" style="enable-background:new 0 0 500 350;" xml:space="preserve">
<style type="text/css">
	.st0{display:none;}
	.st1{display:inline;}
	.st2{fill:#FFFFFF;stroke:#575757;stroke-width:0.8;stroke-linecap:round;stroke-linejoin:round;stroke-miterlimit:10;}
	.st3{fill:#3FA8DF;}
	.st4{fill:none;stroke:#575757;stroke-width:0.8;stroke-linecap:round;stroke-linejoin:round;stroke-miterlimit:10;}
	
		.st5{display:inline;fill:#FFFFFF;stroke:#575757;stroke-width:0.8;stroke-linecap:round;stroke-linejoin:round;stroke-miterlimit:10;}
	.st6{display:inline;fill:#3FA8DF;}
	.st7{display:inline;fill:none;stroke:#575757;stroke-width:0.8;stroke-linecap:round;stroke-linejoin:round;stroke-miterlimit:10;}
	.st8{fill:none;stroke:#419DCF;stroke-width:0.8;stroke-linecap:round;stroke-linejoin:round;stroke-miterlimit:10;}
	.st9{fill:#575756;}
	.st10{display:inline;fill:#FFFFFF;}
	
		.st11{display:inline;fill:none;stroke:#419DCF;stroke-width:0.8;stroke-linecap:round;stroke-linejoin:round;stroke-miterlimit:10;}
	.st12{display:inline;fill:#0082C7;}
	.st13{display:inline;fill:#005EA9;}
	.st14{display:inline;fill:#00468D;}
	.st15{display:inline;fill:#43474B;}
	.st16{display:inline;fill:#3C4044;}
	.st17{fill:#FFFFFF;}
	.st18{fill:#FFFFFF;stroke:#575757;stroke-width:3.2;stroke-linecap:round;stroke-linejoin:round;stroke-miterlimit:10;}
	.st19{fill:none;stroke:#575757;stroke-width:3.2;stroke-linecap:round;stroke-linejoin:round;stroke-miterlimit:10;}
	.st20{fill:none;stroke:#419DCF;stroke-width:3.2;stroke-linecap:round;stroke-linejoin:round;stroke-miterlimit:10;}
	.st21{display:inline;fill:none;stroke:#FF7BEB;stroke-width:0.5627;stroke-miterlimit:10;}
</style>
<g id="Capa_1" class="st0">
</g>
<g id="Capa_4">
	<g>
		<line class="st18" x1="50.4" y1="300.8" x2="449.6" y2="300.8"/>
		<g>
			<path class="st19" d="M346,161.7l-7.1-7.2c-2.6-2.6-6.1-4.1-9.8-4.1h-89.6c-5.6,0-10.8,3-13.6,7.8l-19,32.8
				c-1.7,2.9-2.6,6.2-2.6,9.5l0,29.4c0,2.1-1.3,4-3.2,4.7l-0.6,0.2c-2.4,0.9-3.9,3.2-3.9,5.7v5.5c0,5.6,4.6,10.2,10.2,10.2h229.7
				c3.9,0,7-3.1,7-7v-12.4c0-4.3-3.5-7.8-7.8-7.8h0l0-16.1c0-9.5-7.7-17.2-17.2-17.2H249.2l15.7-28.5c1.8-3.3,5.4-5.4,9.2-5.4h25.8
				c2.8,0,5.1,2.3,5.1,5.1v27.9"/>
			<path class="st19" d="M206.2,195.5h18.4c3.8,0,7.3-2.1,9.2-5.4l15.7-28.5h-25.2"/>
			<line class="st19" x1="345.5" y1="161.2" x2="379.2" y2="195.4"/>
			<line class="st19" x1="205" y1="216.7" x2="304.2" y2="216.7"/>
			<line class="st19" x1="317.9" y1="216.7" x2="417.2" y2="216.7"/>
			<path class="st19" d="M367,195.4l-28.7-29.2c-2.6-2.7-6.2-4.2-9.9-4.2l-11.9,0c-2.8,0-5.1,2.3-5.1,5.1v88.2"/>
			<g>
				<path class="st18" d="M347,256.1h74.4c-5.4-15.3-20-26.3-37.2-26.3C367,229.8,352.4,240.8,347,256.1z"/>
				<g>
					<circle class="st18" cx="384.2" cy="268.7" r="29.2"/>
					<circle class="st19" cx="384.2" cy="268.7" r="13.9"/>
					<circle class="st19" cx="384.2" cy="268.7" r="7.3"/>
					<circle class="st3" cx="384.2" cy="268.7" r="3.2"/>
				</g>
				<line class="st19" x1="384.2" y1="239.5" x2="384.2" y2="244.2"/>
				<line class="st19" x1="384.2" y1="293.3" x2="384.2" y2="298"/>
				<line class="st19" x1="413.4" y1="268.7" x2="408.7" y2="268.7"/>
				<line class="st19" x1="359.6" y1="268.7" x2="354.9" y2="268.7"/>
				<line class="st19" x1="363.5" y1="248.1" x2="366.8" y2="251.4"/>
				<line class="st19" x1="401.5" y1="286.1" x2="404.8" y2="289.4"/>
				<line class="st19" x1="404.8" y1="248.1" x2="401.5" y2="251.4"/>
				<line class="st19" x1="366.8" y1="286.1" x2="363.5" y2="289.4"/>
			</g>
			<path class="st19" d="M200.1,231.6h-6.9c-2.3,0-4.2-1.9-4.2-4.2v-34.7c0-2.3,1.9-4.2,4.2-4.2h6.9c2.3,0,4.2,1.9,4.2,4.2v34.7
				C204.2,229.7,202.4,231.6,200.1,231.6z"/>
			<line class="st18" x1="201.1" y1="234.5" x2="232.1" y2="234.5"/>
			<polyline class="st19" points="432.5,203.6 392.4,203.6 385.5,195.7 			"/>
			<path class="st18" d="M438.4,209.8h-6.3c-3.6,0-7,2.5-7.5,6c-0.7,4.5,2.7,8.5,7.2,8.5h6.7c1.7,0,3-1.4,3-3v-8.5
				C441.4,211.1,440.1,209.8,438.4,209.8z"/>
			<line class="st19" x1="441.4" y1="217" x2="425.4" y2="217"/>
			<line class="st19" x1="237.5" y1="143.9" x2="327.3" y2="143.9"/>
			<line class="st19" x1="435.7" y1="228.9" x2="417.6" y2="228.9"/>
			<path class="st19" d="M280.5,143.9H242v-19c0-3.5,2.8-6.4,6.4-6.4h25.7c3.5,0,6.4,2.8,6.4,6.4V143.9z"/>
			<line class="st19" x1="280.5" y1="131.8" x2="242" y2="131.8"/>
			<rect x="250.1" y="139.9" class="st18" width="6.6" height="14.9"/>
			<rect x="311.8" y="139.9" class="st18" width="6.6" height="14.9"/>
			<rect x="280.5" y="127.2" class="st19" width="25.9" height="16.7"/>
			<rect x="287.6" y="120.5" class="st19" width="11.6" height="6.7"/>
			<line class="st19" x1="253.4" y1="118.8" x2="253.4" y2="139.3"/>
			<line class="st19" x1="268.6" y1="118.8" x2="268.6" y2="142.1"/>
			<g>
				<path class="st18" d="M214.2,256.1h74.4c-5.4-15.3-20-26.3-37.2-26.3C234.2,229.8,219.6,240.8,214.2,256.1z"/>
				<g>
					<circle class="st18" cx="251.4" cy="268.7" r="29.2"/>
					<circle class="st19" cx="251.4" cy="268.7" r="13.9"/>
					<circle class="st19" cx="251.4" cy="268.7" r="7.3"/>
					<circle class="st3" cx="251.4" cy="268.7" r="3.2"/>
				</g>
				<line class="st19" x1="251.4" y1="239.5" x2="251.4" y2="244.2"/>
				<line class="st19" x1="251.4" y1="293.3" x2="251.4" y2="298"/>
				<line class="st19" x1="280.6" y1="268.7" x2="275.9" y2="268.7"/>
				<line class="st19" x1="226.9" y1="268.7" x2="222.1" y2="268.7"/>
				<line class="st19" x1="230.7" y1="248.1" x2="234.1" y2="251.4"/>
				<line class="st19" x1="268.7" y1="286.1" x2="272.1" y2="289.4"/>
				<line class="st19" x1="272.1" y1="248.1" x2="268.7" y2="251.4"/>
				<line class="st19" x1="234.1" y1="286.1" x2="230.7" y2="289.4"/>
			</g>
		</g>
		<g>
			<path class="st18" d="M105.9,181.3c1.1,1.3,1,3.1,0,4.4l-19.5,22c-2,2.3-3.1,5.3-3.1,8.4V227l-3.2,1.5c-4.6,2.1-7.6,6.7-7.6,11.8
				v24.1c0,5.5,4.5,10,10,10h262.8c6.5,0,11.7-5.2,11.7-11.7v-9.9c0-2.8-1.2-5.4-3.2-7.3l-0.4-0.3c0-10.5-7.5-19.6-17.9-21.5
				l-33.7-6.4c-10.7-2-20.8-6.2-29.7-12.3l-24-16.4c-12.1-8.2-26.3-12.7-40.9-12.7H104c-1.1,0-1.7,1.3-1,2.2L105.9,181.3z"/>
			<path class="st3" d="M114.6,183.8c-0.1,2.6-1,5.1-2.8,7.2l-19.5,22c-0.7,0.8-1.1,1.9-1.1,3.1V227c0,3.1-1.8,6-4.7,7.3l-3.2,1.5
				c-1.8,0.8-2.9,2.6-2.9,4.6v24.1c0,1.1,0.9,2,2,2h262.8c2,0,3.7-1.7,3.7-3.7v-9.9c0-0.6-0.2-1.1-0.6-1.5l-0.3-0.3
				c-1.6-1.5-2.6-3.6-2.6-5.9c0-6.7-4.8-12.4-11.3-13.7l-33.7-6.4c-11.8-2.2-22.8-6.8-32.8-13.6l-24-16.4
				c-10.8-7.4-23.4-11.3-36.4-11.3H114.6z"/>
			<path class="st9" d="M99.7,186.5C99.8,186.5,99.8,186.5,99.7,186.5L99.7,186.5z"/>
			<path class="st9" d="M109.1,172.8L109.1,172.8C109.1,172.8,109.1,172.8,109.1,172.8z"/>
			<path class="st18" d="M90.8,274.7c0-16.5,13.4-29.9,29.9-29.9s29.9,13.4,29.9,29.9H90.8z"/>
			<g>
				<circle class="st18" cx="120.7" cy="274.3" r="23.7"/>
				<circle class="st19" cx="120.7" cy="274.3" r="13.6"/>
				<circle class="st19" cx="120.7" cy="274.3" r="4.6"/>
			</g>
			<path class="st18" d="M262.9,274.7c0-16.5,13.4-29.9,29.9-29.9s29.9,13.4,29.9,29.9H262.9z"/>
			<g>
				<circle class="st18" cx="292.8" cy="274.3" r="23.7"/>
				<circle class="st19" cx="292.8" cy="274.3" r="13.6"/>
				<circle class="st19" cx="292.8" cy="274.3" r="4.6"/>
			</g>
			<path class="st18" d="M187.1,215.8l-8.2-29.8c-0.7-2.4-2.8-4-5.2-4h-29.5c-3.6,0-6.9,1.7-9,4.6l-4.9,6.9
				c-2.4,3.4-2.3,8.1,0.4,11.4l0,0c5.7,7,14.3,11,23.3,11H253c4,0,8-1.4,11-4.1l2.7-2.6l-21.3-14.5c-12.1-8.2-26.3-12.7-40.9-12.7
				h-13.6c-2.6,0-4.4,2.4-3.8,4.9l7.6,28.7"/>
			<line class="st19" x1="186.9" y1="215.8" x2="186.9" y2="274.4"/>
			<polyline class="st18" points="83.2,227 106.9,221.4 106.9,207.9 86.3,207.9 			"/>
			<path class="st18" d="M353.4,243.3h-6.7c-6.8,0-12.6-4.8-13.8-11.5l-1.6-8.6"/>
			<line class="st19" x1="196.6" y1="231.4" x2="207.5" y2="231.4"/>
			<line class="st19" x1="260.9" y1="231.4" x2="294.5" y2="231.4"/>
			<path class="st19" d="M108.1,183.2h2.4c3.1,0,4.9,3.6,2.9,6.1L99,207.6"/>
			<line class="st19" x1="95.9" y1="215.2" x2="83.7" y2="215.2"/>
			<line class="st19" x1="96.8" y1="208.1" x2="96.8" y2="223.7"/>
			<circle class="st18" cx="123.7" cy="229.6" r="6.6"/>
			<line class="st19" x1="262.1" y1="257.2" x2="196.6" y2="257.2"/>
			<line class="st19" x1="177.4" y1="257.2" x2="155.6" y2="257.2"/>
			<line class="st19" x1="87.7" y1="257.2" x2="72.4" y2="257.2"/>
			<line class="st19" x1="356.4" y1="257.2" x2="324.4" y2="257.2"/>
			<line class="st19" x1="133.5" y1="175.5" x2="114.3" y2="166.4"/>
			<line class="st19" x1="351.3" y1="236.1" x2="335.4" y2="236.1"/>
		</g>
		<g>
			<line class="st20" x1="321.7" y1="68.3" x2="321.7" y2="73.8"/>
			<line class="st20" x1="321.7" y1="82" x2="321.7" y2="87.5"/>
			<line class="st20" x1="331.3" y1="77.9" x2="325.8" y2="77.9"/>
			<line class="st20" x1="317.7" y1="77.9" x2="312.2" y2="77.9"/>
		</g>
		<g>
			<line class="st20" x1="402.2" y1="140.3" x2="402.2" y2="145.8"/>
			<line class="st20" x1="402.2" y1="153.9" x2="402.2" y2="159.4"/>
			<line class="st20" x1="411.8" y1="149.8" x2="406.3" y2="149.8"/>
			<line class="st20" x1="398.1" y1="149.8" x2="392.6" y2="149.8"/>
		</g>
		<path class="st3" d="M318.3,189.7v-18.1c0-1.5,1.3-2.8,2.8-2.8h6.6c1.9,0,3.7,0.7,5.1,2.1l19.2,18.8H318.3z"/>
		<path class="st3" d="M297.5,189.7v-18.1c0-1.5-1.3-2.8-2.8-2.8h-20.5c-1.4,0-2.8,0.8-3.5,2.1l-10.1,18.8H297.5z"/>
		<rect x="285.8" y="132.9" class="st3" width="14.2" height="5.9"/>
		<path class="st19" d="M164.5,82.8L196.3,51c2.1-2.1,5.4-2.1,7.4,0l31.8,31.8c2.1,2.1,2.1,5.4,0,7.4L203.8,122
			c-2.1,2.1-5.4,2.1-7.4,0l-31.8-31.8C162.5,88.1,162.5,84.8,164.5,82.8z"/>
		<path class="st3" d="M178.5,83.9L197.5,65c1.4-1.4,3.7-1.4,5.2,0l18.9,18.9c1.4,1.4,1.4,3.7,0,5.2L202.6,108
			c-1.4,1.4-3.7,1.4-5.2,0L178.5,89C177.1,87.6,177.1,85.3,178.5,83.9z"/>
		<line class="st19" x1="200" y1="123.7" x2="200" y2="174.8"/>
		<line class="st19" x1="200" y1="274.6" x2="200" y2="300.8"/>
		<g>
			<circle class="st3" cx="52.7" cy="108.8" r="2.3"/>
			<circle class="st3" cx="52.7" cy="122.5" r="2.3"/>
			<circle class="st3" cx="52.7" cy="136.2" r="2.3"/>
			<circle class="st3" cx="52.7" cy="149.9" r="2.3"/>
			<circle class="st3" cx="52.7" cy="163.6" r="2.3"/>
			<circle class="st3" cx="52.7" cy="177.3" r="2.3"/>
			<circle class="st3" cx="66.4" cy="108.8" r="2.3"/>
			<circle class="st3" cx="66.4" cy="122.5" r="2.3"/>
			<circle class="st3" cx="66.4" cy="136.2" r="2.3"/>
			<circle class="st3" cx="66.4" cy="149.9" r="2.3"/>
			<circle class="st3" cx="66.4" cy="163.6" r="2.3"/>
			<circle class="st3" cx="66.4" cy="177.3" r="2.3"/>
			<circle class="st3" cx="80.1" cy="108.8" r="2.3"/>
			<circle class="st3" cx="80.1" cy="122.5" r="2.3"/>
			<circle class="st3" cx="80.1" cy="136.2" r="2.3"/>
			<circle class="st3" cx="80.1" cy="149.9" r="2.3"/>
			<circle class="st3" cx="80.1" cy="163.6" r="2.3"/>
			<circle class="st3" cx="80.1" cy="177.3" r="2.3"/>
			<circle class="st3" cx="93.8" cy="108.8" r="2.3"/>
			<circle class="st3" cx="93.8" cy="122.5" r="2.3"/>
			<circle class="st3" cx="93.8" cy="136.2" r="2.3"/>
			<circle class="st3" cx="93.8" cy="149.9" r="2.3"/>
			<circle class="st3" cx="93.8" cy="163.6" r="2.3"/>
			<circle class="st3" cx="93.8" cy="177.3" r="2.3"/>
			<circle class="st3" cx="107.4" cy="108.8" r="2.3"/>
			<circle class="st3" cx="107.4" cy="122.5" r="2.3"/>
			<circle class="st3" cx="107.4" cy="136.2" r="2.3"/>
			<circle class="st3" cx="107.4" cy="149.9" r="2.3"/>
			<circle class="st3" cx="107.4" cy="163.6" r="2.3"/>
			<circle class="st3" cx="107.4" cy="177.3" r="2.3"/>
			<circle class="st3" cx="121.1" cy="108.8" r="2.3"/>
			<circle class="st3" cx="121.1" cy="122.5" r="2.3"/>
			<circle class="st3" cx="121.1" cy="136.2" r="2.3"/>
			<circle class="st3" cx="121.1" cy="149.9" r="2.3"/>
			<circle class="st3" cx="121.1" cy="163.6" r="2.3"/>
			<circle class="st3" cx="121.1" cy="177.3" r="2.3"/>
			<circle class="st3" cx="134.7" cy="108.8" r="2.3"/>
			<circle class="st3" cx="134.7" cy="122.5" r="2.3"/>
			<circle class="st3" cx="134.7" cy="136.2" r="2.3"/>
			<circle class="st3" cx="134.7" cy="149.9" r="2.3"/>
			<circle class="st3" cx="134.7" cy="163.6" r="2.3"/>
			<circle class="st3" cx="134.7" cy="177.3" r="2.3"/>
			<circle class="st3" cx="148.4" cy="108.8" r="2.3"/>
			<circle class="st3" cx="148.4" cy="122.5" r="2.3"/>
			<circle class="st3" cx="148.4" cy="136.2" r="2.3"/>
			<circle class="st3" cx="148.4" cy="149.9" r="2.3"/>
			<circle class="st3" cx="148.4" cy="163.6" r="2.3"/>
			<circle class="st3" cx="148.4" cy="177.3" r="2.3"/>
		</g>
	</g>
</g>
<g id="Capa_3" class="st0">
</g>
<g id="Capa_2" class="st0">
</g>
</svg>
