<?xml version="1.0" encoding="utf-8"?>
<!-- Generator: Adobe Illustrator 21.1.0, SVG Export Plug-In . SVG Version: 6.00 Build 0)  -->
<svg version="1.1" id="Capa_1" xmlns="http://www.w3.org/2000/svg" xmlns:xlink="http://www.w3.org/1999/xlink" x="0px" y="0px"
	 viewBox="0 0 50 20" style="enable-background:new 0 0 50 20;" xml:space="preserve">
<style type="text/css">
	.st0{fill:none;stroke:#FFFFFF;stroke-width:0.5;stroke-linecap:round;stroke-linejoin:round;stroke-miterlimit:10;}
</style>
<g>
	<g>
		<g>
			<path class="st0" d="M9.9013186,3.4835508C9.2064657,4.7439375,8.6771736,6.1080966,8.3408041,7.5464706
				c3.8305874,1.1301594,7.063674,3.6522532,9.1100454,6.9846401c0.0078716-0.0631084,0.0127239-0.1269436,0.0127239-0.1915207
				V8.0577087c0-0.5521827-0.2945843-1.062397-0.7727814-1.3384967l-5.4402828-3.1409326
				C10.8358984,3.3388999,10.3381109,3.3078408,9.9013186,3.4835508z"/>
			<g>
				<path class="st0" d="M8.3407879,14.8515215c-0.2743502-1.1731997-0.4207177-2.3955965-0.4207177-3.6525002
					c0-2.7979126,0.7196412-5.4270463,1.9812484-7.715487C9.8343153,3.5104842,9.7685499,3.5415599,9.7049627,3.5782795
					L4.2646813,6.7192121C3.786483,6.9953117,3.4919,7.5055261,3.4919,8.0577087v6.2818813
					c0,0.4524202,0.2001185,0.8743753,0.5345898,1.1647511C5.5235167,15.483695,6.9700599,15.2559338,8.3407879,14.8515215z"/>
				<path class="st0" d="M4.2646813,15.6780872c-0.0863943-0.0498734-0.164422-0.1096973-0.2381582-0.1737137
					C4.100276,15.5683899,4.1783032,15.6282139,4.2646813,15.6780872z"/>
			</g>
			<path class="st0" d="M14.7250557,11.1992188c-2.8093662,2.6239681-6.5639229,4.2481194-10.6985817,4.3051224
				c0.0737529,0.0640326,0.1517968,0.1238565,0.2382078,0.1737461l5.4402814,3.1409492
				c0.478199,0.276083,1.0673485,0.276083,1.5455465,0l5.4402828-3.1409492
				c0.4781971-0.276083,0.7727814-0.786314,0.7727814-1.3384972c0,0.0645771-0.0048523,0.1284122-0.0127239,0.1915207
				C16.694685,13.299737,15.7755699,12.1799583,14.7250557,11.1992188z"/>
		</g>
	</g>
	<g>
		<path class="st0" d="M22.9101601,7.6975317h2.6010094c2.2511444,0,3.8014755,1.5508718,3.8014755,3.501359
			s-1.5503311,3.501358-3.8014755,3.501358h-2.6010094V7.6975317z M25.5111694,12.999589
			c1.0906944,0,1.8509884-0.7602949,1.8509884-1.8006983s-0.760294-1.8006992-1.8509884-1.8006992h-0.7002716v3.6013975H25.5111694z
			"/>
		<path class="st0" d="M30.509325,7.6975317h1.7006588l2.1505661,2.7010479l2.151104-2.7010479h1.7006607v7.002717h-1.9007378
			v-4.1518812l-1.9510269,2.4512215l-1.950489-2.4512215v4.1518812H30.509325V7.6975317z"/>
		<path class="st0" d="M39.808609,7.6975317h3.1012039c1.6006203,0,2.4506798,0.8500595,2.4506798,1.8504477
			c0,0.5904999-0.2595596,0.9306316-0.5299339,1.16045c-0.1503296,0.1303215-0.3298607,0.2206268-0.5202026,0.2903833
			c0.2601013,0.0903053,0.4899178,0.2103519,0.7002716,0.3704138c0.349865,0.2698345,0.7002716,0.6997309,0.7002716,1.3799953
			c0,1.0506773-0.9003487,1.9510269-2.5512619,1.9510269H39.808609V7.6975317z M42.7594833,10.3985796
			c0.4104309,0,0.6505241-0.2503672,0.6505241-0.6002331c0-0.349865-0.25037-0.6002321-0.6505241-0.6002321h-1.0501366v1.2004652
			H42.7594833z M43.0098495,13.199667c0.4504471,0,0.7500229-0.3001165,0.7500229-0.7002726
			c0-0.4001551-0.2995758-0.7002716-0.7500229-0.7002716h-1.3005028v1.4005442H43.0098495z"/>
	</g>
</g>
</svg>
