<?xml version="1.0" encoding="utf-8"?>
<!-- Generator: Adobe Illustrator 21.1.0, SVG Export Plug-In . SVG Version: 6.00 Build 0)  -->
<svg version="1.1" xmlns="http://www.w3.org/2000/svg" xmlns:xlink="http://www.w3.org/1999/xlink" x="0px" y="0px"
	 viewBox="0 0 500 350" style="enable-background:new 0 0 500 350;" xml:space="preserve">
<style type="text/css">
	.st0{display:none;}
	.st1{display:inline;}
	.st2{fill:#FFFFFF;stroke:#575757;stroke-width:0.8;stroke-linecap:round;stroke-linejoin:round;stroke-miterlimit:10;}
	.st3{fill:#3FA8DF;}
	.st4{fill:none;stroke:#575757;stroke-width:0.8;stroke-linecap:round;stroke-linejoin:round;stroke-miterlimit:10;}
	
		.st5{display:inline;fill:#FFFFFF;stroke:#575757;stroke-width:0.8;stroke-linecap:round;stroke-linejoin:round;stroke-miterlimit:10;}
	.st6{display:inline;fill:#3FA8DF;}
	.st7{display:inline;fill:none;stroke:#575757;stroke-width:0.8;stroke-linecap:round;stroke-linejoin:round;stroke-miterlimit:10;}
	.st8{fill:none;stroke:#419DCF;stroke-width:0.8;stroke-linecap:round;stroke-linejoin:round;stroke-miterlimit:10;}
	.st9{fill:#575756;}
	.st10{display:inline;fill:#FFFFFF;}
	
		.st11{display:inline;fill:none;stroke:#419DCF;stroke-width:0.8;stroke-linecap:round;stroke-linejoin:round;stroke-miterlimit:10;}
	.st12{display:inline;fill:#0082C7;}
	.st13{display:inline;fill:#005EA9;}
	.st14{display:inline;fill:#00468D;}
	.st15{display:inline;fill:#43474B;}
	.st16{display:inline;fill:#3C4044;}
	.st17{fill:#FFFFFF;}
	.st18{fill:#FFFFFF;stroke:#575757;stroke-width:3.2;stroke-linecap:round;stroke-linejoin:round;stroke-miterlimit:10;}
	.st19{fill:none;stroke:#575757;stroke-width:3.2;stroke-linecap:round;stroke-linejoin:round;stroke-miterlimit:10;}
	.st20{fill:none;stroke:#419DCF;stroke-width:3.2;stroke-linecap:round;stroke-linejoin:round;stroke-miterlimit:10;}
	.st21{display:inline;fill:none;stroke:#FF7BEB;stroke-width:0.5627;stroke-miterlimit:10;}
</style>
<g id="Capa_1" class="st0">
</g>
<g id="Capa_4">
	<g>
		<path class="st3" d="M230.5,160.8v138.5h-57.4V164.1c0-1.8,1.5-3.3,3.3-3.3H230.5z"/>
		<line class="st19" x1="162.3" y1="279" x2="231.2" y2="279"/>
		<path class="st19" d="M231.2,119.6v179.7h86.2V119.6c0-3.2-2.6-5.8-5.8-5.8H237C233.8,113.9,231.2,116.5,231.2,119.6z"/>
		<path class="st19" d="M388.4,174.9v124.5h-70.9V166.1h62.1C384.4,166.1,388.4,170,388.4,174.9z"/>
		<path class="st19" d="M370.5,166.1v-7.8c0-3.6-2.9-6.6-6.6-6.6h-46.5v14.4H370.5z"/>
		<line class="st19" x1="358.5" y1="161.3" x2="358.5" y2="156.6"/>
		<line class="st19" x1="346.5" y1="161.3" x2="346.5" y2="156.6"/>
		<line class="st19" x1="334.5" y1="161.3" x2="334.5" y2="156.6"/>
		<line class="st19" x1="322.4" y1="161.3" x2="322.4" y2="156.6"/>
		<line class="st19" x1="376.3" y1="166.1" x2="376.3" y2="299.4"/>
		<line class="st19" x1="364.3" y1="166.1" x2="364.3" y2="299.4"/>
		<line class="st19" x1="352.3" y1="166.1" x2="352.3" y2="299.4"/>
		<line class="st19" x1="340.3" y1="166.1" x2="340.3" y2="299.4"/>
		<line class="st19" x1="328.3" y1="166.1" x2="328.3" y2="299.4"/>
		<line class="st19" x1="317.4" y1="178.1" x2="388.4" y2="178.1"/>
		<line class="st19" x1="317.4" y1="190.1" x2="388.4" y2="190.1"/>
		<line class="st19" x1="317.4" y1="202.1" x2="388.4" y2="202.1"/>
		<line class="st19" x1="317.4" y1="214.1" x2="388.4" y2="214.1"/>
		<line class="st19" x1="317.4" y1="226.1" x2="388.4" y2="226.1"/>
		<path class="st19" d="M231.2,150.9v148.4h-68.9V157.5c0-3.6,2.9-6.6,6.6-6.6H231.2z"/>
		<line class="st19" x1="162.3" y1="166.9" x2="231.2" y2="166.9"/>
		<line class="st19" x1="162.3" y1="183" x2="231.2" y2="183"/>
		<line class="st19" x1="162.3" y1="199" x2="231.2" y2="199"/>
		<line class="st19" x1="162.3" y1="215" x2="231.2" y2="215"/>
		<line class="st19" x1="162.3" y1="231" x2="231.2" y2="231"/>
		<line class="st19" x1="162.3" y1="247" x2="231.2" y2="247"/>
		<line class="st19" x1="162.3" y1="263" x2="231.2" y2="263"/>
		<path class="st19" d="M231.2,150.9v-20.7h-41.7c-4,0-7.2,3.2-7.2,7.2v13.5H231.2z"/>
		<path class="st19" d="M262.5,267.5v31.8h23.7v-31.8c0-2.4-1.9-4.3-4.3-4.3h-15C264.4,263.2,262.5,265.2,262.5,267.5z"/>
		<path class="st3" d="M267.8,270.5v28.8h12.9v-28.8c0-1.1-0.9-2-2-2h-8.9C268.7,268.5,267.8,269.4,267.8,270.5z"/>
		<path class="st19" d="M248.8,76v10h50.9V76c0-3.8-3.1-6.9-6.9-6.9h-37.1C251.9,69.1,248.8,72.2,248.8,76z"/>
		<path class="st3" d="M254.5,76.6v9.3h39.6v-9.3c0-1.1-0.9-1.9-1.9-1.9h-35.8C255.3,74.7,254.5,75.5,254.5,76.6z"/>
		<line class="st19" x1="274.3" y1="68" x2="274.3" y2="48.5"/>
		<g>
			<rect x="252.5" y="92.8" class="st19" width="8.1" height="13.6"/>
			<rect x="270.3" y="92.8" class="st19" width="8.1" height="13.6"/>
			<rect x="288" y="92.8" class="st19" width="8.1" height="13.6"/>
		</g>
		<g>
			<rect x="243.9" y="147.4" class="st19" width="8.1" height="13.6"/>
			<rect x="261.5" y="147.4" class="st19" width="8.1" height="13.6"/>
			<rect x="279.1" y="147.4" class="st19" width="8.1" height="13.6"/>
			<rect x="296.6" y="147.4" class="st19" width="8.1" height="13.6"/>
		</g>
		<g>
			<rect x="243.9" y="124.1" class="st19" width="8.1" height="13.6"/>
			<rect x="261.5" y="124.1" class="st19" width="8.1" height="13.6"/>
			<rect x="279.1" y="124.1" class="st19" width="8.1" height="13.6"/>
			<rect x="296.6" y="124.1" class="st19" width="8.1" height="13.6"/>
		</g>
		<g>
			<rect x="243.9" y="170.7" class="st19" width="8.1" height="13.6"/>
			<rect x="261.5" y="170.7" class="st19" width="8.1" height="13.6"/>
			<rect x="279.1" y="170.7" class="st19" width="8.1" height="13.6"/>
			<rect x="296.6" y="170.7" class="st19" width="8.1" height="13.6"/>
		</g>
		<g>
			<rect x="243.9" y="194.1" class="st19" width="8.1" height="13.6"/>
			<rect x="261.5" y="194.1" class="st19" width="8.1" height="13.6"/>
			<rect x="279.1" y="194.1" class="st19" width="8.1" height="13.6"/>
			<rect x="296.6" y="194.1" class="st19" width="8.1" height="13.6"/>
		</g>
		<g>
			<rect x="243.9" y="217.4" class="st19" width="8.1" height="13.6"/>
			<rect x="261.5" y="217.4" class="st19" width="8.1" height="13.6"/>
			<rect x="279.1" y="217.4" class="st19" width="8.1" height="13.6"/>
			<rect x="296.6" y="217.4" class="st19" width="8.1" height="13.6"/>
		</g>
		<g>
			<rect x="243.9" y="240.7" class="st19" width="8.1" height="13.6"/>
			<rect x="261.5" y="240.7" class="st19" width="8.1" height="13.6"/>
			<rect x="279.1" y="240.7" class="st19" width="8.1" height="13.6"/>
			<rect x="296.6" y="240.7" class="st19" width="8.1" height="13.6"/>
		</g>
		<rect x="304.7" y="242.8" class="st18" width="100.9" height="56.6"/>
		<rect x="298.7" y="232.5" class="st18" width="113" height="10.2"/>
		<rect x="302.2" y="235.8" class="st3" width="105.9" height="3.7"/>
		<line class="st18" x1="393.3" y1="264.6" x2="317.1" y2="264.6"/>
		<rect x="346.7" y="250.1" class="st18" width="16.9" height="7.5"/>
		<rect x="317.1" y="250.1" class="st18" width="16.9" height="7.5"/>
		<rect x="376.4" y="250.1" class="st18" width="16.9" height="7.5"/>
		<circle class="st19" cx="193.9" cy="140.5" r="3.8"/>
		<circle class="st19" cx="214.1" cy="140.5" r="3.8"/>
		<line class="st19" x1="203.4" y1="129" x2="203.4" y2="111.4"/>
		<line class="st19" x1="212.3" y1="129" x2="212.3" y2="121.2"/>
		<rect x="88.3" y="178.1" class="st18" width="78.7" height="121.3"/>
		<rect x="88.3" y="178.1" class="st19" width="78.7" height="8.3"/>
		<rect x="102.9" y="167.1" class="st19" width="49.6" height="11"/>
		<g>
			<line class="st19" x1="97.7" y1="194.7" x2="97.7" y2="290.7"/>
			<line class="st19" x1="109.7" y1="194.7" x2="109.7" y2="290.7"/>
			<line class="st19" x1="121.7" y1="194.7" x2="121.7" y2="250.7"/>
			<line class="st19" x1="133.7" y1="194.7" x2="133.7" y2="250.7"/>
			<line class="st19" x1="145.7" y1="194.7" x2="145.7" y2="290.7"/>
			<line class="st19" x1="157.7" y1="194.7" x2="157.7" y2="290.7"/>
		</g>
		<rect x="117.8" y="259.2" class="st18" width="19.6" height="40.1"/>
		<rect x="122.2" y="271.2" class="st3" width="11" height="28.1"/>
		<line class="st18" x1="137.5" y1="266.7" x2="117.8" y2="266.7"/>
		<g>
			<line class="st20" x1="165.9" y1="70.3" x2="165.9" y2="75.9"/>
			<line class="st20" x1="165.9" y1="84" x2="165.9" y2="89.5"/>
			<line class="st20" x1="175.5" y1="79.9" x2="170" y2="79.9"/>
			<line class="st20" x1="161.9" y1="79.9" x2="156.4" y2="79.9"/>
		</g>
		<g>
			<line class="st20" x1="390.9" y1="127.3" x2="390.9" y2="132.9"/>
			<line class="st20" x1="390.9" y1="141" x2="390.9" y2="146.5"/>
			<line class="st20" x1="400.5" y1="136.9" x2="395" y2="136.9"/>
			<line class="st20" x1="386.9" y1="136.9" x2="381.4" y2="136.9"/>
		</g>
		<rect x="376.4" y="272.3" class="st18" width="16.9" height="27.1"/>
		<rect x="380.2" y="276" class="st3" width="9.3" height="23.3"/>
		<path class="st18" d="M342.7,284.7v14.6h24.9v-14.6c0-6.9-5.6-12.5-12.5-12.5h0C348.3,272.3,342.7,277.8,342.7,284.7z"/>
		<rect x="317.1" y="272.3" class="st18" width="16.9" height="27.1"/>
		<rect x="243.4" y="85.9" class="st19" width="61.8" height="27.9"/>
		<path class="st3" d="M348.3,284.6v14.9H362v-14.9c0-3.8-3.1-6.9-6.9-6.9h0C351.4,277.7,348.3,280.8,348.3,284.6z"/>
		<rect x="320.8" y="276" class="st3" width="9.3" height="23.3"/>
		<line class="st18" x1="50.4" y1="299.4" x2="449.6" y2="299.4"/>
		<g>
			<circle class="st3" cx="52.7" cy="141.4" r="2.3"/>
			<circle class="st3" cx="52.7" cy="155.1" r="2.3"/>
			<circle class="st3" cx="52.7" cy="168.8" r="2.3"/>
			<circle class="st3" cx="52.7" cy="182.5" r="2.3"/>
			<circle class="st3" cx="52.7" cy="196.2" r="2.3"/>
			<circle class="st3" cx="52.7" cy="209.9" r="2.3"/>
			<circle class="st3" cx="66.4" cy="141.4" r="2.3"/>
			<circle class="st3" cx="66.4" cy="155.1" r="2.3"/>
			<circle class="st3" cx="66.4" cy="168.8" r="2.3"/>
			<circle class="st3" cx="66.4" cy="182.5" r="2.3"/>
			<circle class="st3" cx="66.4" cy="196.2" r="2.3"/>
			<circle class="st3" cx="66.4" cy="209.9" r="2.3"/>
			<circle class="st3" cx="80.1" cy="141.4" r="2.3"/>
			<circle class="st3" cx="80.1" cy="155.1" r="2.3"/>
			<circle class="st3" cx="80.1" cy="168.8" r="2.3"/>
			<circle class="st3" cx="80.1" cy="182.5" r="2.3"/>
			<circle class="st3" cx="80.1" cy="196.2" r="2.3"/>
			<circle class="st3" cx="80.1" cy="209.9" r="2.3"/>
			<circle class="st3" cx="93.8" cy="141.4" r="2.3"/>
			<circle class="st3" cx="93.8" cy="155.1" r="2.3"/>
			<circle class="st3" cx="93.8" cy="168.8" r="2.3"/>
			<circle class="st3" cx="93.8" cy="182.5" r="2.3"/>
			<circle class="st3" cx="93.8" cy="196.2" r="2.3"/>
			<circle class="st3" cx="93.8" cy="209.9" r="2.3"/>
			<circle class="st3" cx="107.4" cy="141.4" r="2.3"/>
			<circle class="st3" cx="107.4" cy="155.1" r="2.3"/>
			<circle class="st3" cx="107.4" cy="168.8" r="2.3"/>
			<circle class="st3" cx="107.4" cy="182.5" r="2.3"/>
			<circle class="st3" cx="107.4" cy="196.2" r="2.3"/>
			<circle class="st3" cx="107.4" cy="209.9" r="2.3"/>
			<circle class="st3" cx="121.1" cy="141.4" r="2.3"/>
			<circle class="st3" cx="121.1" cy="155.1" r="2.3"/>
			<circle class="st3" cx="121.1" cy="168.8" r="2.3"/>
			<circle class="st3" cx="121.1" cy="182.5" r="2.3"/>
			<circle class="st3" cx="121.1" cy="196.2" r="2.3"/>
			<circle class="st3" cx="121.1" cy="209.9" r="2.3"/>
			<circle class="st3" cx="134.7" cy="141.4" r="2.3"/>
			<circle class="st3" cx="134.7" cy="155.1" r="2.3"/>
			<circle class="st3" cx="134.7" cy="168.8" r="2.3"/>
			<circle class="st3" cx="134.7" cy="182.5" r="2.3"/>
			<circle class="st3" cx="134.7" cy="196.2" r="2.3"/>
			<circle class="st3" cx="134.7" cy="209.9" r="2.3"/>
			<circle class="st3" cx="148.4" cy="141.4" r="2.3"/>
			<circle class="st3" cx="148.4" cy="155.1" r="2.3"/>
			<circle class="st3" cx="148.4" cy="168.8" r="2.3"/>
			<circle class="st3" cx="148.4" cy="182.5" r="2.3"/>
			<circle class="st3" cx="148.4" cy="196.2" r="2.3"/>
			<circle class="st3" cx="148.4" cy="209.9" r="2.3"/>
		</g>
	</g>
</g>
<g id="Capa_3" class="st0">
</g>
<g id="Capa_2" class="st0">
</g>
</svg>
