<?xml version="1.0" encoding="utf-8"?>
<!-- Generator: Adobe Illustrator 21.1.0, SVG Export Plug-In . SVG Version: 6.00 Build 0)  -->
<svg version="1.1" xmlns="http://www.w3.org/2000/svg" xmlns:xlink="http://www.w3.org/1999/xlink" x="0px" y="0px"
	 viewBox="0 0 500 350" style="enable-background:new 0 0 500 350;" xml:space="preserve">
<style type="text/css">
	.st0{display:none;}
	.st1{display:inline;}
	.st2{fill:#FFFFFF;stroke:#575757;stroke-width:0.8;stroke-linecap:round;stroke-linejoin:round;stroke-miterlimit:10;}
	.st3{fill:#3FA8DF;}
	.st4{fill:none;stroke:#575757;stroke-width:0.8;stroke-linecap:round;stroke-linejoin:round;stroke-miterlimit:10;}
	
		.st5{display:inline;fill:#FFFFFF;stroke:#575757;stroke-width:0.8;stroke-linecap:round;stroke-linejoin:round;stroke-miterlimit:10;}
	.st6{display:inline;fill:#3FA8DF;}
	.st7{display:inline;fill:none;stroke:#575757;stroke-width:0.8;stroke-linecap:round;stroke-linejoin:round;stroke-miterlimit:10;}
	.st8{fill:none;stroke:#419DCF;stroke-width:0.8;stroke-linecap:round;stroke-linejoin:round;stroke-miterlimit:10;}
	.st9{fill:#575756;}
	.st10{display:inline;fill:#FFFFFF;}
	
		.st11{display:inline;fill:none;stroke:#419DCF;stroke-width:0.8;stroke-linecap:round;stroke-linejoin:round;stroke-miterlimit:10;}
	.st12{display:inline;fill:#0082C7;}
	.st13{display:inline;fill:#005EA9;}
	.st14{display:inline;fill:#00468D;}
	.st15{display:inline;fill:#43474B;}
	.st16{display:inline;fill:#3C4044;}
	.st17{fill:#FFFFFF;}
	.st18{fill:#FFFFFF;stroke:#575757;stroke-width:3.2;stroke-linecap:round;stroke-linejoin:round;stroke-miterlimit:10;}
	.st19{fill:none;stroke:#575757;stroke-width:3.2;stroke-linecap:round;stroke-linejoin:round;stroke-miterlimit:10;}
	.st20{fill:none;stroke:#419DCF;stroke-width:3.2;stroke-linecap:round;stroke-linejoin:round;stroke-miterlimit:10;}
	.st21{display:inline;fill:none;stroke:#FF7BEB;stroke-width:0.5627;stroke-miterlimit:10;}
</style>
<g id="Capa_1" class="st0">
</g>
<g id="Capa_4">
	<g>
		<g>
			<line class="st20" x1="92.5" y1="124.4" x2="92.5" y2="129.9"/>
			<line class="st20" x1="92.5" y1="138.1" x2="92.5" y2="143.6"/>
			<line class="st20" x1="102.1" y1="134" x2="96.5" y2="134"/>
			<line class="st20" x1="88.4" y1="134" x2="82.9" y2="134"/>
		</g>
		<g>
			<path class="st19" d="M171.5,55.9c-18.9,5.9-32.7,23.5-32.7,44.4"/>
			<path class="st19" d="M231.7,100.2c0-20.9-13.8-38.5-32.7-44.4"/>
			<path class="st18" d="M166.6,174.9v13.6c0,6.3-5.1,11.5-11.5,11.5H133c-21.5,0-38.9,17.4-38.9,38.9v54.4c0,4.2,3.4,7.5,7.5,7.5
				h166.8c4.2,0,7.5-3.4,7.5-7.5v-54.4c0-21.5-17.4-38.9-38.9-38.9h-22.1c-6.3,0-11.5-5.1-11.5-11.5v-13.6"/>
			<path class="st19" d="M145.7,109v30.1c0,21.9,17.7,39.6,39.6,39.6h0c21.9,0,39.6-17.7,39.6-39.6v-30.8"/>
			<path class="st3" d="M224.5,108.1v-6.5c0-21.7-17.6-39.2-39.2-39.2h0c-21.7,0-39.2,17.6-39.2,39.2v7.2"/>
			<polyline class="st19" points="182.5,142.6 187.4,142.6 187.4,132.4 			"/>
			<g>
				<path class="st19" d="M234.4,133.3v-9.7c0-4.2-3.4-7.6-7.6-7.6"/>
				<path class="st19" d="M234.4,124.3v9.7c0,4.2-3.4,7.6-7.6,7.6"/>
			</g>
			<g>
				<path class="st19" d="M136.3,124.3v9.7c0,4.2,3.4,7.6,7.6,7.6"/>
				<path class="st19" d="M136.3,133.3v-9.7c0-4.2,3.4-7.6,7.6-7.6"/>
			</g>
			<line class="st19" x1="185.2" y1="231.9" x2="185.2" y2="300.4"/>
			<path class="st19" d="M171.5,79.6V53.7c0-1.9,1.5-3.4,3.4-3.4h20.7c1.9,0,3.4,1.5,3.4,3.4v25.8"/>
			<path class="st3" d="M177,73.4V57c0-0.7,0.6-1.3,1.3-1.3h14c0.7,0,1.3,0.6,1.3,1.3v16.3"/>
			<path class="st18" d="M232.5,92.7h-94.4c-3.5,0-6.3,2.8-6.3,6.3v3c0,3.5,2.8,6.3,6.3,6.3h94.4c3.5,0,6.3-2.8,6.3-6.3v-3
				C238.7,95.5,235.9,92.7,232.5,92.7z"/>
			<path class="st3" d="M232.4,97.1h-94.2c-0.9,0-1.5,0.7-1.5,1.5v3.5c0,0.9,0.7,1.5,1.5,1.5h94.2c0.9,0,1.5-0.7,1.5-1.5v-3.5
				C233.9,97.8,233.2,97.1,232.4,97.1z"/>
			<path class="st19" d="M220.2,200.3l-27,27c-4.4,4.4-11.6,4.4-16,0l-27-27"/>
			<path class="st19" d="M185.2,214.7c11.1,0,20.8-6.3,25.6-15.5c-2.3-0.9-4.3-2.5-5.6-4.5c-3.4,7.7-11.1,13-20,13
				c-9.1,0-16.9-5.6-20.2-13.5c-1.2,2.1-3.1,3.9-5.4,4.9C164.4,208.3,174.1,214.7,185.2,214.7z"/>
			<g>
				<polyline class="st19" points="239.6,298.4 239.7,260.6 239.7,200.8 				"/>
				<path class="st19" d="M239.7,260.6l-4-5.4c-1.8-2.4-2.8-5.3-2.8-8.4v-46"/>
			</g>
			<path class="st3" d="M230.9,263.5l-5.2-8.2c-0.9-1.4-1.4-3.1-1.4-4.7v-38.9c0-1.4-1.7-2.1-2.7-1.1l-26.4,26.8
				c-0.8,0.8-1.2,1.8-1.2,2.9v50.6c0,1.5,1.2,2.7,2.7,2.7h31.9c1.4,0,2.6-1.1,2.7-2.5l0.3-25C231.7,265.2,231.4,264.3,230.9,263.5z"
				/>
			<g>
				<polyline class="st19" points="130.8,298.4 130.8,260.6 130.8,200.8 				"/>
				<path class="st19" d="M130.8,260.6l4-5.4c1.8-2.4,2.8-5.3,2.8-8.4v-46"/>
			</g>
			<path class="st3" d="M139.6,263.5l5.2-8.2c0.9-1.4,1.4-3.1,1.4-4.7v-38.9c0-1.4,1.7-2.1,2.7-1.1l26.4,26.8
				c0.8,0.8,1.2,1.8,1.2,2.9v50.6c0,1.5-1.2,2.7-2.7,2.7h-31.9c-1.4,0-2.6-1.1-2.7-2.5l-0.3-25C138.8,265.2,139.1,264.3,139.6,263.5
				z"/>
			<line class="st19" x1="230.5" y1="108.9" x2="230.5" y2="116.7"/>
			<line class="st19" x1="140.1" y1="108.9" x2="140.1" y2="116.7"/>
		</g>
		<path class="st18" d="M302.3,186.7v12.4c0,6.3-5.1,11.5-11.5,11.5h0c-31.2,0-56.4,25.3-56.4,56.4v26.2c0,4.2,3.4,7.5,7.5,7.5
			h153.1c4.2,0,7.5-3.4,7.5-7.5v-26.2c0-31.2-25.3-56.4-56.4-56.4h0c-6.3,0-11.5-5.1-11.5-11.5v-12.4"/>
		<path class="st3" d="M293.7,219L293.7,219c-27.8,0-50.3,22.5-50.3,50.3v18.8c0,3.4,2.8,6.2,6.2,6.2h137.5c3.4,0,6.2-2.8,6.2-6.2
			v-18.8c0-27.8-22.5-50.3-50.3-50.3h0"/>
		<polyline class="st17" points="318.4,258.2 341.3,211.2 295.5,211.2 318.4,258.2 		"/>
		<circle class="st19" cx="318.7" cy="65.4" r="16.3"/>
		<circle class="st18" cx="318.7" cy="123.2" r="59"/>
		<g>
			<line class="st19" x1="260.3" y1="267.4" x2="264.9" y2="298.4"/>
			<line class="st19" x1="376.6" y1="267.4" x2="372" y2="298.4"/>
		</g>
		<path class="st19" d="M271.4,135v9.7c0,4.2,3.4,7.6,7.6,7.6"/>
		<path class="st19" d="M366,135v9.7c0,4.2-3.4,7.6-7.6,7.6"/>
		<g>
			<line class="st20" x1="389.9" y1="49.2" x2="389.9" y2="54.7"/>
			<line class="st20" x1="389.9" y1="62.9" x2="389.9" y2="68.4"/>
			<line class="st20" x1="399.5" y1="58.8" x2="394" y2="58.8"/>
			<line class="st20" x1="385.8" y1="58.8" x2="380.3" y2="58.8"/>
		</g>
		<path class="st18" d="M342.7,102.9l9,6.5c4.2,3,6.7,7.9,6.7,13.1v27.4c0,21.9-17.7,39.6-39.6,39.6h0c-21.9,0-39.6-17.7-39.6-39.6
			v-19.3l45.6-19.8c7-3,11.5-9.9,11.5-17.6v-4.6"/>
		<polyline class="st19" points="315.9,153.3 320.9,153.3 320.9,143.1 		"/>
		<path class="st18" d="M336.5,205.8h-36.1c-1.6,0-2.9-1.3-2.9-2.9v-5.6c0-1.6,1.3-2.9,2.9-2.9h36.1c1.6,0,2.9,1.3,2.9,2.9v5.6
			C339.3,204.5,338,205.8,336.5,205.8z"/>
		<path class="st3" d="M334.7,202.7h-32.5c-0.6,0-1.2-0.5-1.2-1.2v-2.9c0-0.6,0.5-1.2,1.2-1.2h32.5c0.6,0,1.2,0.5,1.2,1.2v2.9
			C335.8,202.2,335.3,202.7,334.7,202.7z"/>
		<circle class="st18" cx="344.9" cy="200.1" r="5.3"/>
		<path class="st18" d="M366.4,193l12.3,4.8c2.3,0.9,2.3,4.2,0,5.1l-12.3,4.8c-0.6,0.3-1.4,0.3-2,0l-12.3-4.8
			c-2.3-0.9-2.3-4.2,0-5.1l12.3-4.8C365,192.8,365.8,192.8,366.4,193z"/>
		<path class="st3" d="M365.9,196.7l6.1,2.4c1.2,0.5,1.2,2.1,0,2.6l-6.1,2.4c-0.3,0.1-0.7,0.1-1,0l-6.1-2.4c-1.2-0.5-1.2-2.1,0-2.6
			l6.1-2.4C365.2,196.6,365.6,196.6,365.9,196.7z"/>
		<path class="st18" d="M355.5,180.7l12.1-5.3c2.3-1,4.6,1.3,3.6,3.6l-5.3,12.1c-0.3,0.6-0.8,1.1-1.4,1.4l-12.1,5.3
			c-2.3,1-4.6-1.3-3.6-3.6l5.3-12.1C354.4,181.5,354.9,181,355.5,180.7z"/>
		<path class="st3" d="M357.7,183.5l6.3-2.7c1.2-0.5,2.4,0.7,1.9,1.9l-2.7,6.3c-0.1,0.3-0.4,0.6-0.7,0.7l-6.3,2.7
			c-1.2,0.5-2.4-0.7-1.9-1.9l2.7-6.3C357.1,184,357.3,183.7,357.7,183.5z"/>
		<polyline class="st19" points="341.3,211.2 318.4,258.2 295.5,211.2 		"/>
		<polyline class="st19" points="278.4,213.1 318.4,258.2 318.4,300.7 		"/>
		<circle class="st19" cx="327.3" cy="269.6" r="3.6"/>
		<circle class="st19" cx="327.3" cy="291.5" r="3.6"/>
		<path class="st19" d="M360.1,257h-19.4v15c0,3,2.4,5.4,5.4,5.4h8.5c3,0,5.4-2.4,5.4-5.4V257z"/>
		<line class="st19" x1="360.1" y1="263.2" x2="340.7" y2="263.2"/>
		<line class="st19" x1="318.4" y1="258.2" x2="358.4" y2="213.1"/>
		<g>
			<circle class="st3" cx="51" cy="173.8" r="2.3"/>
			<circle class="st3" cx="51" cy="187.5" r="2.3"/>
			<circle class="st3" cx="51" cy="201.2" r="2.3"/>
			<circle class="st3" cx="51" cy="214.9" r="2.3"/>
			<circle class="st3" cx="51" cy="228.6" r="2.3"/>
			<circle class="st3" cx="51" cy="242.3" r="2.3"/>
			<circle class="st3" cx="64.7" cy="173.8" r="2.3"/>
			<circle class="st3" cx="64.7" cy="187.5" r="2.3"/>
			<circle class="st3" cx="64.7" cy="201.2" r="2.3"/>
			<circle class="st3" cx="64.7" cy="214.9" r="2.3"/>
			<circle class="st3" cx="64.7" cy="228.6" r="2.3"/>
			<circle class="st3" cx="64.7" cy="242.3" r="2.3"/>
			<circle class="st3" cx="78.4" cy="173.8" r="2.3"/>
			<circle class="st3" cx="78.4" cy="187.5" r="2.3"/>
			<circle class="st3" cx="78.4" cy="201.2" r="2.3"/>
			<circle class="st3" cx="78.4" cy="214.9" r="2.3"/>
			<circle class="st3" cx="78.4" cy="228.6" r="2.3"/>
			<circle class="st3" cx="78.4" cy="242.3" r="2.3"/>
			<circle class="st3" cx="92.1" cy="173.8" r="2.3"/>
			<circle class="st3" cx="92.1" cy="187.5" r="2.3"/>
			<circle class="st3" cx="92.1" cy="201.2" r="2.3"/>
			<circle class="st3" cx="92.1" cy="214.9" r="2.3"/>
			<circle class="st3" cx="92.1" cy="228.6" r="2.3"/>
			<circle class="st3" cx="92.1" cy="242.3" r="2.3"/>
			<circle class="st3" cx="105.6" cy="173.8" r="2.3"/>
			<circle class="st3" cx="105.6" cy="187.5" r="2.3"/>
			<circle class="st3" cx="105.6" cy="201.2" r="2.3"/>
			<circle class="st3" cx="105.6" cy="214.9" r="2.3"/>
			<circle class="st3" cx="105.6" cy="228.6" r="2.3"/>
			<circle class="st3" cx="105.6" cy="242.3" r="2.3"/>
			<circle class="st3" cx="119.3" cy="173.8" r="2.3"/>
			<circle class="st3" cx="119.3" cy="187.5" r="2.3"/>
			<circle class="st3" cx="119.3" cy="201.2" r="2.3"/>
			<circle class="st3" cx="119.3" cy="214.9" r="2.3"/>
			<circle class="st3" cx="119.3" cy="228.6" r="2.3"/>
			<circle class="st3" cx="119.3" cy="242.3" r="2.3"/>
			<circle class="st3" cx="133" cy="173.8" r="2.3"/>
			<circle class="st3" cx="133" cy="187.5" r="2.3"/>
			<circle class="st3" cx="133" cy="201.2" r="2.3"/>
			<circle class="st3" cx="133" cy="214.9" r="2.3"/>
			<circle class="st3" cx="133" cy="228.6" r="2.3"/>
			<circle class="st3" cx="133" cy="242.3" r="2.3"/>
			<circle class="st3" cx="146.7" cy="173.8" r="2.3"/>
			<circle class="st3" cx="146.7" cy="187.5" r="2.3"/>
			<circle class="st3" cx="146.7" cy="201.2" r="2.3"/>
			<circle class="st3" cx="146.7" cy="214.9" r="2.3"/>
			<circle class="st3" cx="146.7" cy="228.6" r="2.3"/>
			<circle class="st3" cx="146.7" cy="242.3" r="2.3"/>
		</g>
	</g>
</g>
<g id="Capa_3" class="st0">
</g>
<g id="Capa_2" class="st0">
</g>
</svg>
