<?xml version="1.0" encoding="utf-8"?>
<!-- Generator: Adobe Illustrator 21.1.0, SVG Export Plug-In . SVG Version: 6.00 Build 0)  -->
<svg version="1.1" xmlns="http://www.w3.org/2000/svg" xmlns:xlink="http://www.w3.org/1999/xlink" x="0px" y="0px"
	 viewBox="0 0 500 350" style="enable-background:new 0 0 500 350;" xml:space="preserve">
<style type="text/css">
	.st0{display:none;}
	.st1{display:inline;}
	.st2{fill:#FFFFFF;stroke:#575757;stroke-width:0.8;stroke-linecap:round;stroke-linejoin:round;stroke-miterlimit:10;}
	.st3{fill:#3FA8DF;}
	.st4{fill:none;stroke:#575757;stroke-width:0.8;stroke-linecap:round;stroke-linejoin:round;stroke-miterlimit:10;}
	
		.st5{display:inline;fill:#FFFFFF;stroke:#575757;stroke-width:0.8;stroke-linecap:round;stroke-linejoin:round;stroke-miterlimit:10;}
	.st6{display:inline;fill:#3FA8DF;}
	.st7{display:inline;fill:none;stroke:#575757;stroke-width:0.8;stroke-linecap:round;stroke-linejoin:round;stroke-miterlimit:10;}
	.st8{fill:none;stroke:#419DCF;stroke-width:0.8;stroke-linecap:round;stroke-linejoin:round;stroke-miterlimit:10;}
	.st9{fill:#575756;}
	.st10{display:inline;fill:#FFFFFF;}
	
		.st11{display:inline;fill:none;stroke:#419DCF;stroke-width:0.8;stroke-linecap:round;stroke-linejoin:round;stroke-miterlimit:10;}
	.st12{display:inline;fill:#0082C7;}
	.st13{display:inline;fill:#005EA9;}
	.st14{display:inline;fill:#00468D;}
	.st15{display:inline;fill:#43474B;}
	.st16{display:inline;fill:#3C4044;}
	.st17{fill:#FFFFFF;}
	.st18{fill:#FFFFFF;stroke:#575757;stroke-width:3.2;stroke-linecap:round;stroke-linejoin:round;stroke-miterlimit:10;}
	.st19{fill:none;stroke:#575757;stroke-width:3.2;stroke-linecap:round;stroke-linejoin:round;stroke-miterlimit:10;}
	.st20{fill:none;stroke:#419DCF;stroke-width:3.2;stroke-linecap:round;stroke-linejoin:round;stroke-miterlimit:10;}
	.st21{display:inline;fill:none;stroke:#FF7BEB;stroke-width:0.5627;stroke-miterlimit:10;}
</style>
<g id="Capa_1" class="st0">
</g>
<g id="Capa_4">
	<g>
		<g>
			<path class="st18" d="M338.1,224.1H154.6c-2.3,0-4.4,0.9-6,2.6l-31.9,34.5c-2,2.2-5.6,0.7-5.6-2.2l0-27.9c0-3.9-3.1-7-7-7h0
				c-5.7,0-10.3-4.6-10.3-10.3V69.4c0-5.7,4.6-10.3,10.3-10.3h233.9c5.7,0,10.3,4.6,10.3,10.3v144.4
				C348.4,219.5,343.8,224.1,338.1,224.1z"/>
			<path class="st3" d="M325.3,206.8H117c-3.8,0-6.9-3.1-6.9-6.9V83.3c0-3.8,3.1-6.9,6.9-6.9h208.3c3.8,0,6.9,3.1,6.9,6.9v116.7
				C332.2,203.7,329.1,206.8,325.3,206.8z"/>
		</g>
		<g>
			<rect x="129.6" y="96.5" class="st18" width="59.7" height="42.2"/>
			<rect x="204.9" y="96.5" class="st18" width="108.6" height="91.2"/>
			<line class="st19" x1="189.3" y1="154.8" x2="129.6" y2="154.8"/>
			<line class="st19" x1="189.3" y1="170.8" x2="129.6" y2="170.8"/>
			<line class="st19" x1="189.3" y1="186.8" x2="129.6" y2="186.8"/>
			<rect x="136.8" y="103.1" class="st3" width="45.2" height="29.1"/>
		</g>
		<g>
			<path class="st3" d="M236.8,135.7c3.6,0,6.1,2.5,6.1,5.8c0,3.3-2.5,5.8-6.1,5.8c-3.6,0-6.1-2.5-6.1-5.8
				C230.8,138.2,233.3,135.7,236.8,135.7z"/>
			<path class="st3" d="M258.4,135.7c3.6,0,6.1,2.5,6.1,5.8c0,3.3-2.5,5.8-6.1,5.8c-3.6,0-6.1-2.5-6.1-5.8
				C252.4,138.2,254.8,135.7,258.4,135.7z"/>
			<path class="st3" d="M280,135.7c3.6,0,6.1,2.5,6.1,5.8c0,3.3-2.5,5.8-6.1,5.8c-3.6,0-6.1-2.5-6.1-5.8
				C273.9,138.2,276.4,135.7,280,135.7z"/>
		</g>
		<path class="st18" d="M252.4,275.7H351c1.5,0,2.9,0.6,3.9,1.7l21,22.8c1.3,1.4,3.7,0.5,3.7-1.4l0-18.4c0-2.5,2.1-4.6,4.6-4.6l0,0
			c3.7,0,6.8-3,6.8-6.8v-95.3c0-3.7-3-6.8-6.8-6.8H252.4c-3.7,0-6.8,3-6.8,6.8v95.3C245.6,272.6,248.6,275.7,252.4,275.7z"/>
		<g>
			<line class="st20" x1="401.3" y1="56.7" x2="401.3" y2="62.2"/>
			<line class="st20" x1="401.3" y1="70.4" x2="401.3" y2="75.9"/>
			<line class="st20" x1="410.9" y1="66.3" x2="405.3" y2="66.3"/>
			<line class="st20" x1="397.2" y1="66.3" x2="391.7" y2="66.3"/>
		</g>
		<g>
			<line class="st20" x1="175.7" y1="260.3" x2="175.7" y2="265.8"/>
			<line class="st20" x1="175.7" y1="273.9" x2="175.7" y2="279.4"/>
			<line class="st20" x1="185.3" y1="269.9" x2="179.8" y2="269.9"/>
			<line class="st20" x1="171.6" y1="269.9" x2="166.1" y2="269.9"/>
		</g>
		<line class="st19" x1="261.5" y1="248" x2="374.3" y2="248"/>
		<line class="st19" x1="261.5" y1="258.6" x2="374.3" y2="258.6"/>
		<line class="st19" x1="330.7" y1="226.7" x2="374.3" y2="226.7"/>
		<line class="st19" x1="330.7" y1="216" x2="374.3" y2="216"/>
		<rect x="330.7" y="183.1" class="st19" width="43.6" height="22.2"/>
		<rect x="337.5" y="189.3" class="st3" width="30.1" height="9.7"/>
		<line class="st19" x1="330.7" y1="237.3" x2="374.3" y2="237.3"/>
		<g>
			<rect x="261.5" y="183.1" class="st19" width="59.7" height="54.3"/>
			<rect x="268.7" y="189.6" class="st3" width="45.2" height="41.1"/>
		</g>
		<g>
			<g>
				<path class="st17" d="M287.9,214.8c-0.1-0.1-0.1-0.3-0.2-0.5c-0.1-0.3-0.2-0.7-0.2-1.2c0-4.8,5.7-5.5,5.7-8.2c0-1.1-0.9-2-2.4-2
					c-1.3,0-2.2,0.6-2.7,1.2c-0.3,0.3-0.6,0.7-0.8,1.2l-5.9-2.7c0.5-1.1,1.2-2.2,2-3.1c1.5-1.5,3.9-3.1,7.6-3.1
					c5.7,0,9.5,3.8,9.5,7.7c0,5.8-7,7-7,10.8H287.9z M290.7,216.4c2,0,3.5,1.4,3.5,3.3c0,1.9-1.4,3.3-3.5,3.3s-3.5-1.4-3.5-3.3
					C287.2,217.8,288.6,216.4,290.7,216.4z"/>
			</g>
		</g>
		<g>
			<circle class="st3" cx="340.2" cy="105.5" r="2.3"/>
			<circle class="st3" cx="340.2" cy="119.2" r="2.3"/>
			<circle class="st3" cx="340.2" cy="132.8" r="2.3"/>
			<circle class="st3" cx="340.2" cy="146.5" r="2.3"/>
			<circle class="st3" cx="340.2" cy="160.2" r="2.3"/>
			<circle class="st3" cx="340.2" cy="173.9" r="2.3"/>
			<circle class="st3" cx="353.9" cy="105.5" r="2.3"/>
			<circle class="st3" cx="353.9" cy="119.2" r="2.3"/>
			<circle class="st3" cx="353.9" cy="132.8" r="2.3"/>
			<circle class="st3" cx="353.9" cy="146.5" r="2.3"/>
			<circle class="st3" cx="353.9" cy="160.2" r="2.3"/>
			<circle class="st3" cx="353.9" cy="173.9" r="2.3"/>
			<circle class="st3" cx="367.6" cy="105.5" r="2.3"/>
			<circle class="st3" cx="367.6" cy="119.2" r="2.3"/>
			<circle class="st3" cx="367.6" cy="132.8" r="2.3"/>
			<circle class="st3" cx="367.6" cy="146.5" r="2.3"/>
			<circle class="st3" cx="367.6" cy="160.2" r="2.3"/>
			<circle class="st3" cx="367.6" cy="173.9" r="2.3"/>
			<circle class="st3" cx="381.3" cy="105.5" r="2.3"/>
			<circle class="st3" cx="381.3" cy="119.2" r="2.3"/>
			<circle class="st3" cx="381.3" cy="132.8" r="2.3"/>
			<circle class="st3" cx="381.3" cy="146.5" r="2.3"/>
			<circle class="st3" cx="381.3" cy="160.2" r="2.3"/>
			<circle class="st3" cx="381.3" cy="173.9" r="2.3"/>
			<circle class="st3" cx="394.9" cy="105.5" r="2.3"/>
			<circle class="st3" cx="394.9" cy="119.2" r="2.3"/>
			<circle class="st3" cx="394.9" cy="132.8" r="2.3"/>
			<circle class="st3" cx="394.9" cy="146.5" r="2.3"/>
			<circle class="st3" cx="394.9" cy="160.2" r="2.3"/>
			<circle class="st3" cx="394.9" cy="173.9" r="2.3"/>
			<circle class="st3" cx="408.6" cy="105.5" r="2.3"/>
			<circle class="st3" cx="408.6" cy="119.2" r="2.3"/>
			<circle class="st3" cx="408.6" cy="132.8" r="2.3"/>
			<circle class="st3" cx="408.6" cy="146.5" r="2.3"/>
			<circle class="st3" cx="408.6" cy="160.2" r="2.3"/>
			<circle class="st3" cx="408.6" cy="173.9" r="2.3"/>
			<circle class="st3" cx="422.3" cy="105.5" r="2.3"/>
			<circle class="st3" cx="422.3" cy="119.2" r="2.3"/>
			<circle class="st3" cx="422.3" cy="132.8" r="2.3"/>
			<circle class="st3" cx="422.3" cy="146.5" r="2.3"/>
			<circle class="st3" cx="422.3" cy="160.2" r="2.3"/>
			<circle class="st3" cx="422.3" cy="173.9" r="2.3"/>
			<circle class="st3" cx="436" cy="105.5" r="2.3"/>
			<circle class="st3" cx="436" cy="119.2" r="2.3"/>
			<circle class="st3" cx="436" cy="132.8" r="2.3"/>
			<circle class="st3" cx="436" cy="146.5" r="2.3"/>
			<circle class="st3" cx="436" cy="160.2" r="2.3"/>
			<circle class="st3" cx="436" cy="173.9" r="2.3"/>
		</g>
	</g>
</g>
<g id="Capa_3" class="st0">
</g>
<g id="Capa_2" class="st0">
</g>
</svg>
