<?xml version="1.0" encoding="utf-8"?>
<!-- Generator: Adobe Illustrator 21.1.0, SVG Export Plug-In . SVG Version: 6.00 Build 0)  -->
<svg version="1.1" xmlns="http://www.w3.org/2000/svg" xmlns:xlink="http://www.w3.org/1999/xlink" x="0px" y="0px"
	 viewBox="0 0 500 350" style="enable-background:new 0 0 500 350;" xml:space="preserve">
<style type="text/css">
	.st0{display:none;}
	.st1{display:inline;}
	.st2{fill:#FFFFFF;stroke:#575757;stroke-width:0.8;stroke-linecap:round;stroke-linejoin:round;stroke-miterlimit:10;}
	.st3{fill:#3FA8DF;}
	.st4{fill:none;stroke:#575757;stroke-width:0.8;stroke-linecap:round;stroke-linejoin:round;stroke-miterlimit:10;}
	
		.st5{display:inline;fill:#FFFFFF;stroke:#575757;stroke-width:0.8;stroke-linecap:round;stroke-linejoin:round;stroke-miterlimit:10;}
	.st6{display:inline;fill:#3FA8DF;}
	.st7{display:inline;fill:none;stroke:#575757;stroke-width:0.8;stroke-linecap:round;stroke-linejoin:round;stroke-miterlimit:10;}
	.st8{fill:none;stroke:#419DCF;stroke-width:0.8;stroke-linecap:round;stroke-linejoin:round;stroke-miterlimit:10;}
	.st9{fill:#575756;}
	.st10{display:inline;fill:#FFFFFF;}
	
		.st11{display:inline;fill:none;stroke:#419DCF;stroke-width:0.8;stroke-linecap:round;stroke-linejoin:round;stroke-miterlimit:10;}
	.st12{display:inline;fill:#0082C7;}
	.st13{display:inline;fill:#005EA9;}
	.st14{display:inline;fill:#00468D;}
	.st15{display:inline;fill:#43474B;}
	.st16{display:inline;fill:#3C4044;}
	.st17{fill:#FFFFFF;}
	.st18{fill:#FFFFFF;stroke:#575757;stroke-width:3.2;stroke-linecap:round;stroke-linejoin:round;stroke-miterlimit:10;}
	.st19{fill:none;stroke:#575757;stroke-width:3.2;stroke-linecap:round;stroke-linejoin:round;stroke-miterlimit:10;}
	.st20{fill:none;stroke:#419DCF;stroke-width:3.2;stroke-linecap:round;stroke-linejoin:round;stroke-miterlimit:10;}
	.st21{display:inline;fill:none;stroke:#FF7BEB;stroke-width:0.5627;stroke-miterlimit:10;}
</style>
<g id="Capa_1" class="st0">
</g>
<g id="Capa_4">
	<g>
		<g>
			<path class="st18" d="M234.3,247.4c-2.3,7.9-0.3,16.7,5.9,23s15.1,8.2,23,5.9c2.3-7.9,0.3-16.7-5.9-23
				C251.1,247.1,242.2,245.1,234.3,247.4z"/>
			<line class="st18" x1="263.2" y1="276.3" x2="245.1" y2="258.2"/>
		</g>
		<g>
			<path class="st18" d="M234.3,187.8c-2.3,7.9-0.3,16.7,5.9,23s15.1,8.2,23,5.9c2.3-7.9,0.3-16.7-5.9-23
				C251.1,187.5,242.2,185.6,234.3,187.8z"/>
			<line class="st18" x1="263.2" y1="216.7" x2="245.1" y2="198.6"/>
		</g>
		<line class="st18" x1="50.4" y1="299.5" x2="449.6" y2="299.5"/>
		<g>
			<path class="st18" d="M375.9,197.1c0-0.2,0.1-0.4,0.1-0.6c0-11.7-9.5-21.2-21.2-21.2s-21.2,9.5-21.2,21.2c0,0.2,0.1,0.4,0.1,0.6
				c-9.4,2.2-16.3,10.6-16.3,20.6c0,11.7,9.5,21.2,21.2,21.2c6.6,0,12.4-3,16.3-7.7c3.9,4.7,9.7,7.7,16.3,7.7
				c11.7,0,21.2-9.5,21.2-21.2C392.2,207.7,385.2,199.3,375.9,197.1z"/>
			<circle class="st3" cx="354.7" cy="196.5" r="14.6"/>
			<circle class="st3" cx="338.8" cy="217.8" r="14.6"/>
			<circle class="st3" cx="369.7" cy="217.8" r="14.6"/>
			<path class="st18" d="M354.7,196.3c-5.9,3.2-9.9,9.5-9.9,16.7c0,7.2,4,13.4,9.9,16.7c5.9-3.2,9.9-9.5,9.9-16.7
				C364.6,205.8,360.6,199.5,354.7,196.3z"/>
			<g>
				<path class="st18" d="M379.1,213.3c-6.4-1.9-13.7-0.3-18.8,4.8c-5.1,5.1-6.7,12.3-4.8,18.8c6.4,1.9,13.7,0.3,18.8-4.8
					C379.4,226.9,381,219.7,379.1,213.3z"/>
				<path class="st18" d="M330.3,213.3c-1.9,6.4-0.3,13.7,4.8,18.8s12.3,6.7,18.8,4.8c1.9-6.4,0.3-13.7-4.8-18.8
					C344,213,336.7,211.4,330.3,213.3z"/>
			</g>
			<line class="st19" x1="354.7" y1="235.4" x2="354.7" y2="299.3"/>
			<path class="st3" d="M366.1,254.4c-3-0.9-6.3-0.1-8.6,2.2c-2.3,2.3-3.1,5.7-2.2,8.6c3,0.9,6.3,0.1,8.6-2.2
				C366.2,260.7,366.9,257.4,366.1,254.4z"/>
			<path class="st19" d="M372.1,248.4c-4.6-1.3-9.8-0.2-13.4,3.4c-3.6,3.6-4.8,8.8-3.4,13.4c4.6,1.3,9.8,0.2,13.4-3.4
				C372.3,258.1,373.4,253,372.1,248.4z"/>
			<g>
				<path class="st3" d="M343.4,278c-0.9,3-0.1,6.3,2.2,8.6c2.3,2.3,5.7,3.1,8.6,2.2c0.9-3,0.1-6.3-2.2-8.6
					C349.6,277.9,346.3,277.2,343.4,278z"/>
				<path class="st19" d="M337.3,272c-1.3,4.6-0.2,9.8,3.4,13.4c3.6,3.6,8.8,4.8,13.4,3.4c1.3-4.6,0.2-9.8-3.4-13.4
					S341.9,270.7,337.3,272z"/>
			</g>
		</g>
		<g>
			<path class="st18" d="M265.3,172.3L265.3,172.3c-13.6,0-24.6-11-24.6-24.6V75.2c0-13.6,11-24.6,24.6-24.6h0
				c13.6,0,24.6,11,24.6,24.6v72.5C289.9,161.3,278.9,172.3,265.3,172.3z"/>
			<line class="st19" x1="265.3" y1="50.5" x2="265.3" y2="164"/>
			<line class="st19" x1="253.3" y1="54.8" x2="253.3" y2="168.3"/>
			<line class="st19" x1="277.3" y1="54.8" x2="277.3" y2="168.3"/>
			<line class="st19" x1="241.5" y1="87.2" x2="289.4" y2="87.2"/>
			<line class="st19" x1="241.5" y1="99.2" x2="289.4" y2="99.2"/>
			<line class="st19" x1="241.5" y1="111.2" x2="289.4" y2="111.2"/>
			<line class="st19" x1="241.5" y1="123.2" x2="289.4" y2="123.2"/>
			<line class="st19" x1="241.5" y1="75.2" x2="289.4" y2="75.2"/>
			<line class="st19" x1="244.8" y1="63.2" x2="286.1" y2="63.2"/>
			<g>
				<path class="st18" d="M269.3,179.5L269.3,179.5c-21.4,0-38.7-17.3-38.7-38.7v-30.1h0c21.4,0,38.7,17.3,38.7,38.7V179.5z"/>
				<path class="st3" d="M263.7,164.8l0,6c-14.6,0-26.4-17.8-26.4-32.4v-11.6l0-6.5c14.6,0,26.4,18.3,26.4,32.8V164.8z"/>
			</g>
		</g>
		<rect x="260.8" y="178.4" class="st18" width="8.6" height="121.1"/>
		<g>
			<path class="st18" d="M295.7,216.2c-7.9-2.3-16.7-0.3-23,5.9c-6.2,6.2-8.2,15.1-5.9,23c7.9,2.3,16.7,0.3,23-5.9
				C296,232.9,298,224.1,295.7,216.2z"/>
			<line class="st18" x1="266.9" y1="245" x2="284.9" y2="227"/>
		</g>
		<line class="st19" x1="305.5" y1="299.5" x2="305.5" y2="257"/>
		<line class="st19" x1="293.5" y1="299.5" x2="293.5" y2="281"/>
		<line class="st19" x1="281.5" y1="299.5" x2="281.5" y2="269"/>
		<line class="st19" x1="317.5" y1="299.5" x2="317.5" y2="281"/>
		<line class="st19" x1="329.6" y1="299.5" x2="329.6" y2="269"/>
		<line class="st19" x1="406" y1="299.5" x2="406" y2="269"/>
		<line class="st19" x1="394" y1="299.5" x2="394" y2="281"/>
		<line class="st19" x1="370" y1="299.5" x2="370" y2="281"/>
		<line class="st19" x1="382" y1="299.5" x2="382" y2="269"/>
		<line class="st19" x1="418" y1="299.5" x2="418" y2="281"/>
		<line class="st19" x1="430.1" y1="299.5" x2="430.1" y2="269"/>
		<line class="st19" x1="116" y1="299.5" x2="116" y2="269"/>
		<line class="st19" x1="104" y1="299.5" x2="104" y2="257"/>
		<line class="st19" x1="80" y1="299.5" x2="80" y2="281"/>
		<line class="st19" x1="92" y1="299.5" x2="92" y2="269"/>
		<line class="st19" x1="128" y1="299.5" x2="128" y2="281"/>
		<line class="st19" x1="68" y1="299.5" x2="68" y2="269"/>
		<line class="st19" x1="224.5" y1="299.5" x2="224.5" y2="269"/>
		<line class="st19" x1="212.5" y1="299.5" x2="212.5" y2="281"/>
		<line class="st19" x1="236.5" y1="299.5" x2="236.5" y2="281"/>
		<g>
			<g>
				<path class="st18" d="M135.8,184.8c-2.6,8.8-0.4,18.8,6.6,25.7c7,7,16.9,9.2,25.7,6.6c2.6-8.8,0.4-18.8-6.6-25.7
					C154.6,184.4,144.6,182.3,135.8,184.8z"/>
				<path class="st3" d="M141.6,190.6c-1.6,5.7-0.2,12,4.2,16.5c4.5,4.5,10.8,5.9,16.5,4.2c1.6-5.7,0.2-12-4.2-16.5
					S147.3,189,141.6,190.6z"/>
				<line class="st18" x1="168.1" y1="217.1" x2="147.9" y2="196.9"/>
			</g>
			<g>
				<path class="st18" d="M202.8,184.8c-8.8-2.6-18.8-0.4-25.7,6.6c-7,7-9.2,16.9-6.6,25.7c8.8,2.6,18.8,0.4,25.7-6.6
					C203.1,203.6,205.3,193.7,202.8,184.8z"/>
				<path class="st3" d="M196.9,190.6c-5.7-1.6-12-0.2-16.5,4.2s-5.9,10.8-4.2,16.5c5.7,1.6,12,0.2,16.5-4.2
					S198.6,196.3,196.9,190.6z"/>
				<line class="st18" x1="170.4" y1="217.1" x2="190.7" y2="196.9"/>
			</g>
		</g>
		<g>
			<g>
				<path class="st18" d="M135.8,257.7c-2.6,8.8-0.4,18.8,6.6,25.7c7,7,16.9,9.2,25.7,6.6c2.6-8.8,0.4-18.8-6.6-25.7
					C154.6,257.4,144.6,255.2,135.8,257.7z"/>
				<path class="st3" d="M141.6,263.6c-1.6,5.7-0.2,12,4.2,16.5c4.5,4.5,10.8,5.9,16.5,4.2c1.6-5.7,0.2-12-4.2-16.5
					C153.6,263.3,147.3,261.9,141.6,263.6z"/>
				<line class="st18" x1="168.1" y1="290.1" x2="147.9" y2="269.9"/>
			</g>
			<g>
				<path class="st18" d="M202.8,257.7c-8.8-2.6-18.8-0.4-25.7,6.6c-7,7-9.2,16.9-6.6,25.7c8.8,2.6,18.8,0.4,25.7-6.6
					C203.1,276.5,205.3,266.6,202.8,257.7z"/>
				<path class="st3" d="M196.9,263.6c-5.7-1.6-12-0.2-16.5,4.2c-4.5,4.5-5.9,10.8-4.2,16.5c5.7,1.6,12,0.2,16.5-4.2
					C197.2,275.6,198.6,269.2,196.9,263.6z"/>
				<line class="st18" x1="170.4" y1="290.1" x2="190.7" y2="269.9"/>
			</g>
		</g>
		<g>
			<g>
				<path class="st18" d="M135.8,221.3c-2.6,8.8-0.4,18.8,6.6,25.7c7,7,16.9,9.2,25.7,6.6c2.6-8.8,0.4-18.8-6.6-25.7
					C154.6,220.9,144.6,218.7,135.8,221.3z"/>
				<path class="st3" d="M141.6,227.1c-1.6,5.7-0.2,12,4.2,16.5s10.8,5.9,16.5,4.2c1.6-5.7,0.2-12-4.2-16.5S147.3,225.5,141.6,227.1
					z"/>
				<line class="st18" x1="168.1" y1="253.6" x2="147.9" y2="233.4"/>
			</g>
			<g>
				<path class="st18" d="M202.8,221.3c-8.8-2.6-18.8-0.4-25.7,6.6c-7,7-9.2,16.9-6.6,25.7c8.8,2.6,18.8,0.4,25.7-6.6
					C203.1,240,205.3,230.1,202.8,221.3z"/>
				<path class="st3" d="M196.9,227.1c-5.7-1.6-12-0.2-16.5,4.2s-5.9,10.8-4.2,16.5c5.7,1.6,12,0.2,16.5-4.2
					S198.6,232.8,196.9,227.1z"/>
				<line class="st18" x1="170.4" y1="253.6" x2="190.7" y2="233.4"/>
			</g>
		</g>
		<path class="st18" d="M169.3,126.5c-10.8,5.9-18.1,17.4-18.1,30.5s7.3,24.6,18.1,30.5c10.8-5.9,18.1-17.4,18.1-30.5
			S180,132.5,169.3,126.5z"/>
		<path class="st3" d="M169.3,136c-7.4,4.1-12.5,12-12.5,21.1s5,17,12.5,21.1c7.4-4.1,12.5-12,12.5-21.1S176.7,140.1,169.3,136z"/>
		<line class="st18" x1="169.3" y1="299.5" x2="169.3" y2="146.9"/>
		<g>
			<path class="st18" d="M322.5,67.9c7.2,0,13,5.8,13,13"/>
			<path class="st18" d="M335.5,80.9c0-7.2,5.8-13,13-13"/>
		</g>
		<g>
			<path class="st18" d="M87.7,171.9c7.2,0,13,5.8,13,13"/>
			<path class="st18" d="M100.7,185c0-7.2,5.8-13,13-13"/>
		</g>
		<g>
			<line class="st20" x1="422.2" y1="222.9" x2="422.2" y2="228.4"/>
			<line class="st20" x1="422.2" y1="236.5" x2="422.2" y2="242"/>
			<line class="st20" x1="431.7" y1="232.4" x2="426.2" y2="232.4"/>
			<line class="st20" x1="418.1" y1="232.4" x2="412.6" y2="232.4"/>
		</g>
		<g>
			<line class="st20" x1="108" y1="79.5" x2="108" y2="85"/>
			<line class="st20" x1="108" y1="93.1" x2="108" y2="98.6"/>
			<line class="st20" x1="117.6" y1="89.1" x2="112.1" y2="89.1"/>
			<line class="st20" x1="104" y1="89.1" x2="98.5" y2="89.1"/>
		</g>
		<path class="st18" d="M261.3,179.5L261.3,179.5c21.4,0,38.7-17.3,38.7-38.7V86.6h0c-21.4,0-38.7,17.3-38.7,38.7V179.5z"/>
		<path class="st3" d="M267.5,164.7l0,6c14.6,0,26.4-17.8,26.4-32.4v-36.8l0-6.5c-14.6,0-26.4,18.3-26.4,32.8V164.7z"/>
		<circle class="st18" cx="305.5" cy="255.7" r="4.7"/>
		<circle class="st18" cx="104" cy="251.5" r="4.7"/>
		<g>
			<circle class="st3" cx="351.6" cy="107" r="2.3"/>
			<circle class="st3" cx="351.6" cy="120.7" r="2.3"/>
			<circle class="st3" cx="351.6" cy="134.4" r="2.3"/>
			<circle class="st3" cx="351.6" cy="148.1" r="2.3"/>
			<circle class="st3" cx="351.6" cy="161.8" r="2.3"/>
			<circle class="st3" cx="351.6" cy="175.5" r="2.3"/>
			<circle class="st3" cx="365.3" cy="107" r="2.3"/>
			<circle class="st3" cx="365.3" cy="120.7" r="2.3"/>
			<circle class="st3" cx="365.3" cy="134.4" r="2.3"/>
			<circle class="st3" cx="365.3" cy="148.1" r="2.3"/>
			<circle class="st3" cx="365.3" cy="161.8" r="2.3"/>
			<circle class="st3" cx="365.3" cy="175.5" r="2.3"/>
			<circle class="st3" cx="378.9" cy="107" r="2.3"/>
			<circle class="st3" cx="378.9" cy="120.7" r="2.3"/>
			<circle class="st3" cx="378.9" cy="134.4" r="2.3"/>
			<circle class="st3" cx="378.9" cy="148.1" r="2.3"/>
			<circle class="st3" cx="378.9" cy="161.8" r="2.3"/>
			<circle class="st3" cx="378.9" cy="175.5" r="2.3"/>
			<circle class="st3" cx="392.6" cy="107" r="2.3"/>
			<circle class="st3" cx="392.6" cy="120.7" r="2.3"/>
			<circle class="st3" cx="392.6" cy="134.4" r="2.3"/>
			<circle class="st3" cx="392.6" cy="148.1" r="2.3"/>
			<circle class="st3" cx="392.6" cy="161.8" r="2.3"/>
			<circle class="st3" cx="392.6" cy="175.5" r="2.3"/>
			<circle class="st3" cx="406.2" cy="107" r="2.3"/>
			<circle class="st3" cx="406.2" cy="120.7" r="2.3"/>
			<circle class="st3" cx="406.2" cy="134.4" r="2.3"/>
			<circle class="st3" cx="406.2" cy="148.1" r="2.3"/>
			<circle class="st3" cx="406.2" cy="161.8" r="2.3"/>
			<circle class="st3" cx="406.2" cy="175.5" r="2.3"/>
			<circle class="st3" cx="419.9" cy="107" r="2.3"/>
			<circle class="st3" cx="419.9" cy="120.7" r="2.3"/>
			<circle class="st3" cx="419.9" cy="134.4" r="2.3"/>
			<circle class="st3" cx="419.9" cy="148.1" r="2.3"/>
			<circle class="st3" cx="419.9" cy="161.8" r="2.3"/>
			<circle class="st3" cx="419.9" cy="175.5" r="2.3"/>
			<circle class="st3" cx="433.6" cy="107" r="2.3"/>
			<circle class="st3" cx="433.6" cy="120.7" r="2.3"/>
			<circle class="st3" cx="433.6" cy="134.4" r="2.3"/>
			<circle class="st3" cx="433.6" cy="148.1" r="2.3"/>
			<circle class="st3" cx="433.6" cy="161.8" r="2.3"/>
			<circle class="st3" cx="433.6" cy="175.5" r="2.3"/>
			<circle class="st3" cx="447.3" cy="107" r="2.3"/>
			<circle class="st3" cx="447.3" cy="120.7" r="2.3"/>
			<circle class="st3" cx="447.3" cy="134.4" r="2.3"/>
			<circle class="st3" cx="447.3" cy="148.1" r="2.3"/>
			<circle class="st3" cx="447.3" cy="161.8" r="2.3"/>
			<circle class="st3" cx="447.3" cy="175.5" r="2.3"/>
		</g>
		<path class="st19" d="M192.2,93.1c4.7,0,8.6-3.8,8.6-8.6s-3.8-8.6-8.6-8.6c0,0-0.1,0-0.1,0c-1.8-4.7-6.3-8-11.7-8
			c-4.6,0-8.7,2.6-10.8,6.3c-1.1-0.4-2.3-0.7-3.5-0.7c-5.4,0-9.7,4.4-9.7,9.7c0,5.4,4.4,9.7,9.7,9.7H192.2z"/>
	</g>
</g>
<g id="Capa_3" class="st0">
</g>
<g id="Capa_2" class="st0">
</g>
</svg>
