<?xml version="1.0" encoding="utf-8"?>
<!-- Generator: Adobe Illustrator 21.1.0, SVG Export Plug-In . SVG Version: 6.00 Build 0)  -->
<svg version="1.1" id="Capa_1" xmlns="http://www.w3.org/2000/svg" xmlns:xlink="http://www.w3.org/1999/xlink" x="0px" y="0px"
	 width="500px" height="350px" viewBox="0 0 500 350" style="enable-background:new 0 0 500 350;" xml:space="preserve">
<style type="text/css">
	.st0{display:none;}
	.st1{fill:#3FA8DF;}
	.st2{fill:none;stroke:#575757;stroke-width:3.2;stroke-linecap:round;stroke-linejoin:round;stroke-miterlimit:10;}
	.st3{fill:#FFFFFF;stroke:#575757;stroke-width:3.2;stroke-linecap:round;stroke-linejoin:round;stroke-miterlimit:10;}
	.st4{fill:none;stroke:#419DCF;stroke-width:3.2;stroke-linecap:round;stroke-linejoin:round;stroke-miterlimit:10;}
</style>
<g id="Capa_1_1_" class="st0">
</g>
<g id="Capa_3" class="st0">
</g>
<circle class="st1" cx="134.6" cy="229.8" r="48.1"/>
<circle class="st1" cx="364.4" cy="229.8" r="48.1"/>
<g>
	<circle class="st2" cx="364.4" cy="229.8" r="71"/>
	<circle class="st2" cx="364.4" cy="229.8" r="58.6"/>
	<circle class="st3" cx="364.4" cy="229.8" r="17.1"/>
</g>
<g>
	<circle class="st2" cx="134.6" cy="229.8" r="71"/>
	<circle class="st2" cx="134.6" cy="229.8" r="58.6"/>
	<circle class="st3" cx="134.6" cy="229.8" r="17.1"/>
</g>
<path class="st2" d="M278.1,267.2h-23c-2.1,0-3.9-1.7-3.9-3.9v0c0-2.1,1.7-3.9,3.9-3.9h23c2.1,0,3.9,1.7,3.9,3.9v0
	C282,265.5,280.2,267.2,278.1,267.2z"/>
<line class="st3" x1="50.4" y1="300.8" x2="449.6" y2="300.8"/>
<path class="st3" d="M369.3,227.4L322.2,83.9c-0.6-2-2.5-3.3-4.6-3.3h-7.4l-9.1-7.4c-2.1-1.7-5.1-1.4-6.8,0.7
	c-1.7,2.1-1.4,5.1,0.7,6.8l10.5,8.5c0.9,0.7,1.9,1.1,3,1.1h5.7l12.6,38.3H201.1l-7-16.5c-1-2.4-3.8-3.6-6.3-2.6
	c-2.4,1-3.6,3.9-2.6,6.3l7.9,18.7L130,226.2c-1,1.5-1.1,3.4-0.3,5c0.8,1.6,2.5,2.6,4.3,2.6h85.2c2.7,0,4.8-2.2,4.8-4.8
	c0-2.7-2.2-4.8-4.8-4.8h-76.1l54.5-79.2l28.9,68.6c0.8,1.8,2.6,2.9,4.4,2.9c0.6,0,1.3-0.1,1.9-0.4c2.4-1,3.6-3.9,2.6-6.3l-30.2-71.6
	h115.6l-73,75.1c-1.8,1.9-1.8,4.9,0.1,6.8c1.9,1.8,4.9,1.8,6.8-0.1l76.3-78.5l29.2,89c0.7,2,2.5,3.3,4.6,3.3c0.5,0,1-0.1,1.5-0.2
	C368.7,232.7,370.1,229.9,369.3,227.4z"/>
<circle class="st3" cx="237.9" cy="229.4" r="18.2"/>
<circle class="st2" cx="237.9" cy="229.4" r="7.2"/>
<line class="st2" x1="237.9" y1="229.4" x2="264.8" y2="259.1"/>
<path class="st3" d="M215.8,96.4h-46.4c-3.6,0-5.9,4-4,7.1l0,0c4,6.6,11.1,10.7,18.8,10.7h1.1c4.7,0,9.2-1.4,13.1-3.9l3.5-2.3h13.8
	c3.2,0,5.8-2.6,5.8-5.8v0C221.6,99,219,96.4,215.8,96.4z"/>
<path class="st1" d="M199.7,102.4c-0.3,0.1-0.7,0.3-1,0.5l-3.5,2.3c-2.9,1.9-6.3,2.9-9.8,2.9h-1.1c-4.7,0-9.3-2.2-12.3-5.7H199.7"/>
<path class="st3" d="M332.6,110.6h16.8V91.1h-16.8c-5.4,0-9.8,4.4-9.8,9.8v0C322.9,106.3,327.2,110.6,332.6,110.6z"/>
<path class="st1" d="M334.1,106.5h4.6V95.2h-4.6c-3.1,0-5.7,2.5-5.7,5.7v0C328.4,104,331,106.5,334.1,106.5z"/>
<line class="st2" x1="343.4" y1="110.6" x2="343.4" y2="91.1"/>
<path class="st3" d="M300.7,83.5h-26.1c-3.2,0-5.8-2.6-5.8-5.8v0c0-3.2,2.6-5.8,5.8-5.8h26.1V83.5z"/>
<line class="st3" x1="292.4" y1="72" x2="292.4" y2="83.5"/>
<g>
	<line class="st4" x1="372.5" y1="118.6" x2="372.5" y2="124.1"/>
	<line class="st4" x1="372.5" y1="132.2" x2="372.5" y2="137.7"/>
	<line class="st4" x1="382.1" y1="128.1" x2="376.6" y2="128.1"/>
	<line class="st4" x1="368.4" y1="128.1" x2="362.9" y2="128.1"/>
</g>
<g>
	<line class="st4" x1="415.8" y1="49.2" x2="415.8" y2="54.7"/>
	<line class="st4" x1="415.8" y1="62.8" x2="415.8" y2="68.3"/>
	<line class="st4" x1="425.4" y1="58.7" x2="419.9" y2="58.7"/>
	<line class="st4" x1="411.7" y1="58.7" x2="406.2" y2="58.7"/>
</g>
<g>
	<circle class="st1" cx="79.8" cy="51.4" r="2.3"/>
	<circle class="st1" cx="79.8" cy="65.1" r="2.3"/>
	<circle class="st1" cx="79.8" cy="78.8" r="2.3"/>
	<circle class="st1" cx="79.8" cy="92.5" r="2.3"/>
	<circle class="st1" cx="79.8" cy="106.2" r="2.3"/>
	<circle class="st1" cx="79.8" cy="119.9" r="2.3"/>
	<circle class="st1" cx="93.5" cy="51.4" r="2.3"/>
	<circle class="st1" cx="93.5" cy="65.1" r="2.3"/>
	<circle class="st1" cx="93.5" cy="78.8" r="2.3"/>
	<circle class="st1" cx="93.5" cy="92.5" r="2.3"/>
	<circle class="st1" cx="93.5" cy="106.2" r="2.3"/>
	<circle class="st1" cx="93.5" cy="119.9" r="2.3"/>
	<circle class="st1" cx="107.2" cy="51.4" r="2.3"/>
	<circle class="st1" cx="107.2" cy="65.1" r="2.3"/>
	<circle class="st1" cx="107.2" cy="78.8" r="2.3"/>
	<circle class="st1" cx="107.2" cy="92.5" r="2.3"/>
	<circle class="st1" cx="107.2" cy="106.2" r="2.3"/>
	<circle class="st1" cx="107.2" cy="119.9" r="2.3"/>
	<circle class="st1" cx="120.9" cy="51.4" r="2.3"/>
	<circle class="st1" cx="120.9" cy="65.1" r="2.3"/>
	<circle class="st1" cx="120.9" cy="78.8" r="2.3"/>
	<circle class="st1" cx="120.9" cy="92.5" r="2.3"/>
	<circle class="st1" cx="120.9" cy="106.2" r="2.3"/>
	<circle class="st1" cx="120.9" cy="119.9" r="2.3"/>
	<circle class="st1" cx="134.4" cy="51.4" r="2.3"/>
	<circle class="st1" cx="134.4" cy="65.1" r="2.3"/>
	<circle class="st1" cx="134.4" cy="78.8" r="2.3"/>
	<circle class="st1" cx="134.4" cy="92.5" r="2.3"/>
	<circle class="st1" cx="134.4" cy="106.2" r="2.3"/>
	<circle class="st1" cx="134.4" cy="119.9" r="2.3"/>
	<circle class="st1" cx="148.1" cy="51.4" r="2.3"/>
	<circle class="st1" cx="148.1" cy="65.1" r="2.3"/>
	<circle class="st1" cx="148.1" cy="78.8" r="2.3"/>
	<circle class="st1" cx="148.1" cy="92.5" r="2.3"/>
	<circle class="st1" cx="148.1" cy="106.2" r="2.3"/>
	<circle class="st1" cx="148.1" cy="119.9" r="2.3"/>
	<circle class="st1" cx="161.8" cy="51.4" r="2.3"/>
	<circle class="st1" cx="161.8" cy="65.1" r="2.3"/>
	<circle class="st1" cx="161.8" cy="78.8" r="2.3"/>
	<circle class="st1" cx="161.8" cy="92.5" r="2.3"/>
	<circle class="st1" cx="161.8" cy="106.2" r="2.3"/>
	<circle class="st1" cx="161.8" cy="119.9" r="2.3"/>
	<circle class="st1" cx="175.5" cy="51.4" r="2.3"/>
	<circle class="st1" cx="175.5" cy="65.1" r="2.3"/>
	<circle class="st1" cx="175.5" cy="78.8" r="2.3"/>
	<circle class="st1" cx="175.5" cy="92.5" r="2.3"/>
	<circle class="st1" cx="175.5" cy="106.2" r="2.3"/>
	<circle class="st1" cx="175.5" cy="119.9" r="2.3"/>
</g>
</svg>
