<?xml version="1.0" encoding="utf-8"?>
<!-- Generator: Adobe Illustrator 21.1.0, SVG Export Plug-In . SVG Version: 6.00 Build 0)  -->
<svg version="1.1" xmlns="http://www.w3.org/2000/svg" xmlns:xlink="http://www.w3.org/1999/xlink" x="0px" y="0px"
	 viewBox="0 0 500 350" style="enable-background:new 0 0 500 350;" xml:space="preserve">
<style type="text/css">
	.st0{display:none;}
	.st1{display:inline;}
	.st2{fill:#FFFFFF;stroke:#575757;stroke-width:0.8;stroke-linecap:round;stroke-linejoin:round;stroke-miterlimit:10;}
	.st3{fill:#3FA8DF;}
	.st4{fill:none;stroke:#575757;stroke-width:0.8;stroke-linecap:round;stroke-linejoin:round;stroke-miterlimit:10;}
	
		.st5{display:inline;fill:#FFFFFF;stroke:#575757;stroke-width:0.8;stroke-linecap:round;stroke-linejoin:round;stroke-miterlimit:10;}
	.st6{display:inline;fill:#3FA8DF;}
	.st7{display:inline;fill:none;stroke:#575757;stroke-width:0.8;stroke-linecap:round;stroke-linejoin:round;stroke-miterlimit:10;}
	.st8{fill:none;stroke:#419DCF;stroke-width:0.8;stroke-linecap:round;stroke-linejoin:round;stroke-miterlimit:10;}
	.st9{fill:#575756;}
	.st10{display:inline;fill:#FFFFFF;}
	
		.st11{display:inline;fill:none;stroke:#419DCF;stroke-width:0.8;stroke-linecap:round;stroke-linejoin:round;stroke-miterlimit:10;}
	.st12{display:inline;fill:#0082C7;}
	.st13{display:inline;fill:#005EA9;}
	.st14{display:inline;fill:#00468D;}
	.st15{display:inline;fill:#43474B;}
	.st16{display:inline;fill:#3C4044;}
	.st17{fill:#FFFFFF;}
	.st18{fill:#FFFFFF;stroke:#575757;stroke-width:3.2;stroke-linecap:round;stroke-linejoin:round;stroke-miterlimit:10;}
	.st19{fill:none;stroke:#575757;stroke-width:3.2;stroke-linecap:round;stroke-linejoin:round;stroke-miterlimit:10;}
	.st20{fill:none;stroke:#419DCF;stroke-width:3.2;stroke-linecap:round;stroke-linejoin:round;stroke-miterlimit:10;}
	.st21{display:inline;fill:none;stroke:#FF7BEB;stroke-width:0.5627;stroke-miterlimit:10;}
</style>
<g id="Capa_1" class="st0">
</g>
<g id="Capa_4">
	<g>
		<path class="st18" d="M382.8,114.4H133c-9.4,0-17,7.6-17,17v136.6c0,9.4,7.6,17,17,17h249.7c9.4,0,17-7.6,17-17V131.5
			C399.8,122.1,392.2,114.4,382.8,114.4z"/>
		<path class="st18" d="M310.8,114.4H205V84.3c0-8.5,6.9-15.5,15.5-15.5h75c8.5,0,15.5,6.9,15.5,15.5V114.4z"/>
		<g>
			<path class="st3" d="M303.9,108.2h-8V85.4c0-0.9-0.8-1.7-1.7-1.7h-72.6c-0.9,0-1.7,0.8-1.7,1.7v22.8h-8V85.4
				c0-5.4,4.4-9.7,9.7-9.7h72.6c5.4,0,9.7,4.4,9.7,9.7V108.2z"/>
		</g>
		<path class="st18" d="M289,114.4h-62.3V95c0-2.4,1.9-4.3,4.3-4.3h53.6c2.4,0,4.3,1.9,4.3,4.3V114.4z"/>
		<path class="st18" d="M272.5,114.4h-29.2v-8.7c0-0.9,0.7-1.6,1.6-1.6h26c0.9,0,1.6,0.7,1.6,1.6V114.4z"/>
		<g>
			<path class="st18" d="M167,300.8h-18.6c-3.4,0-6.2-2.8-6.2-6.2v-9.5h30.9v9.5C173.1,298,170.4,300.8,167,300.8z"/>
			<line class="st18" x1="167" y1="292.1" x2="148.4" y2="292.1"/>
			<path class="st18" d="M367.4,300.8h-18.6c-3.4,0-6.2-2.8-6.2-6.2v-9.5h30.9v9.5C373.6,298,370.8,300.8,367.4,300.8z"/>
			<line class="st18" x1="367.4" y1="292.1" x2="348.8" y2="292.1"/>
		</g>
		<g>
			<path class="st18" d="M330.6,102.9h7.2c2.5,0,4.5,2,4.5,4.5v7h-16.2v-7C326.1,104.9,328.1,102.9,330.6,102.9z"/>
			<path class="st18" d="M178,102.9h7.2c2.5,0,4.5,2,4.5,4.5v7h-16.2v-7C173.5,104.9,175.5,102.9,178,102.9z"/>
		</g>
		<path class="st3" d="M377.2,127.5H138.6c-5.2,0-9.5,4.2-9.5,9.5v125.5c0,5.2,4.2,9.5,9.5,9.5h238.6c5.2,0,9.5-4.2,9.5-9.5V137
			C386.7,131.8,382.4,127.5,377.2,127.5z"/>
		<circle class="st18" cx="257.9" cy="199.8" r="59.1"/>
		<circle class="st18" cx="257.9" cy="199.8" r="48.4"/>
		<path class="st3" d="M289.7,187.8h-19.8V168c0-1.7-1.4-3.2-3.2-3.2H249c-1.7,0-3.2,1.4-3.2,3.2v19.8h-19.8c-1.7,0-3.2,1.4-3.2,3.2
			v17.7c0,1.7,1.4,3.2,3.2,3.2h19.8v19.8c0,1.7,1.4,3.2,3.2,3.2h17.7c1.7,0,3.2-1.4,3.2-3.2v-19.8h19.8c1.7,0,3.2-1.4,3.2-3.2v-17.7
			C292.8,189.2,291.4,187.8,289.7,187.8z"/>
		<g>
			<line class="st20" x1="432.1" y1="49.2" x2="432.1" y2="54.7"/>
			<line class="st20" x1="432.1" y1="62.9" x2="432.1" y2="68.4"/>
			<line class="st20" x1="441.7" y1="58.8" x2="436.2" y2="58.8"/>
			<line class="st20" x1="428" y1="58.8" x2="422.5" y2="58.8"/>
		</g>
		<line class="st20" x1="86.3" y1="208.9" x2="86.3" y2="214.5"/>
		<line class="st20" x1="86.3" y1="222.6" x2="86.3" y2="228.1"/>
		<line class="st20" x1="95.9" y1="218.5" x2="90.4" y2="218.5"/>
		<line class="st20" x1="82.2" y1="218.5" x2="76.7" y2="218.5"/>
		<path class="st18" d="M172.6,237.2h-26c-2.6,0-4.7,2.1-4.7,4.7v12.3c0,2.6,2.1,4.7,4.7,4.7h26c2.6,0,4.7-2.1,4.7-4.7v-12.3
			C177.2,239.3,175.2,237.2,172.6,237.2z"/>
		<line class="st19" x1="337.1" y1="153.2" x2="368.5" y2="153.2"/>
		<line class="st19" x1="337.1" y1="161.2" x2="368.5" y2="161.2"/>
		<g>
			<circle class="st3" cx="60.6" cy="51.5" r="2.3"/>
			<circle class="st3" cx="60.6" cy="65.2" r="2.3"/>
			<circle class="st3" cx="60.6" cy="78.9" r="2.3"/>
			<circle class="st3" cx="60.6" cy="92.6" r="2.3"/>
			<circle class="st3" cx="60.6" cy="106.3" r="2.3"/>
			<circle class="st3" cx="60.6" cy="120" r="2.3"/>
			<circle class="st3" cx="74.3" cy="51.5" r="2.3"/>
			<circle class="st3" cx="74.3" cy="65.2" r="2.3"/>
			<circle class="st3" cx="74.3" cy="78.9" r="2.3"/>
			<circle class="st3" cx="74.3" cy="92.6" r="2.3"/>
			<circle class="st3" cx="74.3" cy="106.3" r="2.3"/>
			<circle class="st3" cx="74.3" cy="120" r="2.3"/>
			<circle class="st3" cx="88" cy="51.5" r="2.3"/>
			<circle class="st3" cx="88" cy="65.2" r="2.3"/>
			<circle class="st3" cx="88" cy="78.9" r="2.3"/>
			<circle class="st3" cx="88" cy="92.6" r="2.3"/>
			<circle class="st3" cx="88" cy="106.3" r="2.3"/>
			<circle class="st3" cx="88" cy="120" r="2.3"/>
			<circle class="st3" cx="101.7" cy="51.5" r="2.3"/>
			<circle class="st3" cx="101.7" cy="65.2" r="2.3"/>
			<circle class="st3" cx="101.7" cy="78.9" r="2.3"/>
			<circle class="st3" cx="101.7" cy="92.6" r="2.3"/>
			<circle class="st3" cx="101.7" cy="106.3" r="2.3"/>
			<circle class="st3" cx="101.7" cy="120" r="2.3"/>
			<circle class="st3" cx="115.3" cy="51.5" r="2.3"/>
			<circle class="st3" cx="115.3" cy="65.2" r="2.3"/>
			<circle class="st3" cx="115.3" cy="78.9" r="2.3"/>
			<circle class="st3" cx="115.3" cy="92.6" r="2.3"/>
			<circle class="st3" cx="115.3" cy="106.3" r="2.3"/>
			<circle class="st3" cx="115.3" cy="120" r="2.3"/>
			<circle class="st3" cx="129" cy="51.5" r="2.3"/>
			<circle class="st3" cx="129" cy="65.2" r="2.3"/>
			<circle class="st3" cx="129" cy="78.9" r="2.3"/>
			<circle class="st3" cx="129" cy="92.6" r="2.3"/>
			<circle class="st3" cx="129" cy="106.3" r="2.3"/>
			<circle class="st3" cx="129" cy="120" r="2.3"/>
			<circle class="st3" cx="142.7" cy="51.5" r="2.3"/>
			<circle class="st3" cx="142.7" cy="65.2" r="2.3"/>
			<circle class="st3" cx="142.7" cy="78.9" r="2.3"/>
			<circle class="st3" cx="142.7" cy="92.6" r="2.3"/>
			<circle class="st3" cx="142.7" cy="106.3" r="2.3"/>
			<circle class="st3" cx="142.7" cy="120" r="2.3"/>
			<circle class="st3" cx="156.4" cy="51.5" r="2.3"/>
			<circle class="st3" cx="156.4" cy="65.2" r="2.3"/>
			<circle class="st3" cx="156.4" cy="78.9" r="2.3"/>
			<circle class="st3" cx="156.4" cy="92.6" r="2.3"/>
			<circle class="st3" cx="156.4" cy="106.3" r="2.3"/>
			<circle class="st3" cx="156.4" cy="120" r="2.3"/>
		</g>
	</g>
</g>
<g id="Capa_3" class="st0">
</g>
<g id="Capa_2" class="st0">
</g>
</svg>
