<?xml version="1.0" encoding="utf-8"?>
<!-- Generator: Adobe Illustrator 21.1.0, SVG Export Plug-In . SVG Version: 6.00 Build 0)  -->
<svg version="1.1" xmlns="http://www.w3.org/2000/svg" xmlns:xlink="http://www.w3.org/1999/xlink" x="0px" y="0px"
	 viewBox="0 0 500 350" style="enable-background:new 0 0 500 350;" xml:space="preserve">
<style type="text/css">
	.st0{display:none;}
	.st1{display:inline;}
	.st2{fill:#FFFFFF;stroke:#575757;stroke-width:0.8;stroke-linecap:round;stroke-linejoin:round;stroke-miterlimit:10;}
	.st3{fill:#3FA8DF;}
	.st4{fill:none;stroke:#575757;stroke-width:0.8;stroke-linecap:round;stroke-linejoin:round;stroke-miterlimit:10;}
	
		.st5{display:inline;fill:#FFFFFF;stroke:#575757;stroke-width:0.8;stroke-linecap:round;stroke-linejoin:round;stroke-miterlimit:10;}
	.st6{display:inline;fill:#3FA8DF;}
	.st7{display:inline;fill:none;stroke:#575757;stroke-width:0.8;stroke-linecap:round;stroke-linejoin:round;stroke-miterlimit:10;}
	.st8{fill:none;stroke:#419DCF;stroke-width:0.8;stroke-linecap:round;stroke-linejoin:round;stroke-miterlimit:10;}
	.st9{fill:#575756;}
	.st10{display:inline;fill:#FFFFFF;}
	
		.st11{display:inline;fill:none;stroke:#419DCF;stroke-width:0.8;stroke-linecap:round;stroke-linejoin:round;stroke-miterlimit:10;}
	.st12{display:inline;fill:#0082C7;}
	.st13{display:inline;fill:#005EA9;}
	.st14{display:inline;fill:#00468D;}
	.st15{display:inline;fill:#43474B;}
	.st16{display:inline;fill:#3C4044;}
	.st17{fill:#FFFFFF;}
	.st18{fill:#FFFFFF;stroke:#575757;stroke-width:3.2;stroke-linecap:round;stroke-linejoin:round;stroke-miterlimit:10;}
	.st19{fill:none;stroke:#575757;stroke-width:3.2;stroke-linecap:round;stroke-linejoin:round;stroke-miterlimit:10;}
	.st20{fill:none;stroke:#419DCF;stroke-width:3.2;stroke-linecap:round;stroke-linejoin:round;stroke-miterlimit:10;}
	.st21{display:inline;fill:none;stroke:#FF7BEB;stroke-width:0.5627;stroke-miterlimit:10;}
</style>
<g id="Capa_1" class="st0">
</g>
<g id="Capa_4">
	<g>
		<polyline class="st18" points="201.4,122.4 201.4,300.8 354.9,300.8 354.9,122.4 		"/>
		<path class="st18" d="M121.7,300.8c0.4-2,0.7-4.1,0.7-6.2c0-15.8-12.8-28.6-28.6-28.6s-28.6,12.8-28.6,28.6c0,2.1,0.3,4.2,0.7,6.2
			H121.7z"/>
		<path class="st3" d="M112.7,300.8c0.6-2,1.1-4,1.1-6.2c0-11-8.9-20-20-20s-20,8.9-20,20c0,2.2,0.4,4.2,1.1,6.2H112.7z"/>
		<rect x="210.7" y="86.3" class="st18" width="20.5" height="26.9"/>
		<rect x="207.1" y="76.3" class="st18" width="27.7" height="10"/>
		<circle class="st18" cx="408.7" cy="212.7" r="32.3"/>
		<circle class="st3" cx="408.7" cy="212.7" r="22.6"/>
		<line class="st19" x1="408.7" y1="246.3" x2="408.7" y2="300.1"/>
		<polyline class="st18" points="201.4,205.9 201.4,300.8 102.1,300.8 102.1,205.9 		"/>
		<g>
			<path class="st18" d="M207.5,222.1l-53-35c-2.1-1.4-4.9-1.4-7.1,0l-49.3,32.5c-2,1.3-4.8,0.8-6.1-1.3l-3.4-5.2
				c-1.3-2-0.8-4.8,1.3-6.1l58-38.2c1.9-1.3,4.4-1.3,6.4,0l61.7,40.6L207.5,222.1z"/>
		</g>
		<path class="st18" d="M269.5,223.6h-37.4c-2.5,0-4.6,2-4.6,4.6v72.6h46.6v-72.6C274.1,225.7,272,223.6,269.5,223.6z"/>
		<path class="st3" d="M264.4,231.3h-26.8c-1.8,0-3.3,1.5-3.3,3.3v58.9h33.3v-58.9C267.6,232.8,266.2,231.3,264.4,231.3z"/>
		<path class="st18" d="M326.6,223.6h-30c-1.3,0-2.3,1-2.3,2.3v42.6c0,1.3,1,2.3,2.3,2.3h30c1.3,0,2.3-1,2.3-2.3v-42.6
			C328.8,224.7,327.8,223.6,326.6,223.6z"/>
		<line class="st18" x1="328.8" y1="236" x2="294.3" y2="236"/>
		<g>
			<path class="st18" d="M259.8,144.7h-30c-1.3,0-2.3,1-2.3,2.3v51.8c0,1.3,1,2.3,2.3,2.3h30c1.3,0,2.3-1,2.3-2.3V147
				C262,145.7,261,144.7,259.8,144.7z"/>
			<path class="st3" d="M254.4,151.1h-19.3c-0.8,0-1.5,0.7-1.5,1.5v16.5h22.2v-16.5C255.9,151.8,255.2,151.1,254.4,151.1z"/>
			<line class="st18" x1="262" y1="175.4" x2="227.5" y2="175.4"/>
		</g>
		<g>
			<path class="st18" d="M326.6,144.7h-30c-1.3,0-2.3,1-2.3,2.3v51.8c0,1.3,1,2.3,2.3,2.3h30c1.3,0,2.3-1,2.3-2.3V147
				C328.8,145.7,327.8,144.7,326.6,144.7z"/>
			<path class="st3" d="M321.2,151.1h-19.3c-0.8,0-1.5,0.7-1.5,1.5v16.5h22.2v-16.5C322.7,151.8,322,151.1,321.2,151.1z"/>
			<line class="st18" x1="328.8" y1="175.4" x2="294.3" y2="175.4"/>
		</g>
		<path class="st18" d="M358.1,145.8L285.6,98c-4.5-3-10.4-3-14.9,0l-72.5,47.8c-3.2,2.1-7.5,1.2-9.6-2l-4.9-7.5
			c-2.1-3.2-1.2-7.5,2-9.6l83.5-55c5.5-3.6,12.7-3.6,18.2,0l83.5,55c3.2,2.1,4.1,6.4,2,9.6l-4.9,7.5
			C365.7,147.1,361.3,147.9,358.1,145.8z"/>
		<path class="st18" d="M393.8,300.8c0.5-2.4,0.8-4.9,0.8-7.4c0-18.9-15.3-34.2-34.2-34.2s-34.2,15.3-34.2,34.2c0,2.6,0.3,5,0.8,7.4
			H393.8z"/>
		<line class="st19" x1="239.3" y1="260.7" x2="239.3" y2="269.7"/>
		<g>
			<line class="st20" x1="402.2" y1="141.1" x2="402.2" y2="146.6"/>
			<line class="st20" x1="402.2" y1="154.7" x2="402.2" y2="160.2"/>
			<line class="st20" x1="411.8" y1="150.7" x2="406.3" y2="150.7"/>
			<line class="st20" x1="398.2" y1="150.7" x2="392.7" y2="150.7"/>
		</g>
		<g>
			<line class="st20" x1="60" y1="240.4" x2="60" y2="245.9"/>
			<line class="st20" x1="60" y1="254.1" x2="60" y2="259.6"/>
			<line class="st20" x1="69.6" y1="250" x2="64.1" y2="250"/>
			<line class="st20" x1="55.9" y1="250" x2="50.4" y2="250"/>
		</g>
		<g>
			<path class="st3" d="M357.1,137.2l-72.9-48.1c-3.6-2.4-8.4-2.4-12,0l-72.9,48.1c-1,0.6-2.3,0.4-2.9-0.6l-2.7-4.1
				c-0.6-1-0.4-2.3,0.6-2.9l77.3-51c4-2.6,9.2-2.6,13.2,0l77.3,51c1,0.6,1.3,2,0.6,2.9l-2.7,4.1
				C359.4,137.6,358.1,137.9,357.1,137.2z"/>
		</g>
		<path class="st18" d="M121.8,300.8v-72.6c0-2.5,2-4.6,4.6-4.6h50.9c2.5,0,4.6,2,4.6,4.6v72.6"/>
		<path class="st3" d="M128.8,300.8v-65.6c0-2.3,1.6-4.1,3.5-4.1h38.9c1.9,0,3.5,1.8,3.5,4.1v65.6"/>
		<line class="st19" x1="121.8" y1="236.5" x2="181.7" y2="236.5"/>
		<line class="st19" x1="121.8" y1="249.4" x2="181.7" y2="249.4"/>
		<line class="st19" x1="121.8" y1="262.2" x2="181.7" y2="262.2"/>
		<line class="st19" x1="121.8" y1="275.1" x2="181.7" y2="275.1"/>
		<line class="st19" x1="121.8" y1="287.9" x2="181.7" y2="287.9"/>
		<line class="st18" x1="50.4" y1="300.8" x2="449.6" y2="300.8"/>
		<path class="st3" d="M360.4,269c-13.4,0-24.3,10.9-24.3,24.3c0,2.6,0.4,5.1,1.2,7.4h46.3c0.8-2.3,1.2-4.8,1.2-7.4
			C384.8,279.9,373.9,269,360.4,269z"/>
		<path class="st19" d="M153.3,116.1c5.8,0,10.6-4.7,10.6-10.6c0-5.8-4.7-10.6-10.6-10.6c-2,0-3.9,0.6-5.5,1.6c0-0.1,0-0.2,0-0.3
			c0-6.7-5.4-12.1-12.1-12.1c-6.3,0-11.4,4.8-12,11c-0.4,0-0.7-0.1-1.1-0.1c-5.8,0-10.6,4.7-10.6,10.6c0,5.8,4.7,10.6,10.6,10.6
			H153.3z"/>
		<g>
			<circle class="st3" cx="52.7" cy="109.9" r="2.3"/>
			<circle class="st3" cx="52.7" cy="123.6" r="2.3"/>
			<circle class="st3" cx="52.7" cy="137.3" r="2.3"/>
			<circle class="st3" cx="52.7" cy="151" r="2.3"/>
			<circle class="st3" cx="52.7" cy="164.7" r="2.3"/>
			<circle class="st3" cx="52.7" cy="178.4" r="2.3"/>
			<circle class="st3" cx="66.4" cy="109.9" r="2.3"/>
			<circle class="st3" cx="66.4" cy="123.6" r="2.3"/>
			<circle class="st3" cx="66.4" cy="137.3" r="2.3"/>
			<circle class="st3" cx="66.4" cy="151" r="2.3"/>
			<circle class="st3" cx="66.4" cy="164.7" r="2.3"/>
			<circle class="st3" cx="66.4" cy="178.4" r="2.3"/>
			<circle class="st3" cx="80.1" cy="109.9" r="2.3"/>
			<circle class="st3" cx="80.1" cy="123.6" r="2.3"/>
			<circle class="st3" cx="80.1" cy="137.3" r="2.3"/>
			<circle class="st3" cx="80.1" cy="151" r="2.3"/>
			<circle class="st3" cx="80.1" cy="164.7" r="2.3"/>
			<circle class="st3" cx="80.1" cy="178.4" r="2.3"/>
			<circle class="st3" cx="93.8" cy="109.9" r="2.3"/>
			<circle class="st3" cx="93.8" cy="123.6" r="2.3"/>
			<circle class="st3" cx="93.8" cy="137.3" r="2.3"/>
			<circle class="st3" cx="93.8" cy="151" r="2.3"/>
			<circle class="st3" cx="93.8" cy="164.7" r="2.3"/>
			<circle class="st3" cx="93.8" cy="178.4" r="2.3"/>
			<circle class="st3" cx="107.4" cy="109.9" r="2.3"/>
			<circle class="st3" cx="107.4" cy="123.6" r="2.3"/>
			<circle class="st3" cx="107.4" cy="137.3" r="2.3"/>
			<circle class="st3" cx="107.4" cy="151" r="2.3"/>
			<circle class="st3" cx="107.4" cy="164.7" r="2.3"/>
			<circle class="st3" cx="107.4" cy="178.4" r="2.3"/>
			<circle class="st3" cx="121.1" cy="109.9" r="2.3"/>
			<circle class="st3" cx="121.1" cy="123.6" r="2.3"/>
			<circle class="st3" cx="121.1" cy="137.3" r="2.3"/>
			<circle class="st3" cx="121.1" cy="151" r="2.3"/>
			<circle class="st3" cx="121.1" cy="164.7" r="2.3"/>
			<circle class="st3" cx="121.1" cy="178.4" r="2.3"/>
			<circle class="st3" cx="134.7" cy="109.9" r="2.3"/>
			<circle class="st3" cx="134.7" cy="123.6" r="2.3"/>
			<circle class="st3" cx="134.7" cy="137.3" r="2.3"/>
			<circle class="st3" cx="134.7" cy="151" r="2.3"/>
			<circle class="st3" cx="134.7" cy="164.7" r="2.3"/>
			<circle class="st3" cx="134.7" cy="178.4" r="2.3"/>
			<circle class="st3" cx="148.4" cy="109.9" r="2.3"/>
			<circle class="st3" cx="148.4" cy="123.6" r="2.3"/>
			<circle class="st3" cx="148.4" cy="137.3" r="2.3"/>
			<circle class="st3" cx="148.4" cy="151" r="2.3"/>
			<circle class="st3" cx="148.4" cy="164.7" r="2.3"/>
			<circle class="st3" cx="148.4" cy="178.4" r="2.3"/>
		</g>
	</g>
</g>
<g id="Capa_3" class="st0">
</g>
<g id="Capa_2" class="st0">
</g>
</svg>
