<?xml version="1.0" encoding="utf-8"?>
<!-- Generator: Adobe Illustrator 21.1.0, SVG Export Plug-In . SVG Version: 6.00 Build 0)  -->
<svg version="1.1" xmlns="http://www.w3.org/2000/svg" xmlns:xlink="http://www.w3.org/1999/xlink" x="0px" y="0px"
	 viewBox="0 0 500 350" style="enable-background:new 0 0 500 350;" xml:space="preserve">
<style type="text/css">
	.st0{display:none;}
	.st1{display:inline;}
	.st2{fill:#FFFFFF;stroke:#575757;stroke-width:0.8;stroke-linecap:round;stroke-linejoin:round;stroke-miterlimit:10;}
	.st3{fill:#3FA8DF;}
	.st4{fill:none;stroke:#575757;stroke-width:0.8;stroke-linecap:round;stroke-linejoin:round;stroke-miterlimit:10;}
	
		.st5{display:inline;fill:#FFFFFF;stroke:#575757;stroke-width:0.8;stroke-linecap:round;stroke-linejoin:round;stroke-miterlimit:10;}
	.st6{display:inline;fill:#3FA8DF;}
	.st7{display:inline;fill:none;stroke:#575757;stroke-width:0.8;stroke-linecap:round;stroke-linejoin:round;stroke-miterlimit:10;}
	.st8{fill:none;stroke:#419DCF;stroke-width:0.8;stroke-linecap:round;stroke-linejoin:round;stroke-miterlimit:10;}
	.st9{fill:#575756;}
	.st10{display:inline;fill:#FFFFFF;}
	
		.st11{display:inline;fill:none;stroke:#419DCF;stroke-width:0.8;stroke-linecap:round;stroke-linejoin:round;stroke-miterlimit:10;}
	.st12{display:inline;fill:#0082C7;}
	.st13{display:inline;fill:#005EA9;}
	.st14{display:inline;fill:#00468D;}
	.st15{display:inline;fill:#43474B;}
	.st16{display:inline;fill:#3C4044;}
	.st17{fill:#FFFFFF;}
	.st18{fill:#FFFFFF;stroke:#575757;stroke-width:3.2;stroke-linecap:round;stroke-linejoin:round;stroke-miterlimit:10;}
	.st19{fill:none;stroke:#575757;stroke-width:3.2;stroke-linecap:round;stroke-linejoin:round;stroke-miterlimit:10;}
	.st20{fill:none;stroke:#419DCF;stroke-width:3.2;stroke-linecap:round;stroke-linejoin:round;stroke-miterlimit:10;}
	.st21{display:inline;fill:none;stroke:#FF7BEB;stroke-width:0.5627;stroke-miterlimit:10;}
</style>
<g id="Capa_1" class="st0">
</g>
<g id="Capa_4">
	<g>
		<path class="st3" d="M101,293.1c10.6,0,15.7-2.4,21.5-5.2c6.6-3.2,14.1-6.8,28.4-6.8c14.3,0,21.8,3.6,28.4,6.8
			c5.8,2.8,10.8,5.2,21.5,5.2c10.6,0,15.7-2.4,21.5-5.2c6.6-3.2,14.1-6.8,28.4-6.8c14.3,0,21.8,3.6,28.4,6.8
			c5.8,2.8,10.8,5.2,21.5,5.2c10.6,0,15.7-2.4,21.5-5.2c6.6-3.2,14.1-6.8,28.4-6.8c9.4,0,15.9,1.6,21.1,3.5
			c13.8-5.7,26.2-15,35.4-27.2l18.7-24.8l-243,17.9c-13.8,1-26.6,7.8-35.2,18.7l-4.9,6.2c-1.9,2.4-4.8,3.8-7.9,3.8h-27.1l-9.5,13.8
			C99.1,293.1,100,293.1,101,293.1z"/>
		<path class="st19" d="M80.6,301.1h258.6c29.7,0,57.7-13.9,75.6-37.6l32.1-42.4l-265,19.5c-16.6,1.2-32,9.4-42.3,22.5l-4.9,6.2
			h-32.3L80.6,301.1z"/>
		<path class="st19" d="M320.9,180.1H153l8-12.3c3.4-5.3,9.3-8.5,15.7-8.5h123.4C311.6,159.3,320.9,168.6,320.9,180.1L320.9,180.1z"
			/>
		<path class="st3" d="M165.9,173.1H312c-2.4-4.1-6.9-6.8-11.9-6.8H176.6c-4,0-7.6,2-9.8,5.3L165.9,173.1z"/>
		<path class="st19" d="M228.8,180.2v16.6c0,8.8,7.2,16,16,16H389c7,0,13.7,3.3,17.9,8.8l1.7,2.2"/>
		<line class="st19" x1="186.6" y1="240.3" x2="208.1" y2="180.4"/>
		<circle class="st18" cx="385.6" cy="252.9" r="6.9"/>
		<rect x="185.6" y="260.3" class="st18" width="31" height="11.6"/>
		<rect x="225.6" y="260.3" class="st18" width="57.2" height="11.6"/>
		<line class="st19" x1="254.2" y1="260.3" x2="254.2" y2="271.9"/>
		<line class="st19" x1="320.9" y1="180.1" x2="366.4" y2="212.8"/>
		<polygon class="st19" points="255.1,158.5 245.3,158.5 249.6,141.4 255.1,141.4 		"/>
		<path class="st19" d="M272.8,141.4h-39.2c-2.3,0-4.2-1.9-4.2-4.2v0c0-2.3,1.9-4.2,4.2-4.2h39.2c2.3,0,4.2,1.9,4.2,4.2v0
			C277,139.5,275.1,141.4,272.8,141.4z"/>
		<polygon class="st19" points="292.8,212.8 275.3,212.8 275.3,180.1 288.8,180.1 		"/>
		<line class="st19" x1="187.9" y1="159.2" x2="187.9" y2="115.9"/>
		<line class="st19" x1="199.3" y1="159.2" x2="199.3" y2="75.2"/>
		<polygon class="st19" points="171.7,124.5 187.9,115.9 187.9,133.2 		"/>
		<line class="st19" x1="206.8" y1="212.6" x2="222.7" y2="212.6"/>
		<line class="st19" x1="206.8" y1="225.3" x2="222.7" y2="225.3"/>
		<g>
			<path class="st19" d="M155,249h-34.8c-5.9,0-10.7,4.8-10.7,10.7v9.5"/>
			<line class="st19" x1="123.5" y1="249.1" x2="123.5" y2="269.1"/>
			<line class="st19" x1="137.5" y1="249.1" x2="137.5" y2="265.2"/>
		</g>
		<path class="st18" d="M177.8,215.9c-9.4,0-17,7.6-17,17c0,9.4,7.6,17,17,17s17-7.6,17-17C194.8,223.5,187.2,215.9,177.8,215.9z
			 M177.8,241c-4.5,0-8.1-3.6-8.1-8.1c0-4.5,3.6-8.1,8.1-8.1c4.5,0,8.1,3.6,8.1,8.1C185.9,237.4,182.3,241,177.8,241z"/>
		<g>
			<path class="st18" d="M338.2,100.1c11.6,0,21,9.4,21,21"/>
			<path class="st18" d="M359.2,121.1c0-11.6,9.4-21,21-21"/>
		</g>
		<g>
			<path class="st18" d="M227.1,49.2c7.2,0,13,5.8,13,13"/>
			<path class="st18" d="M240.2,62.2c0-7.2,5.8-13,13-13"/>
		</g>
		<g>
			<line class="st20" x1="89.5" y1="114" x2="89.5" y2="119.5"/>
			<line class="st20" x1="89.5" y1="127.7" x2="89.5" y2="133.2"/>
			<line class="st20" x1="99.1" y1="123.6" x2="93.6" y2="123.6"/>
			<line class="st20" x1="85.5" y1="123.6" x2="80" y2="123.6"/>
		</g>
		<g>
			<line class="st20" x1="413.3" y1="167.8" x2="413.3" y2="173.3"/>
			<line class="st20" x1="413.3" y1="181.4" x2="413.3" y2="186.9"/>
			<line class="st20" x1="422.8" y1="177.3" x2="417.3" y2="177.3"/>
			<line class="st20" x1="409.2" y1="177.3" x2="403.7" y2="177.3"/>
		</g>
		<path class="st17" d="M51.1,289.1c24.9,0,24.9,12,49.9,12c24.9,0,24.9-12,49.9-12c24.9,0,24.9,12,49.9,12c24.9,0,24.9-12,49.9-12
			c25,0,25,12,49.9,12c24.9,0,24.9-12,49.9-12c25,0,25,12,49.9,12s25-12,49.9-12v32.4H49.7L51.1,289.1z"/>
		<path class="st19" d="M51.1,289.1c24.9,0,24.9,12,49.9,12c24.9,0,24.9-12,49.9-12c24.9,0,24.9,12,49.9,12c24.9,0,24.9-12,49.9-12
			c25,0,25,12,49.9,12c24.9,0,24.9-12,49.9-12c25,0,25,12,49.9,12s25-12,49.9-12"/>
		<line class="st19" x1="192" y1="75.2" x2="206.6" y2="75.2"/>
		<line class="st19" x1="252.5" y1="132" x2="252.5" y2="126.3"/>
		<g>
			<circle class="st3" cx="352.3" cy="51.5" r="2.3"/>
			<circle class="st3" cx="352.3" cy="65.2" r="2.3"/>
			<circle class="st3" cx="352.3" cy="78.9" r="2.3"/>
			<circle class="st3" cx="352.3" cy="92.6" r="2.3"/>
			<circle class="st3" cx="352.3" cy="106.3" r="2.3"/>
			<circle class="st3" cx="352.3" cy="120" r="2.3"/>
			<circle class="st3" cx="366" cy="51.5" r="2.3"/>
			<circle class="st3" cx="366" cy="65.2" r="2.3"/>
			<circle class="st3" cx="366" cy="78.9" r="2.3"/>
			<circle class="st3" cx="366" cy="92.6" r="2.3"/>
			<circle class="st3" cx="366" cy="106.3" r="2.3"/>
			<circle class="st3" cx="366" cy="120" r="2.3"/>
			<circle class="st3" cx="379.7" cy="51.5" r="2.3"/>
			<circle class="st3" cx="379.7" cy="65.2" r="2.3"/>
			<circle class="st3" cx="379.7" cy="78.9" r="2.3"/>
			<circle class="st3" cx="379.7" cy="92.6" r="2.3"/>
			<circle class="st3" cx="379.7" cy="106.3" r="2.3"/>
			<circle class="st3" cx="379.7" cy="120" r="2.3"/>
			<circle class="st3" cx="393.4" cy="51.5" r="2.3"/>
			<circle class="st3" cx="393.4" cy="65.2" r="2.3"/>
			<circle class="st3" cx="393.4" cy="78.9" r="2.3"/>
			<circle class="st3" cx="393.4" cy="92.6" r="2.3"/>
			<circle class="st3" cx="393.4" cy="106.3" r="2.3"/>
			<circle class="st3" cx="393.4" cy="120" r="2.3"/>
			<circle class="st3" cx="406.9" cy="51.5" r="2.3"/>
			<circle class="st3" cx="406.9" cy="65.2" r="2.3"/>
			<circle class="st3" cx="406.9" cy="78.9" r="2.3"/>
			<circle class="st3" cx="406.9" cy="92.6" r="2.3"/>
			<circle class="st3" cx="406.9" cy="106.3" r="2.3"/>
			<circle class="st3" cx="406.9" cy="120" r="2.3"/>
			<circle class="st3" cx="420.6" cy="51.5" r="2.3"/>
			<circle class="st3" cx="420.6" cy="65.2" r="2.3"/>
			<circle class="st3" cx="420.6" cy="78.9" r="2.3"/>
			<circle class="st3" cx="420.6" cy="92.6" r="2.3"/>
			<circle class="st3" cx="420.6" cy="106.3" r="2.3"/>
			<circle class="st3" cx="420.6" cy="120" r="2.3"/>
			<circle class="st3" cx="434.3" cy="51.5" r="2.3"/>
			<circle class="st3" cx="434.3" cy="65.2" r="2.3"/>
			<circle class="st3" cx="434.3" cy="78.9" r="2.3"/>
			<circle class="st3" cx="434.3" cy="92.6" r="2.3"/>
			<circle class="st3" cx="434.3" cy="106.3" r="2.3"/>
			<circle class="st3" cx="434.3" cy="120" r="2.3"/>
			<circle class="st3" cx="448" cy="51.5" r="2.3"/>
			<circle class="st3" cx="448" cy="65.2" r="2.3"/>
			<circle class="st3" cx="448" cy="78.9" r="2.3"/>
			<circle class="st3" cx="448" cy="92.6" r="2.3"/>
			<circle class="st3" cx="448" cy="106.3" r="2.3"/>
			<circle class="st3" cx="448" cy="120" r="2.3"/>
		</g>
	</g>
</g>
<g id="Capa_3" class="st0">
</g>
<g id="Capa_2" class="st0">
</g>
</svg>
