<?xml version="1.0" encoding="utf-8"?>
<!-- Generator: Adobe Illustrator 21.1.0, SVG Export Plug-In . SVG Version: 6.00 Build 0)  -->
<svg version="1.1" xmlns="http://www.w3.org/2000/svg" xmlns:xlink="http://www.w3.org/1999/xlink" x="0px" y="0px"
	 viewBox="0 0 500 350" style="enable-background:new 0 0 500 350;" xml:space="preserve">
<style type="text/css">
	.st0{display:none;}
	.st1{display:inline;}
	.st2{fill:#FFFFFF;stroke:#575757;stroke-width:0.8;stroke-linecap:round;stroke-linejoin:round;stroke-miterlimit:10;}
	.st3{fill:#3FA8DF;}
	.st4{fill:none;stroke:#575757;stroke-width:0.8;stroke-linecap:round;stroke-linejoin:round;stroke-miterlimit:10;}
	
		.st5{display:inline;fill:#FFFFFF;stroke:#575757;stroke-width:0.8;stroke-linecap:round;stroke-linejoin:round;stroke-miterlimit:10;}
	.st6{display:inline;fill:#3FA8DF;}
	.st7{display:inline;fill:none;stroke:#575757;stroke-width:0.8;stroke-linecap:round;stroke-linejoin:round;stroke-miterlimit:10;}
	.st8{fill:none;stroke:#419DCF;stroke-width:0.8;stroke-linecap:round;stroke-linejoin:round;stroke-miterlimit:10;}
	.st9{fill:#575756;}
	.st10{display:inline;fill:#FFFFFF;}
	
		.st11{display:inline;fill:none;stroke:#419DCF;stroke-width:0.8;stroke-linecap:round;stroke-linejoin:round;stroke-miterlimit:10;}
	.st12{display:inline;fill:#0082C7;}
	.st13{display:inline;fill:#005EA9;}
	.st14{display:inline;fill:#00468D;}
	.st15{display:inline;fill:#43474B;}
	.st16{display:inline;fill:#3C4044;}
	.st17{fill:#FFFFFF;}
	.st18{fill:#FFFFFF;stroke:#575757;stroke-width:3.2;stroke-linecap:round;stroke-linejoin:round;stroke-miterlimit:10;}
	.st19{fill:none;stroke:#575757;stroke-width:3.2;stroke-linecap:round;stroke-linejoin:round;stroke-miterlimit:10;}
	.st20{fill:none;stroke:#419DCF;stroke-width:3.2;stroke-linecap:round;stroke-linejoin:round;stroke-miterlimit:10;}
	.st21{display:inline;fill:none;stroke:#FF7BEB;stroke-width:0.5627;stroke-miterlimit:10;}
</style>
<g id="Capa_1" class="st0">
</g>
<g id="Capa_4">
	<g>
		<path class="st19" d="M282.6,299.5H126.4c-9,0-16.3-7.3-16.3-16.3v-12.4h156.2v12.4C266.4,292.2,273.6,299.5,282.6,299.5
			L282.6,299.5c9,0,16.3-7.3,16.3-16.3V82"/>
		<path class="st19" d="M298.9,81.3c0-9,7.3-16.3,16.3-16.3h0c9,0,16.3,7.3,16.3,16.3v12.4h-31.6"/>
		<path class="st19" d="M315.1,65H159.9c-9,0-16.3,7.3-16.3,16.3v188.4"/>
		<g>
			<rect x="159.7" y="85.6" class="st19" width="120.9" height="40"/>
			<rect x="165" y="90.4" class="st3" width="110.3" height="30.5"/>
			<line class="st19" x1="159.7" y1="141.7" x2="280.6" y2="141.7"/>
			<line class="st19" x1="159.7" y1="237.7" x2="280.6" y2="237.7"/>
			<line class="st19" x1="159.7" y1="253.7" x2="280.6" y2="253.7"/>
			<line class="st19" x1="159.7" y1="157.7" x2="212.5" y2="157.7"/>
			<line class="st19" x1="159.7" y1="173.7" x2="212.5" y2="173.7"/>
			<line class="st19" x1="159.7" y1="189.7" x2="212.5" y2="189.7"/>
			<line class="st19" x1="159.7" y1="205.7" x2="212.5" y2="205.7"/>
			<line class="st19" x1="159.7" y1="221.7" x2="212.5" y2="221.7"/>
			<line class="st19" x1="227.8" y1="157.7" x2="280.6" y2="157.7"/>
			<rect x="227.8" y="173.7" class="st19" width="52.8" height="48"/>
			<rect x="234.2" y="179.5" class="st3" width="40" height="36.4"/>
		</g>
		<g>
			<path class="st18" d="M242.7,250.9l-1-1c-2.2-2.2-2.3-5.9-0.2-8.2l38.9-43.5l14,14l-43.5,38.9
				C248.5,253.3,244.9,253.2,242.7,250.9z"/>
			<path class="st18" d="M244.7,253l-5-5l-3.2,3.2c-1,1-1,2.7,0,3.7l1.3,1.3c1,1,2.7,1,3.7,0L244.7,253z"/>
			<line class="st19" x1="236.7" y1="255.9" x2="232.4" y2="260.2"/>
			
				<rect x="311.9" y="122.3" transform="matrix(0.7071 0.7071 -0.7071 0.7071 215.0702 -177.4704)" class="st18" width="19.7" height="97.2"/>
			
				<rect x="317.2" y="135.8" transform="matrix(0.7071 0.7071 -0.7071 0.7071 215.0702 -177.4704)" class="st3" width="9.1" height="70.1"/>
			<line class="st19" x1="286.1" y1="192.6" x2="300" y2="206.6"/>
			<path class="st19" d="M363.1,143.5l-14-14l3.9-3.9c3.9-3.9,10.1-3.9,14,0v0c3.9,3.9,3.9,10.1,0,14L363.1,143.5z"/>
			<line class="st19" x1="357.5" y1="149.1" x2="343.5" y2="135.2"/>
			<path class="st19" d="M363.2,143.6l2.9,2.9c2.5,2.5,2.5,6.5,0,8.9l-41,41"/>
		</g>
		<g>
			<polyline class="st18" points="159.2,195.4 159.2,227.4 143.6,220.9 128.3,227.4 128.3,195.4 			"/>
			<polygon class="st3" points="133.7,217.1 143.6,212.8 154.3,217.3 154.3,187.4 133.7,187.4 			"/>
			<polyline class="st19" points="159.2,219.4 143.6,212.9 128.3,219.4 			"/>
			<path class="st18" d="M108.6,165.6c0-3.6,4.1-6.5,5.2-9.7c1.1-3.4-0.5-8.1,1.5-10.9c2.1-2.8,7.1-2.8,9.9-4.8c2.8-2,4.3-6.9,7.6-8
				c3.2-1.1,7.3,1.9,10.9,1.9c3.6,0,7.6-3,10.9-1.9c3.4,1.1,4.8,5.9,7.6,8c2.8,2.1,7.9,2,9.9,4.8c2,2.8,0.4,7.6,1.5,10.9
				c1.1,3.2,5.2,6.1,5.2,9.7c0,3.6-4.1,6.5-5.2,9.7c-1.1,3.4,0.5,8.1-1.5,10.9c-2.1,2.8-7.1,2.8-9.9,4.8c-2.8,2-4.3,6.9-7.6,8
				c-3.2,1.1-7.3-1.9-10.9-1.9c-3.6,0-7.6,3-10.9,1.9c-3.4-1.1-4.8-5.9-7.6-8c-2.8-2.1-7.9-2-9.9-4.8c-2-2.8-0.4-7.6-1.5-10.9
				C112.8,172.1,108.6,169.2,108.6,165.6z"/>
			<circle class="st18" cx="143.8" cy="165.6" r="24.5"/>
			<circle class="st3" cx="143.8" cy="165.6" r="20"/>
			<circle class="st18" cx="143.8" cy="165.6" r="9.6"/>
		</g>
		<g>
			<line class="st20" x1="111" y1="79.2" x2="111" y2="84.7"/>
			<line class="st20" x1="111" y1="92.8" x2="111" y2="98.3"/>
			<line class="st20" x1="120.6" y1="88.8" x2="115.1" y2="88.8"/>
			<line class="st20" x1="107" y1="88.8" x2="101.4" y2="88.8"/>
		</g>
		<g>
			<line class="st20" x1="71.8" y1="237.5" x2="71.8" y2="243"/>
			<line class="st20" x1="71.8" y1="251.2" x2="71.8" y2="256.7"/>
			<line class="st20" x1="81.4" y1="247.1" x2="75.9" y2="247.1"/>
			<line class="st20" x1="67.7" y1="247.1" x2="62.2" y2="247.1"/>
		</g>
		<g>
			<circle class="st3" cx="290.5" cy="216.6" r="2.3"/>
			<circle class="st3" cx="290.5" cy="230.3" r="2.3"/>
			<circle class="st3" cx="290.5" cy="244" r="2.3"/>
			<circle class="st3" cx="290.5" cy="257.7" r="2.3"/>
			<circle class="st3" cx="290.5" cy="271.4" r="2.3"/>
			<circle class="st3" cx="290.5" cy="285.1" r="2.3"/>
			<circle class="st3" cx="304.2" cy="216.6" r="2.3"/>
			<circle class="st3" cx="304.2" cy="230.3" r="2.3"/>
			<circle class="st3" cx="304.2" cy="244" r="2.3"/>
			<circle class="st3" cx="304.2" cy="257.7" r="2.3"/>
			<circle class="st3" cx="304.2" cy="271.4" r="2.3"/>
			<circle class="st3" cx="304.2" cy="285.1" r="2.3"/>
			<circle class="st3" cx="317.9" cy="216.6" r="2.3"/>
			<circle class="st3" cx="317.9" cy="230.3" r="2.3"/>
			<circle class="st3" cx="317.9" cy="244" r="2.3"/>
			<circle class="st3" cx="317.9" cy="257.7" r="2.3"/>
			<circle class="st3" cx="317.9" cy="271.4" r="2.3"/>
			<circle class="st3" cx="317.9" cy="285.1" r="2.3"/>
			<circle class="st3" cx="331.5" cy="216.6" r="2.3"/>
			<circle class="st3" cx="331.5" cy="230.3" r="2.3"/>
			<circle class="st3" cx="331.5" cy="244" r="2.3"/>
			<circle class="st3" cx="331.5" cy="257.7" r="2.3"/>
			<circle class="st3" cx="331.5" cy="271.4" r="2.3"/>
			<circle class="st3" cx="331.5" cy="285.1" r="2.3"/>
			<circle class="st3" cx="345.1" cy="216.6" r="2.3"/>
			<circle class="st3" cx="345.1" cy="230.3" r="2.3"/>
			<circle class="st3" cx="345.1" cy="244" r="2.3"/>
			<circle class="st3" cx="345.1" cy="257.7" r="2.3"/>
			<circle class="st3" cx="345.1" cy="271.4" r="2.3"/>
			<circle class="st3" cx="345.1" cy="285.1" r="2.3"/>
			<circle class="st3" cx="358.8" cy="216.6" r="2.3"/>
			<circle class="st3" cx="358.8" cy="230.3" r="2.3"/>
			<circle class="st3" cx="358.8" cy="244" r="2.3"/>
			<circle class="st3" cx="358.8" cy="257.7" r="2.3"/>
			<circle class="st3" cx="358.8" cy="271.4" r="2.3"/>
			<circle class="st3" cx="358.8" cy="285.1" r="2.3"/>
			<circle class="st3" cx="372.5" cy="216.6" r="2.3"/>
			<circle class="st3" cx="372.5" cy="230.3" r="2.3"/>
			<circle class="st3" cx="372.5" cy="244" r="2.3"/>
			<circle class="st3" cx="372.5" cy="257.7" r="2.3"/>
			<circle class="st3" cx="372.5" cy="271.4" r="2.3"/>
			<circle class="st3" cx="372.5" cy="285.1" r="2.3"/>
			<circle class="st3" cx="386.2" cy="216.6" r="2.3"/>
			<circle class="st3" cx="386.2" cy="230.3" r="2.3"/>
			<circle class="st3" cx="386.2" cy="244" r="2.3"/>
			<circle class="st3" cx="386.2" cy="257.7" r="2.3"/>
			<circle class="st3" cx="386.2" cy="271.4" r="2.3"/>
			<circle class="st3" cx="386.2" cy="285.1" r="2.3"/>
		</g>
	</g>
</g>
<g id="Capa_3" class="st0">
</g>
<g id="Capa_2" class="st0">
</g>
</svg>
