<?xml version="1.0" encoding="utf-8"?>
<!-- Generator: Adobe Illustrator 21.1.0, SVG Export Plug-In . SVG Version: 6.00 Build 0)  -->
<svg version="1.1" id="Capa_1" xmlns="http://www.w3.org/2000/svg" xmlns:xlink="http://www.w3.org/1999/xlink" x="0px" y="0px"
	 viewBox="0 0 70 70" style="enable-background:new 0 0 70 70;" xml:space="preserve">
<style type="text/css">
	.st0{fill:none;stroke:#FFFFFF;stroke-width:0.9568066;stroke-linecap:round;stroke-linejoin:round;stroke-miterlimit:10;}
	.st1{fill:#FFFFFF;}
</style>
<rect x="4.98" y="6.0697317" class="st0" width="60" height="60"/>
<g>
	<path class="st0" d="M34.2439766,16.5664845c-0.8872528,1.6093769-1.5630989,3.3512611-1.9926071,5.1879082
		c4.891243,1.4430923,9.0195465,4.6635323,11.6325378,8.9186287c0.0100517-0.0805836,0.0162468-0.1620941,0.0162468-0.2445507
		v-8.0212822c0-0.7050762-0.3761482-1.3565655-0.9867554-1.7091141l-6.9466515-4.0106316
		C35.437336,16.3817825,34.801712,16.342123,34.2439766,16.5664845z"/>
	<g>
		<path class="st0" d="M32.2513466,31.0821495c-0.3503132-1.4980488-0.5372086-3.0589161-0.5372086-4.663847
			c0-3.5726299,0.9189034-6.9297485,2.5298386-9.8518391c-0.085556,0.0344124-0.169529,0.0740929-0.2507248,0.1209793
			l-6.9466496,4.0106316c-0.6106071,0.3525486-0.9867573,1.0040379-0.9867573,1.7091141v8.0212822
			c0,0.5776901,0.2555294,1.1164818,0.6826134,1.4872589C28.6539993,31.8893681,30.5010777,31.5985413,32.2513466,31.0821495z"/>
		<path class="st0" d="M27.0466022,32.1375847c-0.1103153-0.0636826-0.2099476-0.1400719-0.3041019-0.2218132
			C26.8366756,31.9975128,26.9363079,32.0739021,27.0466022,32.1375847z"/>
	</g>
	<path class="st0" d="M40.4033661,26.4185562c-3.5872536,3.350523-8.3814163,5.424387-13.6609287,5.4971733
		c0.0941753,0.0817623,0.1938286,0.1581535,0.3041649,0.2218552l6.9466496,4.0106506
		c0.6106071,0.3525276,1.3628883,0.3525276,1.9734955,0l6.9466515-4.0106506
		c0.6106071-0.3525276,0.9867554-1.0040379,0.9867554-1.7091141c0,0.0824566-0.0061951,0.1639671-0.0162468,0.2445507
		C42.9183693,29.1006889,41.7447586,27.6708527,40.4033661,26.4185562z"/>
</g>
<g>
	<path class="st1" d="M14.1582127,42.7679901h4.7505188c4.1115189,0,6.9430637,2.8325348,6.9430637,6.394928
		s-2.8315449,6.394928-6.9430637,6.394928h-4.7505188V42.7679901z M18.9087315,52.4517365
		c1.9920559,0,3.3806686-1.3886108,3.3806686-3.2888184s-1.3886127-3.2888222-3.3806686-3.2888222h-1.278986v6.5776405H18.9087315z"
		/>
	<path class="st1" d="M28.0374298,42.7679901h3.1061077l3.9278202,4.9332314l3.9288063-4.9332314h3.1061058v12.789856h-3.4715309
		v-7.5830498l-3.5633812,4.4769402l-3.562397-4.4769402v7.5830498h-3.4715309V42.7679901z"/>
	<path class="st1" d="M45.0217667,42.7679901h5.6640778c2.9233971,0,4.475956,1.5525589,4.475956,3.3796806
		c0,1.0784988-0.4740639,1.6997185-0.9678802,2.1194649c-0.2745628,0.238018-0.602459,0.4029541-0.9501038,0.5303574
		c0.4750519,0.1649361,0.8947945,0.3841896,1.2789841,0.6765289c0.6389999,0.4928284,1.2789879,1.2779999,1.2789879,2.520443
		c0,1.918972-1.644413,3.5633812-4.6596565,3.5633812h-6.1203651V42.7679901z M50.4112816,47.7012215
		c0.7496147,0,1.1881256-0.4572754,1.1881256-1.0962753s-0.4572754-1.0962715-1.1881256-1.0962715h-1.917984v2.1925468H50.4112816z
		 M50.868557,52.8171616c0.8227005,0,1.3698463-0.5481339,1.3698463-1.2789841s-0.5471458-1.2789879-1.3698463-1.2789879h-2.3752594
		v2.557972H50.868557z"/>
</g>
</svg>
