<?xml version="1.0" encoding="utf-8"?>
<!-- Generator: Adobe Illustrator 21.1.0, SVG Export Plug-In . SVG Version: 6.00 Build 0)  -->
<svg version="1.1" xmlns="http://www.w3.org/2000/svg" xmlns:xlink="http://www.w3.org/1999/xlink" x="0px" y="0px"
	 viewBox="0 0 500 350" style="enable-background:new 0 0 500 350;" xml:space="preserve">
<style type="text/css">
	.st0{display:none;}
	.st1{display:inline;}
	.st2{fill:#FFFFFF;stroke:#575757;stroke-width:0.8;stroke-linecap:round;stroke-linejoin:round;stroke-miterlimit:10;}
	.st3{fill:#3FA8DF;}
	.st4{fill:none;stroke:#575757;stroke-width:0.8;stroke-linecap:round;stroke-linejoin:round;stroke-miterlimit:10;}
	
		.st5{display:inline;fill:#FFFFFF;stroke:#575757;stroke-width:0.8;stroke-linecap:round;stroke-linejoin:round;stroke-miterlimit:10;}
	.st6{display:inline;fill:#3FA8DF;}
	.st7{display:inline;fill:none;stroke:#575757;stroke-width:0.8;stroke-linecap:round;stroke-linejoin:round;stroke-miterlimit:10;}
	.st8{fill:none;stroke:#419DCF;stroke-width:0.8;stroke-linecap:round;stroke-linejoin:round;stroke-miterlimit:10;}
	.st9{fill:#575756;}
	.st10{display:inline;fill:#FFFFFF;}
	
		.st11{display:inline;fill:none;stroke:#419DCF;stroke-width:0.8;stroke-linecap:round;stroke-linejoin:round;stroke-miterlimit:10;}
	.st12{display:inline;fill:#0082C7;}
	.st13{display:inline;fill:#005EA9;}
	.st14{display:inline;fill:#00468D;}
	.st15{display:inline;fill:#43474B;}
	.st16{display:inline;fill:#3C4044;}
	.st17{fill:#FFFFFF;}
	.st18{fill:#FFFFFF;stroke:#575757;stroke-width:3.2;stroke-linecap:round;stroke-linejoin:round;stroke-miterlimit:10;}
	.st19{fill:none;stroke:#575757;stroke-width:3.2;stroke-linecap:round;stroke-linejoin:round;stroke-miterlimit:10;}
	.st20{fill:none;stroke:#419DCF;stroke-width:3.2;stroke-linecap:round;stroke-linejoin:round;stroke-miterlimit:10;}
	.st21{display:inline;fill:none;stroke:#FF7BEB;stroke-width:0.5627;stroke-miterlimit:10;}
</style>
<g id="Capa_1" class="st0">
</g>
<g id="Capa_4">
	<g>
		<g>
			<path class="st3" d="M204.1,222.9c-1.3,0-2.5-0.1-3.7-0.3l-15.9,15.9c-4.4,4.4-11.5,4.4-15.9,0l-15.9-15.9
				c-1.2,0.2-2.4,0.3-3.6,0.3c-24.4,0.2-44.4,18.2-44.4,42.6v17.9c0,3,2.4,5.4,5.4,5.4h132.9c3,0,5.4-2.4,5.4-5.4v-18.2
				C248.5,240.8,228.6,223,204.1,222.9z"/>
			<g>
				<g>
					<line class="st18" x1="118.6" y1="267.6" x2="123.2" y2="298.5"/>
					<line class="st18" x1="234.6" y1="267.6" x2="230" y2="298.5"/>
				</g>
				<path class="st18" d="M211.5,211.6l-26.9,26.9c-4.4,4.4-11.5,4.4-15.9,0l-26.9-26.9"/>
				<line class="st18" x1="156.6" y1="226" x2="196.6" y2="226"/>
				<g>
					<path class="st18" d="M159.5,193.7h-24.9c-10.8,0-19.5-8.7-19.5-19.5V121c0-33.7,27.4-61.1,61.1-61.1l0,0
						c33.7,0,61.1,27.4,61.1,61.1v53.2c0,10.8-8.7,19.5-19.5,19.5h-24.2"/>
					<path class="st18" d="M153,103.5l-9,6.5c-4.2,3.1-6.7,7.8-6.7,13v27.3c0,21.9,17.7,39.5,39.5,39.5l0,0
						c21.9,0,39.5-17.7,39.5-39.5v-19.2l-45.4-19.7c-7-3.1-11.5-9.9-11.5-17.5v-4.6"/>
					<polyline class="st18" points="174,153.8 179.1,153.8 179.1,143.6 					"/>
				</g>
				<path class="st18" d="M129.2,135.6v9.6c0,4.2,3.4,7.6,7.6,7.6"/>
				<path class="st18" d="M224.7,135.6v9.6c0,4.2-3.4,7.6-7.6,7.6"/>
				<path class="st19" d="M160.5,187.1v12.4c0,6.4-5.1,11.5-11.5,11.5l0,0c-31.1,0-56.2,25.2-56.2,56.2v26.1c0,4.1,3.4,7.5,7.5,7.5
					H253c4.1,0,7.5-3.4,7.5-7.5v-26.1c0-31.1-25.2-56.2-56.2-56.2l0,0c-6.4,0-11.5-5.1-11.5-11.5v-12.4"/>
			</g>
			<g>
				<path class="st18" d="M298.2,175.3v13.5c0,6.4-5.1,11.5-11.5,11.5h-22c-21.4,0-38.8,17.4-38.8,38.8v54.3c0,4.1,3.4,7.5,7.5,7.5
					h166.4c4.1,0,7.5-3.4,7.5-7.5v-54.3c0-21.4-17.4-38.8-38.8-38.8h-22c-6.4,0-11.5-5.1-11.5-11.5v-13.5"/>
				<path class="st3" d="M361.7,211h-19.2h-1.6h-14.4c-2.5,2.5-6,4.1-9.9,4.1s-7.3-1.6-9.9-4.1h-35.2c-18.6,0-33.8,15.1-33.8,33.8
					v39c0,3.6,3,6.5,6.5,6.5H389c3.6,0,6.5-3,6.5-6.5v-39C395.5,226.2,380.4,211,361.7,211z"/>
				<g>
					<line class="st18" x1="263.1" y1="260.8" x2="265.4" y2="298.5"/>
					<line class="st18" x1="369.9" y1="260.8" x2="367.7" y2="298.5"/>
				</g>
				<path class="st18" d="M277.3,99.7v40c0,21.9,17.7,39.5,39.5,39.5l0,0c21.9,0,39.5-17.7,39.5-39.5V99"/>
				<polyline class="st18" points="314,143.1 318.9,143.1 318.9,133 				"/>
				<path class="st18" d="M359.4,98.7h-74.9c-14.4,0-26.1-11.7-26.1-26.1v-8.7c0-2.5,2.1-4.5,4.5-4.5h78.7
					c13.4,0,24.2,10.9,24.2,24.2v8.6C365.9,95.8,363,98.7,359.4,98.7z"/>
				<path class="st3" d="M302.5,90.6h-17c-8.5,0-15.4-6.9-15.4-15.4v-5.1c0-1.5,1.2-2.7,2.7-2.7h19.2c7.9,0,14.4,6.4,14.4,14.4v5.1
					C306.4,88.9,304.7,90.6,302.5,90.6z"/>
				<line class="st18" x1="363.1" y1="97.9" x2="363.1" y2="118.2"/>
				<path class="st18" d="M358.2,116.7c4.2,0,7.6,3.4,7.6,7.6v10.3c0,4.2-3.4,7.6-7.6,7.6"/>
				<line class="st18" x1="270.7" y1="118.2" x2="270.7" y2="96.1"/>
				<path class="st18" d="M275.6,142.2c-4.2,0-7.6-3.4-7.6-7.6v-10.3c0-4.2,3.4-7.6,7.6-7.6"/>
				<g>
					<path class="st18" d="M315.9,214.7l-10.1,10.1c-1.8,1.8-4.7,1.8-6.5,0l-21.4-21.4c-1.7-1.7-1.7-4.5,0-6.3l10.2-10.2
						L315.9,214.7z"/>
					<line class="st18" x1="288.2" y1="187" x2="298.2" y2="187"/>
				</g>
				<g>
					<path class="st18" d="M317.9,214.7l10.1,10.1c1.8,1.8,4.7,1.8,6.5,0l21.4-21.4c1.7-1.7,1.7-4.5,0-6.3L345.7,187L317.9,214.7z"
						/>
					<line class="st18" x1="345.7" y1="187" x2="335.7" y2="187"/>
				</g>
				<line class="st18" x1="316.7" y1="214.8" x2="316.7" y2="263.6"/>
				<g>
					<rect x="332.2" y="235.5" class="st18" width="26.5" height="7.3"/>
					<path class="st18" d="M358.7,242.8h-26.5v15.5c0,2.9,2.4,5.3,5.3,5.3h15.9c2.9,0,5.3-2.4,5.3-5.3V242.8z"/>
				</g>
			</g>
		</g>
		<g>
			<line class="st20" x1="77.9" y1="49.5" x2="77.9" y2="55"/>
			<line class="st20" x1="77.9" y1="63.1" x2="77.9" y2="68.6"/>
			<line class="st20" x1="87.5" y1="59.1" x2="81.9" y2="59.1"/>
			<line class="st20" x1="73.8" y1="59.1" x2="68.3" y2="59.1"/>
		</g>
		<g>
			<line class="st20" x1="410" y1="151.1" x2="410" y2="156.6"/>
			<line class="st20" x1="410" y1="164.8" x2="410" y2="170.3"/>
			<line class="st20" x1="419.6" y1="160.7" x2="414" y2="160.7"/>
			<line class="st20" x1="405.9" y1="160.7" x2="400.4" y2="160.7"/>
		</g>
		<g>
			<circle class="st3" cx="52.7" cy="184.5" r="2.3"/>
			<circle class="st3" cx="52.7" cy="198.2" r="2.3"/>
			<circle class="st3" cx="52.7" cy="211.9" r="2.3"/>
			<circle class="st3" cx="52.7" cy="225.5" r="2.3"/>
			<circle class="st3" cx="52.7" cy="239.2" r="2.3"/>
			<circle class="st3" cx="52.7" cy="252.9" r="2.3"/>
			<circle class="st3" cx="66.4" cy="184.5" r="2.3"/>
			<circle class="st3" cx="66.4" cy="198.2" r="2.3"/>
			<circle class="st3" cx="66.4" cy="211.9" r="2.3"/>
			<circle class="st3" cx="66.4" cy="225.5" r="2.3"/>
			<circle class="st3" cx="66.4" cy="239.2" r="2.3"/>
			<circle class="st3" cx="66.4" cy="252.9" r="2.3"/>
			<circle class="st3" cx="80.1" cy="184.5" r="2.3"/>
			<circle class="st3" cx="80.1" cy="198.2" r="2.3"/>
			<circle class="st3" cx="80.1" cy="211.9" r="2.3"/>
			<circle class="st3" cx="80.1" cy="225.5" r="2.3"/>
			<circle class="st3" cx="80.1" cy="239.2" r="2.3"/>
			<circle class="st3" cx="80.1" cy="252.9" r="2.3"/>
			<circle class="st3" cx="93.8" cy="184.5" r="2.3"/>
			<circle class="st3" cx="93.8" cy="198.2" r="2.3"/>
			<circle class="st3" cx="93.8" cy="211.9" r="2.3"/>
			<circle class="st3" cx="93.8" cy="225.5" r="2.3"/>
			<circle class="st3" cx="93.8" cy="239.2" r="2.3"/>
			<circle class="st3" cx="93.8" cy="252.9" r="2.3"/>
			<circle class="st3" cx="107.4" cy="184.5" r="2.3"/>
			<circle class="st3" cx="107.4" cy="198.2" r="2.3"/>
			<circle class="st3" cx="107.4" cy="211.9" r="2.3"/>
			<circle class="st3" cx="107.4" cy="225.5" r="2.3"/>
			<circle class="st3" cx="107.4" cy="239.2" r="2.3"/>
			<circle class="st3" cx="107.4" cy="252.9" r="2.3"/>
			<circle class="st3" cx="121.1" cy="184.5" r="2.3"/>
			<circle class="st3" cx="121.1" cy="198.2" r="2.3"/>
			<circle class="st3" cx="121.1" cy="211.9" r="2.3"/>
			<circle class="st3" cx="121.1" cy="225.5" r="2.3"/>
			<circle class="st3" cx="121.1" cy="239.2" r="2.3"/>
			<circle class="st3" cx="121.1" cy="252.9" r="2.3"/>
			<circle class="st3" cx="134.8" cy="184.5" r="2.3"/>
			<circle class="st3" cx="134.8" cy="198.2" r="2.3"/>
			<circle class="st3" cx="134.8" cy="211.9" r="2.3"/>
			<circle class="st3" cx="134.8" cy="225.5" r="2.3"/>
			<circle class="st3" cx="134.8" cy="239.2" r="2.3"/>
			<circle class="st3" cx="134.8" cy="252.9" r="2.3"/>
			<circle class="st3" cx="148.5" cy="184.5" r="2.3"/>
			<circle class="st3" cx="148.5" cy="198.2" r="2.3"/>
			<circle class="st3" cx="148.5" cy="211.9" r="2.3"/>
			<circle class="st3" cx="148.5" cy="225.5" r="2.3"/>
			<circle class="st3" cx="148.5" cy="239.2" r="2.3"/>
			<circle class="st3" cx="148.5" cy="252.9" r="2.3"/>
		</g>
	</g>
</g>
<g id="Capa_3" class="st0">
</g>
<g id="Capa_2" class="st0">
</g>
</svg>
